<?xml version="1.0" encoding="UTF-8"?>
<svg id="Layer_2" data-name="Layer 2" xmlns="http://www.w3.org/2000/svg" viewBox="0 0 1200 960.93">
  <defs>
    <style>
      .cls-1 {
        fill: #006298;
      }

      .cls-2 {
        fill: #afafaf;
      }

      .cls-3 {
        fill: #75787b;
      }

      .cls-4 {
        fill: #f4a100;
      }

      .cls-5 {
        fill: #1d1d1b;
      }
    </style>
  </defs>
  <g id="Final">
    <g id="ieee_untels_cs_rgb_pp_c">
      <g>
        <path class="cls-1" d="m87.48,673.56l-.31,30.81v10.58c-.21,13.17-.62,19.19-6.12,25-7.68,8.09-19.09,8.09-22.82,8.09-13.9,0-21.89-5.19-25.83-10.79-3.63-4.98-4.25-10.58-4.56-21.78v-7.68c-.1-16.18-.1-19.09-.52-33.92l.62-.62c7.05.1,9.44.1,18.26-.31l.52.62c-.21,10.27-.31,18.26-.31,26.66,0,5.5,0,11,.21,16.49.21,6.54.83,10.17,2.38,12.86,2.28,3.63,6.33,5.5,10.58,5.5,3.43,0,6.85-1.14,9.13-3.74,2.8-3.32,3.11-8.3,3.11-19.19,0-12.76-.52-25.52-1.04-38.28l.62-.62c5.91.1,7.99.1,15.56-.31l.52.62Z"/>
        <path class="cls-1" d="m148.49,746.38c-8.3,0-10.06.1-16.91.31l-.62-.62c0-3.53.11-7.16.11-10.68,0-3.94-.11-18.15-.31-21.58-.31-3.74-.83-9.86-6.53-9.86-3.32,0-5.81,1.76-7.99,3.22.11,18.57.21,22.61.83,38.59l-.62.62c-8.3,0-9.86,0-17.32.31l-.62-.62c.11-6.64.21-13.28.21-19.92,0-16.91-.62-23.44-1.45-32.47l.62-.73c7.78-1.04,9.54-1.35,17.53-3.01l1.04.73-.21,5.71c4.77-2.8,10.27-6.12,16.6-6.12,3.73,0,9.65.83,12.86,6.22,2.6,4.25,2.7,9.03,2.8,18.98v8.09c.21,10.17.21,13.07.73,22.2l-.73.62Z"/>
        <path class="cls-1" d="m177.59,746.48c-8.4-.1-10.48,0-17.95.31l-.62-.73c.31-8.51.62-14.83.62-26.14,0-14.73-.31-18.36-1.14-26.24l.62-.62,17.84-3.11.73.83c-.1,8.82-.31,17.74-.31,26.56,0,14.32.41,20.44.93,28.42l-.73.73Zm-1.45-65.77c-7.36.93-9.34,1.14-16.39,2.39l-.73-.62c.1-1.97.1-4.05.1-6.02,0-2.49-.1-4.67-.31-8.4l.62-.73,16.91-2.08.62.62-.31,14.11-.52.73Z"/>
        <path class="cls-1" d="m217.7,746.48c-7.47-.1-10.17,0-16.91.31l-.73-.73c-2.28-8.51-3.42-12.34-17.22-53.22l.42-.83c7.88-.1,9.96-.21,18.16-1.14l.73.62c1.45,6.85,1.87,8.82,4.46,18.47l1.97,7.99,2.59,11.2,5.29-20.44c2.07-8.09,2.38-9.54,3.84-16.49l.73-.73,14.52-.31.52.73c-2.9,8.51-7.47,21.99-10.27,30.39-2.18,6.54-4.15,12.97-7.47,23.34l-.62.83Z"/>
        <path class="cls-1" d="m286.12,731.44l-.73,11.72-.62.83c-5.5,2.18-9.23,3.73-17.84,3.73-7.47,0-21.58-1.25-27.59-15.25-1.66-3.63-2.49-8.71-2.49-13.59,0-17.95,10.79-28.63,27.07-28.63,2.39,0,4.77.21,7.36.93,3.53.83,11.52,3.32,15.15,15.56,1.45,5.19,1.56,10.37,1.66,15.46l-.62.73-33.51.62c.41,2.07.73,4.15,2.28,6.33,2.49,3.73,6.74,5.71,12.97,5.71,7.57,0,12.24-2.39,16.18-4.46l.73.31Zm-14.84-19.29c0-2.39-.1-4.88-1.55-7.16-1.14-1.87-3.22-3.63-6.64-3.63-1.45,0-2.9.31-4.15,1.14-3.94,2.49-4.67,6.85-4.98,10.06l17.32-.41Z"/>
        <path class="cls-1" d="m325.52,708.41c-1.45-.83-2.49-1.45-4.25-1.45-7.05,0-7.05,6.85-7.05,11.51,0,7.16.62,18.88,1.04,27.28l-.52.73c-8.3-.1-9.96,0-17.64.31l-.62-.62c.21-8.61.31-17.12.31-25.62,0-14.42-.31-19.09-.94-26.87l.62-.62c7.57-1.14,9.54-1.45,17.22-3.11l.83.83-.31,9.54c3.32-7.68,8.09-10.06,12.35-10.06.73,0,1.45.1,2.18.1l.62.73-2.9,16.91-.93.41Z"/>
        <path class="cls-1" d="m361.72,712.56c5.7,2.18,13.69,5.19,13.69,16.6,0,.73,0,1.45-.11,2.28-1.87,14.83-17.43,16.29-25.31,16.29s-11.93-1.66-17.01-3.53l-.52-.93c.41-5.19.52-6.33.73-11.72l.93-.41c1.56,1.24,2.38,1.97,4.15,2.9,3.84,1.97,8.09,2.9,10.99,2.9,5.81,0,8.2-2.8,8.2-5.39,0-3.73-4.56-5.29-7.36-6.22l-3.94-1.45c-4.87-1.87-13.48-5.19-13.48-16.29,0-4.15,1.45-7.26,2.8-9.13,5.39-7.78,15.56-8.19,20.64-8.19,6.74,0,11,1.24,15.87,2.59l.52.62-1.04,11.31-.93.31c-2.6-1.66-6.64-4.36-12.97-4.36s-7.26,3.42-7.26,4.67c0,2.9,2.8,4.05,6.33,5.29l5.09,1.87Z"/>
        <path class="cls-1" d="m401.46,746.48c-8.4-.1-10.48,0-17.95.31l-.62-.73c.31-8.51.62-14.83.62-26.14,0-14.73-.31-18.36-1.14-26.24l.62-.62,17.84-3.11.73.83c-.1,8.82-.31,17.74-.31,26.56,0,14.32.42,20.44.94,28.42l-.73.73Zm-1.46-65.77c-7.36.93-9.34,1.14-16.39,2.39l-.73-.62c.11-1.97.11-4.05.11-6.02,0-2.49-.11-4.67-.31-8.4l.62-.73,16.91-2.08.62.62-.31,14.11-.52.73Z"/>
        <path class="cls-1" d="m462.48,746.48c-7.78,0-9.75,0-16.91.31l-.52-.62.21-4.05c-2.49,2.18-6.33,5.6-13.69,5.6-3.43,0-9.03-.83-13.59-4.56-6.12-5.08-8.3-13.17-8.3-21.27,0-10.68,3.01-19.29,10.27-24.9,7.88-6.22,17.63-6.02,25.41-5.81.11-11.83,0-14.42-.62-24.17l.52-.62,17.11-2.7.73.62c-.41,13.69-.83,25-.83,52.39,0,13.59.31,19.81.73,29.15l-.52.62Zm-20.64-43.15c-11.62,0-13.9,8.92-13.9,16.91,0,2.07,0,14.94,10.06,14.94,2.91,0,4.98-1.25,7.06-2.49.31-12.55.41-15.25.31-29.05-1.45-.21-2.38-.31-3.52-.31Z"/>
        <path class="cls-1" d="m519.44,723.25c0,9.75,0,12.34.73,22.51l-.52.73c-6.74-.1-9.02,0-16.49.31l-.62-.73v-3.84c-2.18,1.76-6.64,5.5-14.42,5.5-10.17,0-18.16-7.16-18.16-18.26,0-4.67,1.97-10.58,7.78-14.21,6.22-3.84,12.03-4.98,24.48-6.64,0-1.56-.31-3.42-1.35-4.46-1.35-1.35-2.91-1.97-6.74-1.97-6.95,0-13.69,2.7-17.32,4.15l-.83-.41.52-11.31.62-.83c5.91-1.76,11.41-3.42,20.33-3.42,13.28,0,17.43,4.15,19.5,7.47,2.7,4.36,2.7,8.4,2.6,17.74l-.11,7.68Zm-17.01-3.73c-7.05.93-15.25,2.07-15.25,8.92,0,4.36,3.11,6.33,6.85,6.33,3.43,0,6.23-1.45,8.4-2.7v-12.55Z"/>
        <path class="cls-1" d="m580.37,746.48c-7.78,0-9.75,0-16.91.31l-.52-.62.21-4.05c-2.49,2.18-6.33,5.6-13.69,5.6-3.43,0-9.03-.83-13.59-4.56-6.12-5.08-8.3-13.17-8.3-21.27,0-10.68,3.01-19.29,10.27-24.9,7.88-6.22,17.63-6.02,25.41-5.81.11-11.83,0-14.42-.62-24.17l.52-.62,17.11-2.7.73.62c-.41,13.69-.83,25-.83,52.39,0,13.59.31,19.81.73,29.15l-.52.62Zm-20.64-43.15c-11.62,0-13.9,8.92-13.9,16.91,0,2.07,0,14.94,10.06,14.94,2.91,0,4.98-1.25,7.06-2.49.31-12.55.41-15.25.31-29.05-1.45-.21-2.38-.31-3.52-.31Z"/>
        <path class="cls-1" d="m685.96,673.56c-.11,11.62-.21,23.13-.21,34.75,0,12.45.1,22.61.21,37.66l-.52.52c-5.5,0-7.36,0-13.69.31l-.73-.52-9.23-13.48-10.37-15.25c-7.05-10.27-8.71-12.97-13.59-21.06l.62,13.9.31,12.76,1.04,22.72-.52.62c-6.02,0-8.2,0-15.15.31l-.52-.62c.11-10.06.31-20.23.31-30.39,0-13.9-.31-25.83-.83-41.91l.51-.62c7.58.1,8.92.1,17.12-.31l.73.52c2.59,4.15,4.15,6.43,11.93,18.26l9.44,13.8c5.29,7.88,5.81,8.71,8.82,13.8l-.41-17.12-.42-14.32-.73-14,.52-.62c6.43.1,8.2,0,14.73-.31l.62.62Z"/>
        <path class="cls-1" d="m744.03,723.25c0,9.75,0,12.34.73,22.51l-.52.73c-6.74-.1-9.03,0-16.49.31l-.62-.73v-3.84c-2.18,1.76-6.64,5.5-14.42,5.5-10.17,0-18.15-7.16-18.15-18.26,0-4.67,1.97-10.58,7.78-14.21,6.23-3.84,12.03-4.98,24.48-6.64,0-1.56-.31-3.42-1.35-4.46-1.35-1.35-2.9-1.97-6.74-1.97-6.95,0-13.7,2.7-17.33,4.15l-.83-.41.52-11.31.62-.83c5.91-1.76,11.41-3.42,20.33-3.42,13.28,0,17.43,4.15,19.5,7.47,2.7,4.36,2.7,8.4,2.59,17.74l-.1,7.68Zm-17.01-3.73c-7.06.93-15.25,2.07-15.25,8.92,0,4.36,3.11,6.33,6.85,6.33,3.42,0,6.23-1.45,8.4-2.7v-12.55Z"/>
        <path class="cls-1" d="m795.88,732.07l-.42,12.45-.62.62c-4.36,1.25-7.88,2.28-13.38,2.28-23.34,0-29.57-16.18-29.57-28.11,0-10.58,4.77-29.05,29.15-29.05,6.01,0,9.96,1.24,14.52,2.7l.52.62c-.83,5.5-.93,6.95-1.35,12.45l-1.04.31c-3.11-2.07-5.6-3.73-10.16-3.73-10.06,0-13.38,8.71-13.38,16.29,0,6.22,2.39,15.98,14.11,15.98,5.29,0,7.99-1.66,10.79-3.32l.83.52Z"/>
        <path class="cls-1" d="m822.06,746.48c-8.4-.1-10.48,0-17.95.31l-.62-.73c.31-8.51.62-14.83.62-26.14,0-14.73-.31-18.36-1.14-26.24l.62-.62,17.84-3.11.73.83c-.1,8.82-.31,17.74-.31,26.56,0,14.32.42,20.44.94,28.42l-.73.73Zm-1.46-65.77c-7.36.93-9.34,1.14-16.39,2.39l-.73-.62c.11-1.97.11-4.05.11-6.02,0-2.49-.11-4.67-.31-8.4l.62-.73,16.91-2.08.62.62-.31,14.11-.52.73Z"/>
        <path class="cls-1" d="m857.73,747.73c-14.83,0-19.92-5.6-22.61-9.65-3.84-5.6-4.87-12.35-4.87-18.98,0-19.09,10.17-28.73,28.21-28.73,2.7,0,8.09.21,12.66,1.97,14.52,5.71,14.52,22.51,14.52,26.56,0,15.56-5.91,28.84-27.91,28.84Zm6.95-43.47c-1.35-1.66-3.74-3.22-6.64-3.22-3.32,0-6.02,1.87-7.57,4.67-2.08,3.63-2.08,10.27-2.08,13.28,0,10.06,1.97,13.59,3.74,15.35,1.25,1.14,3.11,2.39,5.81,2.39,8.61,0,9.75-9.44,9.75-17.95,0-5.6-.52-11.51-3.01-14.52Z"/>
        <path class="cls-1" d="m944.19,746.38c-8.3,0-10.06.1-16.91.31l-.62-.62c0-3.53.11-7.16.11-10.68,0-3.94-.11-18.15-.31-21.58-.31-3.74-.83-9.86-6.54-9.86-3.32,0-5.81,1.76-7.99,3.22.1,18.57.21,22.61.83,38.59l-.62.62c-8.3,0-9.86,0-17.33.31l-.62-.62c.11-6.64.21-13.28.21-19.92,0-16.91-.62-23.44-1.45-32.47l.62-.73c7.78-1.04,9.54-1.35,17.53-3.01l1.04.73-.21,5.71c4.77-2.8,10.27-6.12,16.6-6.12,3.74,0,9.65.83,12.86,6.22,2.6,4.25,2.7,9.03,2.8,18.98v8.09c.21,10.17.21,13.07.73,22.2l-.73.62Z"/>
        <path class="cls-1" d="m1001.07,723.25c0,9.75,0,12.34.73,22.51l-.52.73c-6.74-.1-9.03,0-16.49.31l-.62-.73v-3.84c-2.18,1.76-6.64,5.5-14.42,5.5-10.17,0-18.15-7.16-18.15-18.26,0-4.67,1.97-10.58,7.78-14.21,6.23-3.84,12.03-4.98,24.48-6.64,0-1.56-.31-3.42-1.35-4.46-1.35-1.35-2.9-1.97-6.74-1.97-6.95,0-13.7,2.7-17.33,4.15l-.83-.41.52-11.31.62-.83c5.91-1.76,11.41-3.42,20.33-3.42,13.28,0,17.43,4.15,19.5,7.47,2.7,4.36,2.7,8.4,2.59,17.74l-.1,7.68Zm-17.01-3.73c-7.06.93-15.25,2.07-15.25,8.92,0,4.36,3.11,6.33,6.85,6.33,3.42,0,6.23-1.45,8.4-2.7v-12.55Z"/>
        <path class="cls-1" d="m1029.52,746.48c-7.57-.1-10.37,0-17.32.31l-.62-.73c.42-10.27.62-16.49.62-27.7,0-6.12,0-12.24-.11-18.36-.21-16.81-.31-20.23-1.35-32.88l.41-.62,17.74-2.8.73.73c-.42,11.2-.52,15.87-.52,25.73,0,32.78.52,43.67,1.04,55.6l-.62.73Z"/>
      </g>
      <g>
        <path class="cls-1" d="m57.81,798.89c-.21,6.64-.31,9.86-.31,15.56,0,14.63.21,29.15.73,43.67l-.62.62c-8.61,0-10.68.1-18.36.41l-.62-.62c.83-25.73.83-32.26.73-59.44l-16.91.41-.52-.62.73-12.76.73-.62h51.35l.52.31-.73,12.97-.62.52-16.08-.42Z"/>
        <path class="cls-1" d="m121.31,843.81l-.73,11.72-.62.83c-5.5,2.18-9.23,3.74-17.84,3.74-7.47,0-21.58-1.25-27.59-15.25-1.66-3.63-2.49-8.71-2.49-13.59,0-17.95,10.79-28.63,27.08-28.63,2.38,0,4.77.21,7.36.93,3.53.83,11.51,3.32,15.15,15.56,1.45,5.19,1.56,10.37,1.66,15.46l-.62.73-33.51.62c.42,2.07.73,4.15,2.28,6.33,2.49,3.73,6.74,5.71,12.97,5.71,7.57,0,12.24-2.39,16.18-4.46l.73.31Zm-14.84-19.29c0-2.39-.1-4.88-1.56-7.16-1.14-1.87-3.21-3.63-6.64-3.63-1.45,0-2.9.31-4.15,1.14-3.94,2.49-4.67,6.85-4.98,10.06l17.32-.41Z"/>
        <path class="cls-1" d="m173.25,844.44l-.41,12.45-.62.62c-4.36,1.25-7.88,2.28-13.38,2.28-23.34,0-29.57-16.18-29.57-28.11,0-10.58,4.77-29.05,29.15-29.05,6.02,0,9.96,1.24,14.52,2.7l.52.62c-.83,5.5-.93,6.95-1.35,12.45l-1.04.31c-3.11-2.07-5.6-3.73-10.17-3.73-10.06,0-13.38,8.71-13.38,16.29,0,6.22,2.38,15.98,14.11,15.98,5.29,0,7.99-1.66,10.79-3.32l.83.52Z"/>
        <path class="cls-1" d="m231.33,858.75c-8.3,0-10.06.1-16.91.31l-.62-.62c0-3.53.1-7.16.1-10.68,0-3.94-.1-18.15-.31-21.58-.31-3.74-.83-9.86-6.54-9.86-3.32,0-5.81,1.76-7.99,3.22.1,18.57.21,22.61.83,38.59l-.62.62c-8.3,0-9.86,0-17.33.31l-.62-.62c.1-6.64.21-13.28.21-19.92,0-16.91-.62-23.44-1.45-32.47l.62-.73c7.78-1.04,9.54-1.35,17.53-3.01l1.04.73-.21,5.71c4.77-2.8,10.27-6.12,16.6-6.12,3.74,0,9.65.83,12.86,6.22,2.59,4.25,2.7,9.03,2.8,18.98v8.09c.21,10.17.21,13.07.73,22.2l-.73.62Z"/>
        <path class="cls-1" d="m267.25,860.1c-14.83,0-19.92-5.6-22.61-9.65-3.84-5.6-4.87-12.34-4.87-18.98,0-19.09,10.17-28.74,28.21-28.74,2.7,0,8.09.21,12.66,1.97,14.52,5.71,14.52,22.51,14.52,26.56,0,15.56-5.91,28.84-27.91,28.84Zm6.95-43.47c-1.35-1.66-3.74-3.22-6.64-3.22-3.32,0-6.02,1.87-7.57,4.67-2.08,3.63-2.08,10.27-2.08,13.28,0,10.06,1.97,13.59,3.74,15.35,1.25,1.14,3.11,2.39,5.81,2.39,8.61,0,9.75-9.44,9.75-17.95,0-5.6-.52-11.51-3.01-14.52Z"/>
        <path class="cls-1" d="m321.03,858.85c-7.57-.1-10.37,0-17.32.31l-.62-.73c.42-10.27.62-16.49.62-27.7,0-6.12,0-12.24-.11-18.36-.21-16.81-.31-20.23-1.35-32.88l.41-.62,17.74-2.8.73.73c-.42,11.2-.52,15.87-.52,25.73,0,32.78.52,43.67,1.04,55.6l-.62.73Z"/>
        <path class="cls-1" d="m356.84,860.1c-14.84,0-19.92-5.6-22.61-9.65-3.84-5.6-4.88-12.34-4.88-18.98,0-19.09,10.17-28.74,28.22-28.74,2.7,0,8.09.21,12.65,1.97,14.52,5.71,14.52,22.51,14.52,26.56,0,15.56-5.91,28.84-27.9,28.84Zm6.95-43.47c-1.35-1.66-3.73-3.22-6.64-3.22-3.32,0-6.01,1.87-7.57,4.67-2.07,3.63-2.07,10.27-2.07,13.28,0,10.06,1.97,13.59,3.73,15.35,1.25,1.14,3.11,2.39,5.81,2.39,8.61,0,9.75-9.44,9.75-17.95,0-5.6-.52-11.51-3.01-14.52Zm9.44-37.14c-3.32,5.08-7.99,12.24-11.2,17.53l-.73.41h-11.21l-.41-.62c3.11-7.16,3.94-9.23,6.33-17.32l.52-.52,16.39-.21.31.73Z"/>
        <path class="cls-1" d="m411.01,844.95c4.04,1.45,5.18,1.76,10.27,2.59l2.49.41c6.74,1.56,18.15,4.05,18.15,17.12,0,10.06-8.72,19.61-27.7,19.61-4.04,0-11.93-.21-17.74-4.36-3.84-2.8-6.43-6.95-6.43-11.72,0-6.74,4.87-10.68,7.99-13.07l-4.36-3.11v-.93c2.38-4.25,3.94-7.05,6.85-12.66-2.59-1.45-4.67-2.59-6.95-5.81-1.87-2.59-3.01-5.91-3.01-10.06,0-7.78,4.36-12.24,6.64-14,6.74-5.6,16.6-5.4,23.96-5.19l4.77.1c6.53.1,8.71,0,16.7-.31l.62.52-.73,10.37-.62.52-7.16-.41c1.35,1.97,2.8,4.05,2.8,9.02,0,10.06-7.88,14.52-13.28,16.39-4.98,1.66-8.3,1.45-11.62,1.35l-1.66,3.63Zm-2.7,15.35c-1.25,1.45-3.01,3.42-3.01,6.85,0,3.63,2.59,7.99,10.27,7.99,6.85,0,9.44-3.22,9.44-6.33,0-2.18-1.04-3.32-2.08-4.05-1.25-1.04-1.35-1.04-10.58-3.42l-4.04-1.04Zm6.01-46.78c-3.84,0-6.95,3.32-6.95,8.51,0,.73,0,3.22.94,5.39,1.76,4.15,5.39,4.36,6.22,4.36,1.45,0,6.54-.73,6.64-9.13.11-4.56-2.07-9.13-6.85-9.13Z"/>
        <path class="cls-1" d="m467.67,858.85c-8.4-.1-10.48,0-17.95.31l-.62-.73c.31-8.51.62-14.83.62-26.14,0-14.73-.31-18.36-1.14-26.24l.62-.62,17.84-3.11.73.83c-.1,8.82-.31,17.74-.31,26.56,0,14.32.42,20.44.94,28.42l-.73.73Zm-1.46-65.77c-7.36.93-9.34,1.14-16.39,2.39l-.73-.62c.11-1.97.11-4.05.11-6.02,0-2.49-.11-4.67-.31-8.4l.62-.73,16.91-2.08.62.62-.31,14.11-.52.73Z"/>
        <path class="cls-1" d="m519.62,844.44l-.41,12.45-.62.62c-4.36,1.25-7.88,2.28-13.38,2.28-23.34,0-29.57-16.18-29.57-28.11,0-10.58,4.77-29.05,29.15-29.05,6.02,0,9.96,1.24,14.52,2.7l.52.62c-.83,5.5-.93,6.95-1.35,12.45l-1.04.31c-3.11-2.07-5.6-3.73-10.17-3.73-10.06,0-13.38,8.71-13.38,16.29,0,6.22,2.38,15.98,14.11,15.98,5.29,0,7.99-1.66,10.79-3.32l.83.52Z"/>
        <path class="cls-1" d="m574.12,835.62c0,9.75,0,12.34.73,22.51l-.52.73c-6.74-.1-9.02,0-16.49.31l-.62-.73v-3.84c-2.18,1.76-6.64,5.5-14.42,5.5-10.17,0-18.16-7.16-18.16-18.26,0-4.67,1.97-10.58,7.78-14.21,6.22-3.84,12.03-4.98,24.48-6.64,0-1.56-.31-3.42-1.35-4.46-1.35-1.35-2.91-1.97-6.74-1.97-6.95,0-13.69,2.7-17.32,4.15l-.83-.41.52-11.31.62-.83c5.91-1.76,11.41-3.42,20.33-3.42,13.28,0,17.43,4.15,19.5,7.47,2.7,4.36,2.7,8.4,2.6,17.74l-.11,7.68Zm-17.01-3.73c-7.05.93-15.25,2.07-15.25,8.92,0,4.36,3.11,6.33,6.85,6.33,3.43,0,6.23-1.45,8.4-2.7v-12.55Z"/>
        <path class="cls-1" d="m666.95,858.85c-7.78,0-9.75,0-16.91.31l-.52-.62.21-4.05c-2.49,2.18-6.33,5.6-13.69,5.6-3.42,0-9.02-.83-13.59-4.56-6.12-5.08-8.3-13.17-8.3-21.27,0-10.68,3.01-19.29,10.27-24.9,7.88-6.22,17.64-6.02,25.42-5.81.11-11.83,0-14.42-.62-24.17l.52-.62,17.12-2.7.73.62c-.42,13.69-.83,25-.83,52.39,0,13.59.31,19.81.73,29.15l-.52.62Zm-20.64-43.15c-11.62,0-13.9,8.92-13.9,16.91,0,2.07,0,14.94,10.06,14.94,2.9,0,4.98-1.25,7.05-2.49.31-12.55.42-15.25.31-29.05-1.45-.21-2.38-.31-3.53-.31Z"/>
        <path class="cls-1" d="m724.34,843.81l-.73,11.72-.62.83c-5.5,2.18-9.23,3.74-17.84,3.74-7.47,0-21.58-1.25-27.59-15.25-1.66-3.63-2.49-8.71-2.49-13.59,0-17.95,10.79-28.63,27.08-28.63,2.38,0,4.77.21,7.36.93,3.53.83,11.51,3.32,15.14,15.56,1.45,5.19,1.56,10.37,1.66,15.46l-.62.73-33.51.62c.42,2.07.73,4.15,2.28,6.33,2.49,3.73,6.74,5.71,12.97,5.71,7.58,0,12.24-2.39,16.19-4.46l.73.31Zm-14.84-19.29c0-2.39-.11-4.88-1.56-7.16-1.14-1.87-3.22-3.63-6.64-3.63-1.45,0-2.9.31-4.15,1.14-3.94,2.49-4.67,6.85-4.98,10.06l17.33-.41Z"/>
        <path class="cls-1" d="m811.26,845.16l-.83,13.07-.52.62c-18.67,0-22.4,0-42.74.31l-.52-.62c0-16.39.11-32.78.11-49.17,0-12.34-.11-14.83-.52-23.13l.62-.62c7.16.1,9.55.1,18.47-.31l.62.62c-.83,24.79-.93,31.85-.73,59.54h2.07c3.11,0,12.14-.21,23.45-.83l.52.52Z"/>
        <path class="cls-1" d="m836.6,858.85c-8.4-.1-10.48,0-17.95.31l-.62-.73c.31-8.51.62-14.83.62-26.14,0-14.73-.31-18.36-1.14-26.24l.62-.62,17.84-3.11.73.83c-.11,8.82-.31,17.74-.31,26.56,0,14.32.41,20.44.93,28.42l-.73.73Zm-1.45-65.77c-7.36.93-9.34,1.14-16.39,2.39l-.73-.62c.1-1.97.1-4.05.1-6.02,0-2.49-.1-4.67-.31-8.4l.62-.73,16.91-2.08.62.62-.31,14.11-.52.73Z"/>
        <path class="cls-1" d="m927.9,858.75c-7.26,0-9.54,0-17.33.31l-.62-.62c.11-3.11.21-18.57.31-22.1,0-1.97.1-3.94.1-5.91,0-8.92-.93-14.52-6.85-14.52-3.11,0-5.39,1.45-7.16,2.59l.11,10.48v3.84c.1,12.55.21,15.46.83,25.31l-.62.62c-7.16,0-9.34,0-17.22.41l-.62-.73c.21-8.4.31-10.68.31-25.73,0-8.92-.21-16.29-6.64-16.29-2.59,0-4.98,1.35-7.16,2.9.11,18.05.21,22.82.94,38.8l-.62.62c-8.61,0-10.89.1-17.53.31l-.51-.62c0-5.91.1-11.93.1-17.84,0-20.54-.62-26.24-1.45-34.54l.62-.73c7.26-1.04,9.55-1.45,17.64-3.01l.93.93v5.81c4.77-3.32,9.23-6.43,16.08-6.43,8.3,0,10.89,4.36,12.34,6.74,4.15-2.9,9.86-6.74,18.36-6.74,1.66,0,8.82,0,12.86,5.91,3.01,4.36,2.91,10.79,2.8,17.74v7.78c0,11.72.11,14.42.62,24.07l-.62.62Z"/>
        <path class="cls-1" d="m984.84,835.62c0,9.75,0,12.34.73,22.51l-.52.73c-6.74-.1-9.02,0-16.49.31l-.62-.73v-3.84c-2.18,1.76-6.64,5.5-14.42,5.5-10.17,0-18.16-7.16-18.16-18.26,0-4.67,1.97-10.58,7.78-14.21,6.22-3.84,12.03-4.98,24.48-6.64,0-1.56-.31-3.42-1.35-4.46-1.35-1.35-2.91-1.97-6.74-1.97-6.95,0-13.69,2.7-17.32,4.15l-.83-.41.52-11.31.62-.83c5.91-1.76,11.41-3.42,20.33-3.42,13.28,0,17.43,4.15,19.5,7.47,2.7,4.36,2.7,8.4,2.6,17.74l-.11,7.68Zm-17.01-3.73c-7.05.93-15.25,2.07-15.25,8.92,0,4.36,3.11,6.33,6.85,6.33,3.43,0,6.23-1.45,8.4-2.7v-12.55Z"/>
        <path class="cls-1" d="m1060.04,815.29c2.49,1.14,5.19,2.39,7.99,4.46,5.5,4.25,7.78,10.58,7.78,16.49,0,8.82-3.74,16.7-12.45,20.95-6.23,2.9-14.11,3.22-17.22,3.22-7.78,0-13.9-1.76-16.29-2.59-1.14-.31-2.28-.83-3.42-1.25l-.62-.83.73-14.63,1.04-.31c3.01,2.39,8.3,6.53,17.74,6.53s12.45-4.67,12.45-8.61c0-5.5-5.5-8.09-12.65-11.1l-3.42-1.56c-5.81-2.8-15.56-7.36-15.56-19.92,0-11.1,6.74-22.09,26.24-22.09,10.06,0,14.73,1.97,19.19,3.84l.52.73-.83,13.59-.93.42c-3.84-2.59-8.5-5.81-16.39-5.81-6.85,0-9.86,4.05-9.86,7.26,0,4.67,4.56,6.54,13.28,10.17l2.7,1.04Z"/>
        <path class="cls-1" d="m1134.66,804.19c-.21,9.75-.31,19.5-.31,29.25,0,13.49.21,17.43.73,24.79l-.62.62c-6.74,0-9.02,0-16.6.31l-.73-.62.11-4.67c-3.74,2.9-7.99,6.22-15.35,6.22-5.19,0-10.16-1.66-13.59-5.5-3.74-4.36-4.25-9.13-4.15-20.44v-7.26c0-10.48-.1-13.38-.73-22.1l.73-.62,17.12-.83.73.83-.21,20.95c-.11,2.59-.11,5.29-.11,7.88,0,6.12,0,14,7.47,14,2.8,0,4.98-1.56,7.78-3.42.11-4.15.11-5.81.11-8.82,0-1.66,0-18.26-.73-29.98l.73-.62,16.91-.83.73.83Z"/>
        <path class="cls-1" d="m1174.55,820.78c-1.45-.83-2.49-1.45-4.25-1.45-7.06,0-7.06,6.85-7.06,11.51,0,7.16.62,18.88,1.04,27.28l-.52.73c-8.3-.1-9.96,0-17.63.31l-.62-.62c.21-8.61.31-17.12.31-25.62,0-14.42-.31-19.09-.93-26.87l.62-.62c7.58-1.14,9.55-1.45,17.22-3.11l.83.83-.31,9.54c3.32-7.68,8.09-10.06,12.35-10.06.73,0,1.45.1,2.18.1l.62.73-2.9,16.91-.94.41Z"/>
      </g>
      <g>
        <path class="cls-1" d="m39.4,895.84c-.27,6.08-.45,13.25-.45,28.87,0,17.43.18,24.87.73,34.22l-.54.64c-3.99.09-5.27.09-10.08.27l-.55-.64c.18-5.54.36-10.35.36-22.06,0-13.71,0-27.32-.63-40.94l.45-.73c4,0,5.45,0,10.08-.27l.63.64Z"/>
        <path class="cls-1" d="m91.53,952.12c-.27,3.09-.27,3.72-.45,6.81l-.64.64c-17.7,0-20.52.09-37.76.27l-.46-.64c.27-7.17.54-12.07.54-28.69,0-15.25,0-23.96-.63-34.4l.54-.64c17.88-.09,21.42-.09,38.12-.27l.54.64c-.27,2.72-.45,3.81-.63,7.08l-.55.64c-11.71-.36-15.61-.36-27.14-.45-.27,8.35-.27,10.98-.27,19.33,11.17.09,14.62,0,25.69-.18l.45.64c-.36,3.18-.36,4.09-.45,6.99l-.54.64c-10.53-.27-12.8-.27-25.15-.27-.18,10.53-.09,13.07,0,21.7,13.71,0,16.52,0,28.23-.45l.54.64Z"/>
        <path class="cls-1" d="m139.38,952.12c-.27,3.09-.27,3.72-.45,6.81l-.64.64c-17.7,0-20.52.09-37.76.27l-.45-.64c.27-7.17.54-12.07.54-28.69,0-15.25,0-23.96-.64-34.4l.54-.64c17.88-.09,21.42-.09,38.13-.27l.54.64c-.27,2.72-.45,3.81-.64,7.08l-.55.64c-11.71-.36-15.61-.36-27.14-.45-.27,8.35-.27,10.98-.27,19.33,11.17.09,14.62,0,25.69-.18l.45.64c-.36,3.18-.36,4.09-.45,6.99l-.54.64c-10.53-.27-12.8-.27-25.15-.27-.18,10.53-.09,13.07,0,21.7,13.71,0,16.52,0,28.23-.45l.54.64Z"/>
        <path class="cls-1" d="m187.23,952.12c-.27,3.09-.27,3.72-.46,6.81l-.64.64c-17.7,0-20.51.09-37.76.27l-.45-.64c.27-7.17.54-12.07.54-28.69,0-15.25,0-23.96-.64-34.4l.54-.64c17.88-.09,21.42-.09,38.13-.27l.54.64c-.27,2.72-.46,3.81-.64,7.08l-.54.64c-11.71-.36-15.61-.36-27.14-.45-.27,8.35-.27,10.98-.27,19.33,11.16.09,14.61,0,25.69-.18l.45.64c-.36,3.18-.36,4.09-.45,6.99l-.54.64c-10.53-.27-12.8-.27-25.14-.27-.18,10.53-.09,13.07,0,21.7,13.71,0,16.52,0,28.23-.45l.54.64Z"/>
        <path class="cls-1" d="m247.03,923.26c6.63,2.91,15.43,6.72,15.43,18.34,0,10.17-7.53,19.33-23.33,19.33-9.62,0-15.8-2.9-17.98-3.99l-.36-.64c.36-3.18.46-4.9.73-8.35l.91-.36c2.27,1.54,7.53,5.36,15.98,5.36,9.35,0,13.25-4.81,13.25-10.26,0-6.35-5.27-8.81-11.17-11.07l-4.54-2c-6.44-3-15.07-6.9-15.07-17.97,0-3.36.91-6.81,2.81-9.53,4.18-5.99,11.71-7.99,19.06-7.99s11.53,1.36,16.34,2.9l.46.73c-.36,3.45-.46,4.72-.73,7.99l-.73.36c-3.9-2-8.17-4.18-14.98-4.18-7.53,0-12.26,3.54-12.26,8.9,0,4.09,2.73,5.99,4.63,7.17,1.18.73,1.54.91,6.99,3.27l4.54,2Z"/>
        <path class="cls-1" d="m291.35,952.4c-.27,3-.27,3.63-.36,6.26l-.45.54c-1.91.45-3.45.82-6.81.82-2.18,0-7.9,0-10.71-4.72-1.64-2.63-1.64-4.81-1.64-15.52l.18-19.97c-3.17,0-3.27.09-6.53.18l-.36-.54c.18-2.9.18-3.63.18-6.54l.54-.54c2,0,3.18.09,6.17,0-.09-1.91-.09-3.9-.09-5.81-.09-1.73-.18-3.45-.27-5.17l.46-.64c4.09-1,5.08-1.27,9.26-2.54l.63.45c-.27,5.99-.36,7.17-.36,13.8,3.82-.09,4.9-.09,10.08-.27l.45.54c-.18,2.36-.27,3.36-.27,6.44l-.46.54c-4.54-.09-5.08-.18-9.89-.18l-.18,16.88c.09,1.09.09,6.26.09,7.53,0,6.63.82,8.71,5.36,8.71,1.91,0,3.36-.45,4.36-.82l.63.55Z"/>
        <path class="cls-1" d="m338.84,912.64c-.18,6.9-.27,13.34-.27,20.7,0,11.17.27,17.88.45,21.79,0,1.27.09,2.54.18,3.81l-.36.54c-4.36.09-5.08.18-9.26.36l-.54-.54.09-3.81c-2,1.45-6.81,5.17-14.25,5.17-3.54,0-7.44-.82-10.35-3.09-5.81-4.72-5.81-12.44-5.9-19.52v-5.63c-.18-12.98-.18-14.43-.45-19.34l.45-.64c4.27-.09,5.09-.09,9.35-.45l.54.64-.36,19.88c0,2.45-.09,4.27,0,8.62.09,3.81.27,11.98,9.44,11.98,5.36,0,9.17-3,11.35-4.72.09-4.9.09-9.08.09-14.34,0-12.62-.09-15.16-.63-21.06l.54-.64c4.17-.09,5.17-.09,9.35-.36l.54.64Z"/>
        <path class="cls-1" d="m380.51,889.03c4.63-.82,5.54-1,9.62-1.91l.64.54c-.64,12.62-.73,35.13-.73,44.21,0,14.07.36,20.79.73,27.05l-.46.64c-3.99,0-5.08.09-9.26.27l-.63-.54.18-3.36c-2.18,1.63-5.9,4.54-12.53,4.54-12.08,0-20.42-9.53-20.42-23.33,0-9.89,4.17-16.16,7.99-19.52,6.63-5.99,15.25-6.26,19.97-6.26,1.91,0,2.82,0,5.26.18.09-11.26-.36-16.7-.81-21.97l.45-.54Zm.09,29.87c-1.54-.09-2.63-.27-4.54-.27-2.82,0-8.81.18-13.16,4.27-2,1.91-5.27,6.17-5.27,14.25,0,5.17,1.46,8.9,3.36,11.17,1.63,1.91,4.63,4.09,9.35,4.09,5.54,0,8.89-2.9,10.16-3.99.18-11.89.18-14.61.09-29.5Z"/>
        <path class="cls-1" d="m439.21,948.49c-.46,3.63-.54,4.54-.73,8.08l-.54.64c-1.54.82-6.44,3.45-14.52,3.45-14.89,0-24.24-8.53-24.24-24.33,0-16.88,10.17-25.15,22.06-25.15,7.18,0,12.17,3,14.89,6.26,5.17,6.17,4.99,15.16,4.9,19.15l-.63.54c-14.16-.09-16.61-.09-31.5,0,.09,3.18.36,7.63,3.45,11.35,3.72,4.45,8.89,4.9,11.71,4.9,2.63,0,5.36-.45,7.9-1.36,3.36-1.36,5.36-3,6.54-3.99l.73.45Zm-8.44-23.69c-1.81-4.99-5.81-7.08-9.9-7.08-5.08,0-11.07,3.45-11.98,12.53,10.99.09,14.43,0,22.79-.09-.09-1.27-.18-3.27-.91-5.36Z"/>
        <path class="cls-1" d="m490.08,959.48c-4.36.09-4.9.09-9.08.36l-.64-.64c0-1,.09-2,.09-3,.09-4.45.09-8.9.09-13.34,0-13.98-.09-14.89-.54-16.79-1.72-6.9-6.9-6.9-8.17-6.9-5.45,0-9.62,3.18-12.08,5.08-.09,15.79.09,24.06.73,34.68l-.54.54c-4.45.09-5.17.09-9.53.36l-.46-.64c.09-5.08.27-9.99.27-16.7,0-14.52-.64-22.24-1.09-28.32l.54-.64c4.54-.82,5.36-1,9.62-1.81l.63.64-.09,4.72c2.36-1.63,7.99-5.63,15.98-5.63,2.27,0,5.08.36,7.53,1.73,2.36,1.36,4.27,3.45,5.27,5.9,1.18,2.72,1.27,5.45,1.36,11.07v10.62c.27,10.62.36,14.71.64,18.16l-.54.54Z"/>
        <path class="cls-1" d="m522.89,952.4c-.27,3-.27,3.63-.36,6.26l-.46.54c-1.91.45-3.45.82-6.81.82-2.18,0-7.9,0-10.71-4.72-1.63-2.63-1.63-4.81-1.63-15.52l.18-19.97c-3.18,0-3.27.09-6.54.18l-.36-.54c.18-2.9.18-3.63.18-6.54l.54-.54c2,0,3.18.09,6.17,0-.09-1.91-.09-3.9-.09-5.81-.09-1.73-.18-3.45-.27-5.17l.45-.64c4.09-1,5.09-1.27,9.26-2.54l.64.45c-.27,5.99-.36,7.17-.36,13.8,3.81-.09,4.9-.09,10.07-.27l.46.54c-.18,2.36-.27,3.36-.27,6.44l-.45.54c-4.54-.09-5.09-.18-9.9-.18l-.18,16.88c.09,1.09.09,6.26.09,7.53,0,6.63.81,8.71,5.36,8.71,1.9,0,3.36-.45,4.36-.82l.64.55Z"/>
        <path class="cls-1" d="m558.1,959.84l-.46-.64c.18-4.36.27-8.53.27-16.79,0-3.9.09-22.88.09-27.14,0-9.53-.27-14.43-.63-19.15l.45-.64,12.16-.18c1.82-.09,4.63-.09,7.08-.09,5.36,0,11.07.18,15.61,2.81,3.36,1.91,7.17,5.72,7.17,12.44,0,3.18-.91,12.25-13.52,15.34,2.08.09,5.08.18,8.35,1.63,7.8,3.45,8.62,10.35,8.62,13.71,0,8.35-5.17,14.25-12.44,16.88-4.81,1.73-9.62,1.73-16.79,1.73l-15.98.09Zm9.8-36.95c8.17.09,14.43,0,18.25-3,2.27-1.91,3.72-4.9,3.72-7.9,0-2.45-1-4.81-2.55-6.45-3.17-3.09-8.8-3.09-10.89-3.09-2.9,0-5.72.09-8.53.27v20.15Zm0,7.63c0,10.35,0,11.89.36,21.79h1.72c6.81,0,12.35.09,15.89-1.36,4.36-1.63,6.81-5.45,6.81-9.98,0-10.62-11.71-10.71-16.07-10.71-.81,0-1.63,0-6.53.18l-2.18.09Z"/>
        <path class="cls-1" d="m633.74,921.8c-.91-.36-2.09-.82-3.63-.82-1.73,0-3,.64-3.82,1.18-3.72,2.63-3.72,6.63-3.72,16.07,0,10.26.27,15.61.63,20.7l-.45.64c-4.27,0-5.27.09-9.62.27l-.46-.54c.09-6.9.18-13.16.18-21.61,0-14.52-.27-18.25-.81-23.51l.54-.64c3.45-.64,5.63-1.09,9.44-1.81l.54.54-.46,7.72c1.09-2.9,3.36-8.71,11.07-8.71,1.18,0,1.81.09,2.54.27l.36.55c-.91,4.36-1.09,5.26-1.72,9.26l-.64.45Z"/>
        <path class="cls-1" d="m675.67,940.87c0,11.26.09,12.25.54,18.16l-.46.45c-4.27.09-4.99.18-9.17.36l-.36-.54.09-3.27c-1.72,1.36-5.81,4.63-12.71,4.63-9.07,0-15.43-6.17-15.43-15.16,0-12.16,10.17-16.07,26.51-17.97l1.54-.18c0-2.45,0-4.18-.82-5.63-.91-1.63-2.99-3.36-7.53-3.36-5.9,0-9.99,1.81-13.8,3.45l-.73-.45c.18-4.18.18-4.72.27-6.63l.54-.55c5.08-1.81,10.34-3,15.7-3,6.72,0,13.26,2.27,15.16,9.35.64,2.54.64,7.53.64,11.35v8.99Zm-10.17-6.63c-9.17,1.36-17.7,2.63-17.7,10.71,0,.45,0,8.26,8.62,8.26,5.63,0,8.9-3.09,9.89-3.99v-15.16l-.81.18Z"/>
        <path class="cls-1" d="m727.16,959.48c-4.36.09-4.9.09-9.08.36l-.63-.64c0-1,.09-2,.09-3,.09-4.45.09-8.9.09-13.34,0-13.98-.09-14.89-.54-16.79-1.73-6.9-6.9-6.9-8.17-6.9-5.44,0-9.62,3.18-12.07,5.08-.09,15.79.09,24.06.73,34.68l-.54.54c-4.45.09-5.17.09-9.53.36l-.45-.64c.09-5.08.27-9.99.27-16.7,0-14.52-.63-22.24-1.09-28.32l.54-.64c4.54-.82,5.36-1,9.62-1.81l.64.64-.09,4.72c2.36-1.63,7.99-5.63,15.98-5.63,2.27,0,5.08.36,7.53,1.73,2.36,1.36,4.27,3.45,5.26,5.9,1.18,2.72,1.27,5.45,1.36,11.07v10.62c.27,10.62.36,14.71.63,18.16l-.54.54Z"/>
        <path class="cls-1" d="m772.38,948.77c-.36,3.9-.45,4.36-.73,8.08l-.63.64c-2.63,1.27-6.17,3.09-12.53,3.09-13.71,0-22.61-9.89-22.61-24.06s8.72-25.33,22.79-25.33c5.9,0,10.07,1.91,12.43,2.9l.36.64c-.36,3.27-.45,4.45-.63,7.17l-.73.36c-3-2.18-6.45-3.54-10.08-3.54-7.53,0-14.16,5.81-14.16,17.43,0,12.35,6.99,16.79,14.07,16.79,6.17,0,9.99-3.18,11.71-4.54l.73.36Z"/>
        <path class="cls-1" d="m819.57,959.48c-4.36.09-4.9.09-9.08.36l-.63-.64.09-3c.09-4.72.09-9.53.09-14.25l-.09-9.71c0-2.09,0-4.18-.45-6.17-1-4.18-3.54-6.9-8.17-6.9-5.17,0-9.17,2.9-12.16,5.08-.09,15.79.09,24.06.64,34.68l-.46.54c-4.17.09-5.26.09-9.71.36l-.46-.64c.18-6.44.46-14.61.46-32.04,0-7.63-.09-15.25-.18-22.88-.18-7.99-.46-10.62-.73-14.71l.45-.54c4.36-.73,5.81-1,9.9-1.91l.54.64c-.54,9.71-.54,19.52-.54,29.32,2.9-1.91,8.62-5.63,16.25-5.63,2.08,0,4.17.27,6.08,1.09,4.08,1.63,6.53,4.9,7.44,8.62.46,1.81.46,2.9.64,8.99v10.62l.09,4.27c.18,7.63.18,8.9.54,13.89l-.54.54Z"/>
      </g>
      <g id="Separator">
        <rect class="cls-3" y="501.97" width="1200" height="6.48"/>
      </g>
      <g id="CS">
        <path class="cls-2" d="m368.43,353.94c-.23,0-.48-.02-.72-.08-1.85-.4-3.03-2.22-2.64-4.07L439.02,2.72c.39-1.85,2.2-3.05,4.07-2.64,1.85.39,3.03,2.21,2.64,4.07l-73.94,347.07c-.34,1.61-1.77,2.72-3.35,2.72h0Z"/>
        <path class="cls-5" d="m525.94,88.86c-8.34-.09-10.45-.09-19.14.26l-.35-.44c0-7.9.09-15.71.18-23.53.08-5,.17-10.01.17-15.01,0-7.72-.17-13.43-.53-22.83l.44-.44c8.61.09,10.45.09,19.05-.26l.35.44c-.26,8.78-.44,14.05-.44,24.14,0,12.38.26,24.93.62,37.22l-.35.44h0Z"/>
        <path class="cls-5" d="m558.23,63.22v12.11c6.85,0,13.26-.18,22.3-.53l.53.53-.88,12.99-.79.53c-12.03,0-14.05-.09-16.68-.09-9.65,0-14.66.18-23,.35l-.44-.61c.27-10.1.35-15.54.35-27.48,0-21.07-.18-24.67-.62-33.62l.53-.53h39.5l.44.35-.61,12.11-.53.44h-20.28v11.15l19.22-.35.53.62-.7,11.5-.62.53h-18.26Z"/>
        <path class="cls-5" d="m609.39,63.22v12.11c6.84,0,13.26-.18,22.3-.53l.53.53-.88,12.99-.79.53c-12.03,0-14.05-.09-16.68-.09-9.66,0-14.66.18-23,.35l-.44-.61c.27-10.1.35-15.54.35-27.48,0-21.07-.17-24.67-.61-33.62l.53-.53h39.5l.44.35-.62,12.11-.53.44h-20.28v11.15l19.23-.35.53.62-.7,11.5-.62.53h-18.26Z"/>
        <path class="cls-5" d="m660.55,63.22v12.11c6.85,0,13.26-.18,22.3-.53l.53.53-.88,12.99-.79.53c-12.02,0-14.04-.09-16.68-.09-9.66,0-14.67.18-23.01.35l-.44-.61c.27-10.1.35-15.54.35-27.48,0-21.07-.18-24.67-.61-33.62l.53-.53h39.5l.44.35-.62,12.11-.53.44h-20.28v11.15l19.23-.35.52.62-.7,11.5-.62.53h-18.26Z"/>
        <path class="cls-5" d="m528.8,139.15c-3.9-1.97-7.82-2.96-11.76-2.96-4.75,0-9.09,1.17-13.04,3.5-3.94,2.33-7.04,5.51-9.29,9.53-2.25,4.02-3.38,8.49-3.38,13.39s1.13,9.39,3.38,13.45c2.25,4.06,5.35,7.28,9.29,9.65,3.94,2.38,8.29,3.56,13.04,3.56,3.78,0,7.62-.91,11.52-2.72,3.9-1.81,7.38-4.24,10.44-7.3l11.22,12.19c-4.51,4.67-9.79,8.36-15.87,11.1-6.07,2.73-12.17,4.1-18.28,4.1-8.29,0-15.81-1.91-22.56-5.74-6.76-3.82-12.07-9.06-15.93-15.74-3.86-6.68-5.79-14.12-5.79-22.32s1.97-15.49,5.91-22.08c3.94-6.59,9.35-11.78,16.23-15.56,6.88-3.78,14.5-5.67,22.87-5.67,6.11,0,12.15,1.27,18.1,3.8,5.95,2.54,11.02,5.97,15.2,10.32l-11.1,13.63c-2.9-3.46-6.3-6.17-10.2-8.14h0Z"/>
        <path class="cls-5" d="m587.75,139.75c-4.03,2.37-7.2,5.61-9.53,9.71-2.33,4.1-3.5,8.61-3.5,13.52s1.18,9.53,3.56,13.64c2.37,4.1,5.55,7.36,9.53,9.77,3.98,2.41,8.3,3.62,12.97,3.62s8.95-1.19,12.85-3.56c3.9-2.37,7-5.63,9.29-9.77,2.29-4.14,3.44-8.71,3.44-13.7s-1.15-9.41-3.44-13.52c-2.3-4.1-5.39-7.34-9.29-9.71-3.9-2.37-8.19-3.56-12.85-3.56s-9.01,1.19-13.03,3.56h0Zm35.83-14.54c6.92,3.78,12.37,8.99,16.35,15.63,3.98,6.64,5.97,14.02,5.97,22.14s-1.99,15.53-5.97,22.2c-3.98,6.68-9.43,11.92-16.35,15.74-6.92,3.82-14.6,5.74-23.05,5.74s-16.13-1.91-23.05-5.74c-6.92-3.82-12.37-9.04-16.35-15.68-3.98-6.64-5.97-14.06-5.97-22.26s1.99-15.5,5.97-22.14c3.98-6.64,9.41-11.85,16.29-15.63,6.88-3.78,14.58-5.67,23.11-5.67s16.13,1.89,23.05,5.67h0Z"/>
        <polygon class="cls-5" points="659.66 120.87 680.89 120.87 707.2 172.75 733.26 120.87 754.38 120.87 754.38 205.33 737.25 205.33 737.25 148.26 713.24 196.77 700.93 196.77 676.79 148.26 676.79 205.33 659.66 205.33 659.66 120.87 659.66 120.87"/>
        <path class="cls-5" d="m821.53,161.59c2.85-2.45,4.28-6.05,4.28-10.8s-1.43-8.18-4.28-10.56c-2.86-2.37-6.98-3.56-12.37-3.56h-15.81v28.6h15.81c5.39,0,9.51-1.22,12.37-3.68h0Zm13.58-33.06c5.87,5.11,8.81,12.33,8.81,21.66,0,9.81-2.96,17.44-8.87,22.87-5.91,5.43-14.22,8.14-24.92,8.14h-16.77v24.13h-19.07v-84.47h35.84c10.78,0,19.11,2.56,24.98,7.66h0Z"/>
        <path class="cls-5" d="m880.05,184.76c3.43,3.5,7.98,5.25,13.7,5.25s9.97-1.73,13.27-5.19c3.3-3.46,4.95-8.24,4.95-14.36v-49.59h19.07v49.59c0,7.4-1.51,13.82-4.52,19.25-3.02,5.43-7.34,9.61-12.98,12.55-5.63,2.94-12.27,4.41-19.9,4.41s-14.32-1.47-20.03-4.41c-5.71-2.94-10.1-7.12-13.15-12.55-3.06-5.43-4.59-11.84-4.59-19.25v-49.59h19.06v49.59c0,6.03,1.71,10.8,5.13,14.3h0Z"/>
        <polygon class="cls-5" points="941.05 120.87 1011.64 120.87 1011.64 137.04 985.81 137.04 985.81 205.33 966.75 205.33 966.75 137.04 941.05 137.04 941.05 120.87 941.05 120.87"/>
        <polygon class="cls-5" points="1023.1 120.87 1087.41 120.87 1087.41 136.67 1042.17 136.67 1042.17 155.02 1082.83 155.02 1082.83 170.82 1042.17 170.82 1042.17 189.53 1088.74 189.53 1088.74 205.33 1023.1 205.33 1023.1 120.87 1023.1 120.87"/>
        <path class="cls-5" d="m1123.97,165.27h17.61c5.31,0,9.39-1.22,12.25-3.68,2.86-2.45,4.28-6.05,4.28-10.8s-1.43-8.18-4.28-10.56c-2.86-2.37-6.94-3.56-12.25-3.56h-17.61v28.6h0Zm32.82,40.06l-13.39-24.13h-19.43v24.13h-19.06v-84.47h36.68c11.02,0,19.55,2.56,25.58,7.66,6.04,5.11,9.05,12.33,9.05,21.66,0,6.51-1.35,12.09-4.05,16.71-2.69,4.62-6.62,8.14-11.76,10.56l17.97,27.88h-21.6Z"/>
        <path class="cls-5" d="m490.19,258.72c-4.87-1.57-9.03-2.35-12.49-2.35s-5.91.6-7.85,1.81c-1.93,1.21-2.89,2.98-2.89,5.31,0,2.98,1.39,5.25,4.16,6.82,2.78,1.57,7.06,3.2,12.85,4.88,5.79,1.69,10.56,3.38,14.3,5.07,3.74,1.69,6.94,4.22,9.59,7.6,2.66,3.38,3.98,7.84,3.98,13.4s-1.43,10.03-4.28,13.93c-2.86,3.9-6.78,6.86-11.77,8.87-4.99,2.01-10.66,3.02-17.01,3.02-6.84,0-13.56-1.21-20.15-3.62-6.6-2.41-12.31-5.71-17.13-9.9l7.6-15.56c4.26,3.86,9.17,6.96,14.72,9.29,5.55,2.33,10.62,3.5,15.21,3.5,3.94,0,7.01-.72,9.23-2.17,2.21-1.45,3.32-3.54,3.32-6.28,0-2.17-.74-3.96-2.23-5.37-1.49-1.41-3.38-2.55-5.67-3.44-2.29-.88-5.45-1.89-9.47-3.02-5.79-1.61-10.52-3.22-14.18-4.83-3.66-1.61-6.82-4.06-9.47-7.36-2.66-3.29-3.98-7.68-3.98-13.15,0-5.07,1.37-9.51,4.1-13.34,2.74-3.82,6.56-6.75,11.47-8.8,4.91-2.05,10.62-3.08,17.13-3.08,5.79,0,11.5.85,17.13,2.54,5.63,1.69,10.62,3.94,14.96,6.76l-7.36,15.81c-4.34-2.66-8.95-4.77-13.81-6.34h0Z"/>
        <path class="cls-5" d="m552.99,260.41c-4.02,2.37-7.2,5.61-9.53,9.71-2.33,4.1-3.5,8.61-3.5,13.51s1.18,9.54,3.56,13.64c2.37,4.1,5.55,7.36,9.53,9.77,3.98,2.41,8.31,3.62,12.97,3.62s8.95-1.19,12.85-3.56c3.9-2.37,7-5.63,9.29-9.77,2.29-4.14,3.44-8.7,3.44-13.7s-1.15-9.41-3.44-13.51c-2.29-4.1-5.39-7.34-9.29-9.71-3.9-2.37-8.19-3.56-12.85-3.56s-9.01,1.19-13.03,3.56h0Zm35.84-14.54c6.92,3.78,12.37,8.99,16.35,15.63,3.98,6.64,5.98,14.02,5.98,22.14s-1.99,15.53-5.98,22.21c-3.98,6.67-9.43,11.92-16.35,15.74-6.92,3.82-14.6,5.73-23.05,5.73s-16.13-1.91-23.05-5.73c-6.92-3.82-12.37-9.05-16.35-15.68-3.98-6.64-5.97-14.06-5.97-22.27s1.99-15.5,5.97-22.14c3.98-6.64,9.41-11.85,16.29-15.63,6.88-3.78,14.58-5.67,23.11-5.67s16.13,1.89,23.05,5.67h0Z"/>
        <path class="cls-5" d="m673.71,259.81c-3.9-1.97-7.82-2.96-11.76-2.96-4.75,0-9.09,1.17-13.04,3.5-3.94,2.33-7.04,5.51-9.29,9.53-2.25,4.02-3.38,8.49-3.38,13.4s1.12,9.39,3.38,13.45c2.25,4.06,5.35,7.28,9.29,9.65,3.94,2.37,8.29,3.56,13.04,3.56,3.78,0,7.62-.9,11.52-2.72,3.9-1.81,7.38-4.24,10.44-7.3l11.22,12.18c-4.5,4.67-9.79,8.37-15.86,11.1-6.07,2.73-12.17,4.1-18.28,4.1-8.29,0-15.81-1.91-22.57-5.73-6.76-3.82-12.07-9.07-15.93-15.74-3.86-6.68-5.79-14.12-5.79-22.33s1.97-15.48,5.91-22.08c3.94-6.59,9.35-11.78,16.23-15.57,6.88-3.78,14.5-5.67,22.87-5.67,6.11,0,12.15,1.27,18.1,3.8,5.95,2.53,11.02,5.97,15.21,10.32l-11.1,13.64c-2.9-3.46-6.29-6.17-10.2-8.14h0Z"/>
        <polygon class="cls-5" points="707.68 241.53 726.75 241.53 726.75 326 707.68 326 707.68 241.53 707.68 241.53"/>
        <polygon class="cls-5" points="746.66 241.53 810.97 241.53 810.97 257.34 765.72 257.34 765.72 275.68 806.38 275.68 806.38 291.49 765.72 291.49 765.72 310.19 812.29 310.19 812.29 326 746.66 326 746.66 241.53 746.66 241.53"/>
        <polygon class="cls-5" points="820.14 241.53 890.72 241.53 890.72 257.7 864.9 257.7 864.9 326 845.84 326 845.84 257.7 820.14 257.7 820.14 241.53 820.14 241.53"/>
        <polygon class="cls-5" points="973.62 241.53 942.85 298.72 942.85 326 923.79 326 923.79 299.21 892.54 241.53 911.72 241.53 933.33 279.42 954.44 241.53 973.62 241.53 973.62 241.53"/>
        <path class="cls-4" d="m212.48,244.4c.02,19.85,1.42,20.54,15.28,21.45l14.29.84.62.33c3.07,1.66,4.04,5.58,3.63,8.73-.44,3.39-2.37,5.9-5.06,6.56l-.44.1-.45-.02c-11.23-.5-30.78-.8-52.3-.8-22.69,0-42.23.29-53.63.8l-.45.02-.44-.1c-2.68-.66-4.62-3.17-5.06-6.56-.41-3.15.56-7.07,3.63-8.73l.62-.33,14.31-.84c13.84-.91,15.23-1.61,15.25-21.5-54.54-6.13-88.51-32.54-88.51-70.74s29.3-63.11,81.47-70.04c.19,4.97.34,11.65.44,19.32-3.18.81-6.23,1.72-8.95,2.78l-1.35.5c-10.88,4.07-18.28,11.68-21.54,22.06l-.12.35c-1.89,4.54-2.93,13.13-2.93,24.17v.46s0,.46,0,.46c0,11.05,1.04,19.63,2.93,24.17l.14.4c2.52,8.01,7.56,14.35,14.7,18.69,10.26,6.83,29.87,10.36,49.33,10.36,21.29,0,42.75-4.22,51.96-12.38,5.6-4.22,9.61-9.84,11.77-16.72l.12-.36c1.89-4.54,2.93-13.12,2.93-24.17v-.42s0-.5,0-.5c0-11.05-1.04-19.63-2.93-24.17l-.12-.34c-3.27-10.39-10.67-18-21.42-22.02l-1.4-.52c-4.77-1.87-10.3-3.36-16.33-4.44v96.91c-7,1.3-15.27,2.11-24.59,2.11-9.77,0-18.39-.9-25.6-2.3v-22.44c.44-20.91.89-54.06.39-77.51h0c0-.56-.4-16.43-.4-16.96-.1-15.35-1.55-16.98-13.09-18.24l-16.22-1.87c-2.46-1.1-4.12-3.9-4.33-7.31-.21-3.39,1.06-6.34,3.31-7.7l.59-.36.69-.08c11.87-1.4,26.85-4.05,42.17-7.45,8.07-1.93,15.57-4.37,21.04-6.15,5.46-1.78,7.73-2.5,9.19-2.5,3.03,0,6.58,1.61,7.69,5.19l.19.63-.07.66c-.61,5.66-.98,17.46-.98,31.53v15.24c56.83,5.52,88.87,30.68,88.87,70.95s-34.12,64.73-88.86,70.78h0Zm-25.29-224.26C95.74,20.14,21.61,87.95,21.61,171.59s74.13,151.45,165.58,151.45,165.58-67.8,165.58-151.45S278.64,20.14,187.19,20.14h0Z"/>
        <path class="cls-4" d="m302.81,313.69h4.19l6.97,14.35,6.92-14.35h4.24v21.22h-3.28v-16.17l-6.72,13.94h-2.32l-6.72-13.94v16.17h-3.28v-21.22h0Zm-19.5,0h16.37v3.13h-6.42v18.09h-3.59v-18.09h-6.37v-3.13h0Z"/>
      </g>
    </g>
  </g>
</svg>