<svg xmlns="http://www.w3.org/2000/svg" viewBox="0 0 1200 939.9971"><defs><style>.cls-1{fill:#00629b;}.cls-2{fill:#75787b;}.cls-3{fill:#b2b2b2;}.cls-4{fill:#1d1d1b;}.cls-5{fill:#f7a400;}</style></defs><g id="Capa_2" data-name="Capa 2"><g id="Final"><path class="cls-1" d="M157.4608,642.9064l-.3207,31.8525v10.939c-.2138,13.62-.6436,19.84-6.3269,25.8442-7.9369,8.3668-19.7333,8.3668-23.5949,8.3668-14.3707,0-22.6284-5.3626-26.7038-11.155-3.7525-5.1466-4.3961-10.9389-4.719-22.5193v-7.937c-.1069-16.7291-.1069-19.7333-.5367-35.0684l.6458-.6436c7.2912.1069,9.7587.1069,18.8738-.3228l.5367.6436c-.216,10.6182-.3208,18.8759-.3208,27.5633,0,5.6833,0,11.3666.2139,17.05.2138,6.7567.8574,10.5113,2.4653,13.3a12.6672,12.6672,0,0,0,10.9389,5.6833,12.388,12.388,0,0,0,9.438-3.8616c2.8951-3.4317,3.2158-8.5783,3.2158-19.838,0-13.1926-.5345-26.3831-1.0712-39.5736l.6436-.6436c6.113.1069,8.2576.1069,16.0877-.3228Z"/><path class="cls-1" d="M220.5355,718.1919c-8.5806,0-10.4045.1069-17.4819.3229l-.6436-.6436c0-3.6478.1069-7.4.1069-11.0459,0-4.0754-.1069-18.769-.3207-22.3077-.3229-3.8616-.86-10.1885-6.7566-10.1885-3.4318,0-6.0062,1.8239-8.2577,3.3249.1069,19.1967.2138,23.3789.8574,39.8943l-.6436.6436c-8.5784,0-10.1885,0-17.91.3229l-.6435-.6436c.1069-6.8636.2138-13.7272.2138-20.5908a297.9246,297.9246,0,0,0-1.501-33.5673l.6436-.7505c8.0438-1.0734,9.8677-1.3941,18.1232-3.1111l1.0734.75-.2138,5.8993c4.9328-2.8951,10.6161-6.3269,17.1589-6.3269,3.8594,0,9.9725.8574,13.2974,6.4338,2.6813,4.3961,2.7882,9.331,2.8973,19.6264v8.3646c.2138,10.5091.2138,13.5111.75,22.9491Z"/><path class="cls-1" d="M250.6209,718.2988c-8.6875-.1069-10.8321,0-18.5531.3229l-.6457-.75c.3228-8.7944.6457-15.3373.6457-27.0267,0-15.2282-.3229-18.9807-1.18-27.1314l.6436-.6436,18.444-3.218.75.8574c-.1047,9.1172-.3207,18.3392-.3207,27.4543,0,14.8005.43,21.1274.9665,29.3851Zm-1.501-67.9922c-7.6141.9665-9.6518,1.18-16.9473,2.4675l-.75-.6436c.109-2.0377.109-4.1823.109-6.22,0-2.5744-.109-4.8259-.3228-8.6874l.6435-.75,17.4819-2.1446.6414.6436-.3207,14.5845Z"/><path class="cls-1" d="M292.0881,718.2988c-7.7231-.1069-10.5113,0-17.4818.3229l-.75-.75c-2.3606-8.7944-3.5387-12.7629-17.8025-55.0177l.4276-.8574a141.2037,141.2037,0,0,0,18.769-1.1781l.75.6414c1.501,7.08,1.9308,9.1172,4.6121,19.09l2.0377,8.2577,2.6813,11.5825,5.4694-21.1274c2.1446-8.3645,2.4653-9.8655,3.9663-17.05l.7527-.7527,15.0122-.3207.5367.75c-3.002,8.7943-7.721,22.7353-10.6161,31.4228-2.2537,6.7566-4.2914,13.4042-7.721,24.1294Z"/><path class="cls-1" d="M362.8205,702.75l-.75,12.1171-.6436.86c-5.6833,2.2515-9.5449,3.8594-18.4461,3.8594-7.721,0-22.3078-1.2872-28.5277-15.7649-1.7148-3.7525-2.5722-9.0081-2.5722-14.0478,0-18.5531,11.1527-29.5989,27.9888-29.5989a27.4578,27.4578,0,0,1,7.614.9643c3.6478.8574,11.9055,3.4318,15.658,16.0855,1.5032,5.3626,1.61,10.7252,1.717,15.9809l-.6436.75-34.6408.6436a15.1953,15.1953,0,0,0,2.3606,6.5406c2.5744,3.8616,6.9705,5.8993,13.4043,5.8993,7.83,0,12.6559-2.4675,16.7313-4.6121Zm-15.3373-19.9471c0-2.4675-.1069-5.0419-1.6079-7.4a8.2289,8.2289,0,0,0-11.1527-2.5744c-4.0754,2.5744-4.8259,7.0774-5.1488,10.4023Z"/><path class="cls-1" d="M403.546,678.9412a8.0322,8.0322,0,0,0-4.3961-1.501c-7.2934,0-7.2934,7.0774-7.2934,11.9033,0,7.4.6436,19.52,1.0734,28.2048l-.5367.75c-8.5806-.1069-10.2954,0-18.2323.3229l-.6436-.6436c.216-8.9013.3229-17.6957.3229-26.49,0-14.9075-.3229-19.7333-.9665-27.775l.6436-.6436c7.83-1.18,9.8677-1.501,17.8025-3.218l.86.8574-.3229,9.8677c3.4318-7.9369,8.3646-10.4022,12.7629-10.4022.75,0,1.5009.1069,2.2514.1069l.6436.75-3.002,17.48Z"/><path class="cls-1" d="M440.9706,683.23c5.897,2.2515,14.1547,5.3626,14.1547,17.1589a18.2692,18.2692,0,0,1-.1069,2.3606c-1.9286,15.3351-18.0163,16.8361-26.1671,16.8361-7.8279,0-12.333-1.7148-17.5865-3.6456l-.5367-.9665c.4276-5.36.5367-6.5407.75-12.1171l.9643-.43a23.81,23.81,0,0,0,4.2913,3.0042,26.8562,26.8562,0,0,0,11.3666,3.002c6.0062,0,8.4715-2.8951,8.4715-5.5764,0-3.8615-4.7168-5.4694-7.6141-6.4359l-4.0754-1.501c-5.04-1.9308-13.9409-5.3626-13.9409-16.8361a16.12,16.12,0,0,1,2.8951-9.4379c5.5763-8.0439,16.0877-8.4715,21.3412-8.4715,6.9726,0,11.3687,1.285,16.4084,2.6791l.5367.6436-1.0712,11.6894-.9665.3229c-2.6813-1.717-6.8635-4.5051-13.4042-4.5051-6.65,0-7.5072,3.5408-7.5072,4.8258,0,3.0042,2.8951,4.1823,6.5407,5.47Z"/><path class="cls-1" d="M482.06,718.2988c-8.6875-.1069-10.8321,0-18.5531.3229l-.6435-.75c.3207-8.7944.6435-15.3373.6435-27.0267,0-15.2282-.3228-18.9807-1.18-27.1314l.6436-.6436,18.4461-3.218.75.8574c-.1069,9.1172-.3229,18.3392-.3229,27.4543,0,14.8005.43,21.1274.9665,29.3851Zm-1.5032-67.9922c-7.6141.9665-9.6518,1.18-16.943,2.4675l-.75-.6436c.1069-2.0377.1069-4.1823.1069-6.22,0-2.5744-.1069-4.8259-.3229-8.6874l.6436-.75,17.4818-2.1446.6436.6436-.3229,14.5845Z"/><path class="cls-1" d="M545.1459,718.2988c-8.0438,0-10.0815,0-17.48.3229l-.5367-.6436.2138-4.1823c-2.5744,2.2515-6.5407,5.79-14.1548,5.79a22.6059,22.6059,0,0,1-14.05-4.719c-6.3269-5.2535-8.5784-13.62-8.5784-21.9848,0-11.0459,3.1089-19.9472,10.6161-25.7373,8.1508-6.436,18.2323-6.22,26.274-6.0062.1091-12.2262,0-14.9075-.6436-24.9868l.5367-.6436L545.039,632.72l.75.6436c-.43,14.1547-.8574,25.8442-.8574,54.1559,0,14.05.3207,20.4838.75,30.1356Zm-21.3412-44.6133c-12.01,0-14.3707,9.2242-14.3707,17.4819,0,2.1446,0,15.4419,10.4022,15.4419,3.0042,0,5.1488-1.2872,7.2934-2.5744.3207-12.9744.43-15.7626.3207-30.0265A23.8143,23.8143,0,0,0,523.8047,673.6855Z"/><path class="cls-1" d="M604.0274,694.2763c0,10.0815,0,12.7628.7505,23.272l-.5367.75c-6.9705-.1069-9.3311,0-17.052.3229l-.6436-.75v-3.9685A22.167,22.167,0,0,1,571.64,719.586c-10.5114,0-18.769-7.4-18.769-18.8738a17.1522,17.1522,0,0,1,8.0438-14.6936c6.4338-3.9685,12.44-5.1466,25.31-6.8636,0-1.6079-.3229-3.5387-1.3941-4.61-1.3941-1.3963-3.0042-2.0377-6.97-2.0377-7.1865,0-14.157,2.7882-17.91,4.2892l-.8595-.43.5367-11.6894.6435-.8574c6.1131-1.8239,11.7964-3.5387,21.0206-3.5387,13.7271,0,18.0163,4.2892,20.1609,7.721,2.7882,4.5051,2.7882,8.6874,2.6813,18.3392Zm-17.5887-3.8594c-7.2912.9643-15.7649,2.1446-15.7649,9.2219,0,4.5052,3.218,6.5429,7.0774,6.5429a17.38,17.38,0,0,0,8.6875-2.7882Z"/><path class="cls-1" d="M667.0148,718.2988c-8.0439,0-10.0816,0-17.48.3229l-.5367-.6436.2138-4.1823c-2.5744,2.2515-6.5407,5.79-14.1547,5.79a22.606,22.606,0,0,1-14.05-4.719c-6.3269-5.2535-8.5784-13.62-8.5784-21.9848,0-11.0459,3.1089-19.9472,10.6161-25.7373,8.1508-6.436,18.2323-6.22,26.274-6.0062.1091-12.2262,0-14.9075-.6436-24.9868l.5367-.6436,17.6957-2.7882.75.6436c-.43,14.1547-.8574,25.8442-.8574,54.1559,0,14.05.3207,20.4838.75,30.1356Zm-21.3413-44.6133c-12.01,0-14.3707,9.2242-14.3707,17.4819,0,2.1446,0,15.4419,10.4023,15.4419,3.0041,0,5.1487-1.2872,7.2933-2.5744.3207-12.9744.43-15.7626.3207-30.0265A23.8143,23.8143,0,0,0,645.6735,673.6855Z"/><path class="cls-1" d="M126.7885,772.4831c-.2138,6.8635-.3207,10.1884-.3207,16.0855,0,15.1213.216,30.1356.7505,45.15l-.6436.6436c-8.9012,0-11.0458.1069-18.9806.43l-.6458-.6435c.86-26.597.86-33.3536.7505-61.4515l-17.48.43-.5367-.6436.7505-13.1905.75-.6436H144.27l.5366.3207-.7526,13.4065-.6414.5367Z"/><path class="cls-1" d="M192.4288,818.92l-.75,12.1171-.6436.8574c-5.6854,2.2537-9.5448,3.8616-18.4461,3.8616-7.721,0-22.3077-1.2872-28.5255-15.7649-1.717-3.7525-2.5744-9.0082-2.5744-14.0479,0-18.553,11.1528-29.5988,27.991-29.5988a27.4889,27.4889,0,0,1,7.6141.9643c3.6456.8574,11.9032,3.4317,15.6557,16.0855,1.501,5.3626,1.61,10.7252,1.717,15.9808l-.6436.75-34.6407.6436a15.1681,15.1681,0,0,0,2.3605,6.5407c2.5744,3.8616,6.9705,5.8993,13.4043,5.8993,7.83,0,12.6559-2.4675,16.7313-4.6121Zm-15.335-19.9471c0-2.4675-.1091-5.0419-1.61-7.4a8.2288,8.2288,0,0,0-11.1528-2.5744c-4.0754,2.5744-4.8259,7.0774-5.1487,10.4023Z"/><path class="cls-1" d="M246.131,819.5638l-.43,12.8676-.6436.6436c-4.503,1.2872-8.1508,2.3605-13.8341,2.3605-24.1294,0-30.5632-16.7313-30.5632-29.0643,0-10.939,4.9306-30.0265,30.1334-30.0265,6.2222,0,10.2976,1.285,15.0144,2.7881l.5367.6436c-.8574,5.6833-.9643,7.1843-1.3941,12.8676l-1.0712.3229c-3.218-2.1446-5.7924-3.8616-10.5114-3.8616-10.4022,0-13.834,9.0082-13.834,16.8382,0,6.4338,2.4674,16.5154,14.5845,16.5154,5.47,0,8.2577-1.717,11.1528-3.4318Z"/><path class="cls-1" d="M306.18,834.3622c-8.5784,0-10.4022.1069-17.48.3228l-.6436-.6436c0-3.6477.1069-7.4.1069-11.0458,0-4.0754-.1069-18.769-.3207-22.3077-.3229-3.8616-.86-10.1885-6.7567-10.1885-3.4318,0-6.0062,1.8239-8.2577,3.3249.1069,19.1966.2138,23.3789.8574,39.8943l-.6436.6436c-8.58,0-10.1884,0-17.9094.3228l-.6436-.6436c.1069-6.8635.216-13.7271.216-20.5907a298.3116,298.3116,0,0,0-1.5032-33.5674l.6436-.75c8.0439-1.0733,9.8656-1.3941,18.1254-3.111l1.0712.75-.2138,5.8992c4.9328-2.8951,10.6161-6.3268,17.159-6.3268,3.8594,0,9.9724.8574,13.2973,6.4337,2.6813,4.3961,2.7882,9.3311,2.8951,19.6265v8.3645c.216,10.5092.216,13.5112.75,22.9492Z"/><path class="cls-1" d="M343.3119,835.7563c-15.3351,0-20.5908-5.79-23.379-9.9725-3.9684-5.7924-5.0418-12.7629-5.0418-19.6264,0-19.7334,10.5113-29.7058,29.1713-29.7058,2.7882,0,8.3645.2138,13.0835,2.0376,15.0144,5.8971,15.0144,23.2721,15.0144,27.4543C372.16,822.0291,366.0472,835.7563,343.3119,835.7563Zm7.1843-44.934a9.0119,9.0119,0,0,0-6.8636-3.3249,8.88,8.88,0,0,0-7.8279,4.8259c-2.1446,3.7525-2.1446,10.6161-2.1446,13.7272,0,10.4022,2.0377,14.0478,3.8594,15.8717a8.6747,8.6747,0,0,0,6.0062,2.4675c8.9012,0,10.0815-9.7609,10.0815-18.5531C353.6072,800.0443,353.0705,793.9312,350.4962,790.8223Z"/><path class="cls-1" d="M398.91,834.4691c-7.8279-.1069-10.7252,0-17.9095.3228l-.6435-.7505c.43-10.6182.6435-17.052.6435-28.6345,0-6.3269,0-12.656-.1069-18.9829-.2159-17.3727-.3228-20.9114-1.3941-33.995l.4277-.6436,18.3392-2.8951.75.75c-.43,11.5826-.5367,16.4085-.5367,26.5948,0,33.89.5367,45.15,1.0734,57.483Z"/><path class="cls-1" d="M435.9265,835.7563c-15.335,0-20.5907-5.79-23.3789-9.9725-3.9685-5.7924-5.0419-12.7629-5.0419-19.6264,0-19.7334,10.5114-29.7058,29.1713-29.7058,2.7882,0,8.3646.2138,13.0836,2.0376,15.0143,5.8971,15.0143,23.2721,15.0143,27.4543C464.7749,822.0291,458.6618,835.7563,435.9265,835.7563Zm7.1843-44.934a9.0119,9.0119,0,0,0-6.8636-3.3249,8.88,8.88,0,0,0-7.8279,4.8259c-2.1446,3.7525-2.1446,10.6161-2.1446,13.7272,0,10.4022,2.0377,14.0478,3.8594,15.8717A8.6747,8.6747,0,0,0,436.14,824.39c8.9013,0,10.0816-9.7609,10.0816-18.5531C446.2219,800.0443,445.6852,793.9312,443.1108,790.8223Zm9.7608-38.3933c-3.4317,5.2535-8.2576,12.6538-11.5825,18.1233l-.7505.43H428.956l-.43-.6436a117.1132,117.1132,0,0,0,6.5429-17.9095l.5345-.5367,16.9452-.2138Z"/><path class="cls-1" d="M491.9347,820.0983a45.0647,45.0647,0,0,0,10.6161,2.6813l2.5743.43c6.9705,1.6079,18.7669,4.1823,18.7669,17.6956,0,10.4023-9.0082,20.2679-28.6346,20.2679-4.1823,0-12.3309-.2138-18.3371-4.503-3.9684-2.8973-6.65-7.1865-6.65-12.1193,0-6.9705,5.04-11.0458,8.2576-13.5133l-4.503-3.2158v-.9665c2.4653-4.3961,4.0732-7.2912,7.0774-13.0836-2.6813-1.501-4.8259-2.6813-7.1864-6.0061a17.3786,17.3786,0,0,1-3.1089-10.4023,17.9891,17.9891,0,0,1,6.8635-14.4777c6.9705-5.79,17.159-5.5763,24.773-5.3625l4.9328.1069c6.7567.109,9.0082,0,17.2659-.3207l.6436.5366-.75,10.723-.6436.5367-7.4-.4276a14.0223,14.0223,0,0,1,2.8973,9.3289c0,10.4023-8.1508,15.0143-13.7272,16.9451a30.1305,30.1305,0,0,1-12.0123,1.3941ZM489.1465,835.97c-1.2872,1.5031-3.1111,3.5408-3.1111,7.08,0,3.7525,2.6813,8.2577,10.6183,8.2577,7.0773,0,9.7586-3.3249,9.7586-6.5429a4.731,4.731,0,0,0-2.1446-4.1823c-1.2872-1.0712-1.3941-1.0712-10.9389-3.5387Zm6.22-48.3658c-3.9685,0-7.1865,3.4318-7.1865,8.7944a14.7561,14.7561,0,0,0,.9665,5.5764,6.9368,6.9368,0,0,0,6.4338,4.503c1.501,0,6.7566-.75,6.8635-9.4358C502.5508,792.3233,500.2993,787.6043,495.3665,787.6043Z"/><path class="cls-1" d="M550.5042,834.4691c-8.6875-.1069-10.8321,0-18.5531.3228l-.6436-.7505c.3207-8.7943.6436-15.3372.6436-27.0266,0-15.2282-.3229-18.9807-1.18-27.1315l.6436-.6436,18.4462-3.2179.75.8574c-.1069,9.1172-.3229,18.3392-.3229,27.4543,0,14.8005.43,21.1274.9664,29.3851Zm-1.5032-67.9922c-7.6141.9665-9.6518,1.18-16.943,2.4675l-.75-.6436c.1069-2.0377.1069-4.1823.1069-6.22,0-2.5744-.1069-4.8259-.3229-8.6875l.6436-.75,17.4819-2.1446.6436.6436-.3229,14.5846Z"/><path class="cls-1" d="M604.2194,819.5638l-.43,12.8676-.6436.6436c-4.503,1.2872-8.1508,2.3605-13.8341,2.3605-24.1294,0-30.5653-16.7313-30.5653-29.0643,0-10.939,4.9349-30.0265,30.1355-30.0265,6.22,0,10.2954,1.285,15.0144,2.7881l.5367.6436c-.8574,5.6833-.9643,7.1843-1.3941,12.8676l-1.0734.3229c-3.2158-2.1446-5.79-3.8616-10.5092-3.8616-10.4022,0-13.834,9.0082-13.834,16.8382,0,6.4338,2.4675,16.5154,14.5845,16.5154,5.47,0,8.2577-1.717,11.1528-3.4318Z"/><path class="cls-1" d="M660.5592,810.4465c0,10.0816,0,12.7629.75,23.2721l-.5367.75c-6.9705-.1069-9.3311,0-17.0521.3228l-.6436-.7505V830.073a22.1776,22.1776,0,0,1-14.9052,5.6833c-10.5114,0-18.769-7.4-18.769-18.8738a17.1517,17.1517,0,0,1,8.0438-14.6936c6.4338-3.9685,12.44-5.1466,25.31-6.8636,0-1.6079-.3229-3.5387-1.3941-4.6121-1.3941-1.3941-3.0041-2.0355-6.97-2.0355-7.1865,0-14.157,2.7882-17.9095,4.2892l-.86-.43.5367-11.6895.6436-.8574c6.1131-1.8238,11.7964-3.5386,21.02-3.5386,13.7272,0,18.0164,4.2891,20.161,7.7209,2.7882,4.5052,2.7882,8.6875,2.6813,18.3393ZM642.97,806.5871c-7.2912.9643-15.7648,2.1446-15.7648,9.222,0,4.5052,3.218,6.5429,7.0774,6.5429a17.38,17.38,0,0,0,8.6874-2.7882Z"/><path class="cls-1" d="M756.5314,834.4691c-8.0439,0-10.0815,0-17.48.3228l-.5367-.6435.2138-4.1823c-2.5744,2.2515-6.5407,5.79-14.1548,5.79a22.6063,22.6063,0,0,1-14.05-4.719c-6.3269-5.2535-8.5784-13.62-8.5784-21.9849,0-11.0458,3.1089-19.9471,10.6161-25.7373,8.1507-6.4359,18.2323-6.22,26.274-6.0061.1091-12.2262,0-14.9075-.6436-24.9869l.5367-.6436,17.6956-2.7882.75.6415c-.43,14.1569-.8574,25.8464-.8574,54.1581,0,14.05.3207,20.4838.75,30.1356ZM735.19,789.8558c-12.01,0-14.3708,9.2242-14.3708,17.4818,0,2.1446,0,15.442,10.4023,15.442,3.0042,0,5.1488-1.2872,7.2934-2.5744.3207-12.9745.43-15.7648.3207-30.0265A23.8143,23.8143,0,0,0,735.19,789.8558Z"/><path class="cls-1" d="M815.8623,818.92l-.75,12.1171-.6436.8574c-5.6833,2.2537-9.5449,3.8616-18.4461,3.8616-7.721,0-22.3077-1.2872-28.5277-15.7649-1.7148-3.7525-2.5722-9.0082-2.5722-14.0479,0-18.553,11.1527-29.5988,27.9888-29.5988a27.4826,27.4826,0,0,1,7.6162.9643c3.6456.8574,11.9033,3.4317,15.6558,16.0855,1.501,5.3626,1.61,10.7252,1.717,15.9808l-.6436.75-34.6408.6436a15.167,15.167,0,0,0,2.3606,6.5407c2.5744,3.8616,6.9705,5.8993,13.4043,5.8993,7.83,0,12.6559-2.4675,16.7313-4.6121Zm-15.3351-19.9471c0-2.4675-.109-5.0419-1.61-7.4a8.2288,8.2288,0,0,0-11.1528-2.5744c-4.0754,2.5744-4.8259,7.0774-5.1488,10.4023Z"/><path class="cls-1" d="M844.6605,834.4691c-7.8279-.1069-10.7251,0-17.9094.3228l-.6436-.7505c.43-10.6182.6436-17.052.6436-28.6345,0-6.3269,0-12.656-.1069-18.9829-.216-17.3727-.3229-20.9114-1.3941-33.995l.4276-.6436,18.3392-2.8951.75.75c-.43,11.5826-.5367,16.4085-.5367,26.5948,0,33.89.5367,45.15,1.0734,57.483Z"/><path class="cls-1" d="M912.86,758.3261c8.0439,0,17.159,0,23.5928,3.7547,8.9012,5.04,9.9746,15.2282,9.9746,19.84,0,7.5072-2.5744,13.62-5.5764,17.2659-7.7209,9.4379-20.5907,9.4379-32.603,9.3289,0,10.9389,0,13.62.43,25.31l-.5366.6436c-8.5784-.1069-10.2954,0-18.23.3228l-.6436-.6435c.3207-13.0836.6436-26.06.6436-39.1438,0-12.3331-.3229-21.6641-.75-35.6051l.6414-.6436,13.62-.2138Zm-4.612,36.9992c6.4359,0,10.4044-.2138,13.3-1.8217,5.6833-3.1111,5.6833-9.3311,5.6833-10.8321,0-6.22-2.5744-11.0458-12.0124-11.2618-2.3584,0-4.61,0-6.97.1091Z"/><path class="cls-1" d="M1001.0174,818.92l-.75,12.1171-.6436.8574c-5.6833,2.2537-9.5449,3.8616-18.4461,3.8616-7.721,0-22.3077-1.2872-28.5277-15.7649-1.7148-3.7525-2.5722-9.0082-2.5722-14.0479,0-18.553,11.1527-29.5988,27.9888-29.5988a27.4826,27.4826,0,0,1,7.6162.9643c3.6456.8574,11.9033,3.4317,15.6558,16.0855,1.501,5.3626,1.61,10.7252,1.717,15.9808l-.6436.75-34.6408.6436a15.167,15.167,0,0,0,2.3606,6.5407c2.5744,3.8616,6.9705,5.8993,13.4043,5.8993,7.83,0,12.6559-2.4675,16.7313-4.6121Zm-15.3351-19.9471c0-2.4675-.109-5.0419-1.61-7.4a8.2288,8.2288,0,0,0-11.1528-2.5744c-4.0754,2.5744-4.8259,7.0774-5.1488,10.4023Z"/><path class="cls-1" d="M1041.7429,795.1115a8.0322,8.0322,0,0,0-4.3961-1.501c-7.2934,0-7.2934,7.0774-7.2934,11.9033,0,7.4.6436,19.5173,1.0734,28.2048l-.5367.75c-8.5806-.1069-10.2954,0-18.2323.3228l-.6436-.6435c.216-8.9013.3229-17.6957.3229-26.49,0-14.9075-.3229-19.7334-.9665-27.7751l.6436-.6436c7.83-1.18,9.8677-1.501,17.8025-3.2179l.86.8574-.3229,9.8677c3.4318-7.9369,8.3646-10.4022,12.7629-10.4022.7505,0,1.501.1069,2.2515.1069l.6436.75-3.002,17.48Z"/><path class="cls-1" d="M1104.0147,777.9526q-.3207,15.1223-.3207,30.2424c0,13.941.2138,18.0164.7505,25.63l-.6436.6436c-6.97,0-9.3289,0-17.159.3228l-.7505-.6435.1069-4.8259c-3.8594,3.002-8.2577,6.4338-15.8717,6.4338-5.3626,0-10.5092-1.7149-14.0479-5.6833-3.8616-4.5052-4.3983-9.438-4.2914-21.1275v-7.5071c0-10.8321-.1069-13.8341-.75-22.8423l.75-.6435,17.6957-.8575.7505.8575-.2138,21.6619c-.1069,2.6813-.1069,5.4695-.1069,8.1508,0,6.329,0,14.4776,7.7209,14.4776,2.8951,0,5.1488-1.6079,8.0439-3.5387.1069-4.2892.1069-6.004.1069-9.1151,0-1.7169,0-18.8759-.75-30.993l.75-.6435,17.48-.8575Zm-9.5427-25.5236c-3.4318,5.2535-8.2577,12.6538-11.5826,18.1233l-.7505.43h-11.5825l-.43-.6436a117.1026,117.1026,0,0,0,6.5428-17.9095l.5346-.5367,16.9451-.2138Z"/><path class="cls-1" d="M107.7555,872.71c-.2814,6.2876-.469,13.701-.469,29.8432,0,18.0186.1876,25.7134.7505,35.38l-.5629.6567c-4.13.0938-5.4433.0938-10.4176.2814l-.5628-.6567c.1876-5.7247.3752-10.6989.3752-22.8051,0-14.17,0-28.2484-.6567-42.3246l.4691-.75c4.13,0,5.6309,0,10.4175-.2815Z"/><path class="cls-1" d="M161.6475,930.8929c-.2815,3.1918-.2815,3.8485-.4691,7.04l-.6567.6567c-18.3,0-21.21.0938-39.0412.2814l-.4691-.6567c.2815-7.4155.5629-12.4814.5629-29.6556,0-15.767,0-24.7752-.6567-35.568l.5629-.6566c18.49-.0939,22.1484-.0939,39.4165-.2815l.5628.6567c-.2814,2.8144-.469,3.94-.6566,7.32l-.5651.6566c-12.104-.3752-16.14-.3752-28.0586-.469-.2815,8.6329-.2815,11.3556-.2815,19.9886,11.5433.0938,15.11,0,26.56-.1877l.4669.6567a66.0332,66.0332,0,0,0-.4669,7.2279l-.5628.6567c-10.8866-.2814-13.2341-.2814-25.997-.2814-.1876,10.8866-.0938,13.5133,0,22.4277,14.1722,0,17.08,0,29.1866-.4691Z"/><path class="cls-1" d="M211.1149,930.8929c-.2836,3.1918-.2836,3.8485-.4712,7.04l-.6567.6567c-18.3,0-21.2081.0938-39.0412.2814l-.4669-.6567c.2793-7.4155.5629-12.4814.5629-29.6556,0-15.767,0-24.7752-.6589-35.568l.5629-.6566c18.49-.0939,22.1484-.0939,39.4187-.2815l.5628.6567c-.2836,2.8144-.4712,3.94-.6588,7.32l-.5629.6566c-12.1062-.3752-16.14-.3752-28.0608-.469-.2793,8.6329-.2793,11.3556-.2793,19.9886,11.5411.0938,15.1082,0,26.5576-.1877l.4691.6567a66.61,66.61,0,0,0-.4691,7.2279l-.5628.6567c-10.8866-.2814-13.2319-.2814-25.9948-.2814-.1876,10.8866-.096,13.5133,0,22.4277,14.17,0,17.0782,0,29.1866-.4691Z"/><path class="cls-1" d="M260.58,930.8929c-.2815,3.1918-.2815,3.8485-.4691,7.04l-.6589.6567c-18.3,0-21.2081.0938-39.039.2814l-.4691-.6567c.2815-7.4155.5629-12.4814.5629-29.6556,0-15.767,0-24.7752-.6567-35.568l.5629-.6566c18.4876-.0939,22.1484-.0939,39.4165-.2815l.5628.6567c-.2814,2.8144-.469,3.94-.6567,7.32l-.5628.6566c-12.1084-.3752-16.1423-.3752-28.0608-.469-.2815,8.6329-.2815,11.3556-.2815,19.9886,11.5433.0938,15.1082,0,26.5577-.1877l.4712.6567a67.1189,67.1189,0,0,0-.4712,7.2279l-.5629.6567c-10.8866-.2814-13.2319-.2814-25.9948-.2814-.1876,10.8866-.0938,13.5133,0,22.4277,14.17,0,17.08,0,29.1866-.4691Z"/><path class="cls-1" d="M322.4092,901.05c6.85,3.0041,15.9546,6.9464,15.9546,18.9588,0,10.5092-7.7886,19.9886-24.1185,19.9886a40.651,40.651,0,0,1-18.5814-4.13l-.3752-.6567c.3752-3.2835.469-5.0681.75-8.633l.9381-.3752a27.682,27.682,0,0,0,16.5175,5.5371c9.6649,0,13.701-4.9742,13.701-10.6052,0-6.569-5.4433-9.1041-11.5433-11.4494l-4.6928-2.0639c-6.6629-3.098-15.5772-7.1341-15.5772-18.5836a17.338,17.338,0,0,1,2.9082-9.8525c4.3175-6.1938,12.1061-8.26,19.7071-8.26,7.4155,0,11.9185,1.4094,16.8928,3.0042l.469.75c-.3752,3.567-.469,4.88-.75,8.2576l-.75.3775c-4.0361-2.0661-8.4453-4.3176-15.4834-4.3176-7.7908,0-12.6712,3.6587-12.6712,9.1958,0,4.2237,2.8166,6.1938,4.7866,7.4156,1.22.75,1.5948.9381,7.2258,3.3772Z"/><path class="cls-1" d="M368.2267,931.1765c-.2814,3.0958-.2814,3.7525-.3753,6.4753l-.469.5628a25.5322,25.5322,0,0,1-7.04.8444c-2.2515,0-8.1639,0-11.0721-4.88-1.6908-2.7205-1.6908-4.9742-1.6908-16.0484l.1877-20.6453c-3.2835,0-3.3773.0938-6.7567.1876l-.3753-.5629c.1877-3.0041.1877-3.7546.1877-6.7566l.5628-.5629c2.0661,0,3.2857.0938,6.3815,0-.0938-1.9722-.0938-4.0361-.0938-6.0062q-.1408-2.6769-.2815-5.35l.4691-.6566c4.2237-1.0342,5.2557-1.3156,9.5732-2.629l.6567.4691c-.2814,6.1938-.3753,7.4133-.3753,14.266,3.9423-.0938,5.0681-.0938,10.4176-.2814l.469.5629c-.1876,2.4391-.2814,3.471-.2814,6.6628l-.4691.5629c-4.6928-.0938-5.2556-.1876-10.23-.1876l-.1876,17.4556c.0938,1.1258.0938,6.4752.0938,7.7886,0,6.8505.8443,9.01,5.5371,9.01a12.7881,12.7881,0,0,0,4.5052-.8465Z"/><path class="cls-1" d="M417.3277,890.0714c-.1877,7.132-.2815,13.7948-.2815,21.3958,0,11.5433.2815,18.4876.4691,22.5237,0,1.3134.0938,2.6268.1876,3.9423l-.3752.5629c-4.5052.0938-5.2557.1876-9.5733.3752l-.5628-.5628.0938-3.9423a23.9787,23.9787,0,0,1-14.7329,5.3494c-3.6609,0-7.6948-.8443-10.699-3.1918-6.0062-4.8782-6.0062-12.8566-6.1-20.1762v-5.8185c-.1876-13.42-.1876-14.92-.4691-19.9886l.4691-.6567c4.4114-.0938,5.2557-.0938,9.667-.469l.5629.6566-.3752,20.5515c0,2.5351-.0938,4.4114,0,8.9165.0938,3.94.2814,12.3876,9.7586,12.3876,5.5371,0,9.4794-3.098,11.7309-4.88.0939-5.068.0939-9.3856.0939-14.8289,0-13.0443-.0939-15.671-.6567-21.771l.5628-.6567c4.3176-.0938,5.35-.0938,9.6671-.3752Z"/><path class="cls-1" d="M460.4028,865.6715c4.7866-.8465,5.7247-1.0341,9.9485-1.9722l.6567.5628c-.6567,13.0465-.75,36.3185-.75,45.7041,0,14.5453.3752,21.4918.75,27.967l-.4691.6567c-4.13,0-5.2557.0938-9.5732.2814l-.6567-.5628.1876-3.4733a19.856,19.856,0,0,1-12.95,4.6928c-12.4815,0-21.1144-9.8546-21.1144-24.1185,0-10.23,4.3154-16.7051,8.2577-20.1762,6.8505-6.196,15.767-6.4774,20.6453-6.4774,1.9722,0,2.91,0,5.4433.1876a208.3547,208.3547,0,0,0-.8444-22.7091Zm.0938,30.8752c-1.5948-.0938-2.7205-.2815-4.6906-.2815-2.91,0-9.1042.1877-13.6093,4.4092-2.0639,1.9723-5.4433,6.3814-5.4433,14.7351,0,5.35,1.5031,9.1958,3.4732,11.5433a12.3585,12.3585,0,0,0,9.667,4.2237,15.5691,15.5691,0,0,0,10.5092-4.13C460.59,914.7528,460.59,911.9363,460.4966,896.5467Z"/><path class="cls-1" d="M521.0842,927.14c-.4713,3.7525-.5651,4.6928-.7527,8.3515l-.5629.6567a30.65,30.65,0,0,1-15.0143,3.567c-15.3918,0-25.0567-8.8227-25.0567-25.15,0-17.4557,10.5092-25.9969,22.803-25.9969,7.4155,0,12.5774,3.0979,15.3917,6.4752,5.35,6.3836,5.1619,15.6732,5.0681,19.8031l-.6567.5629c-14.6413-.0938-17.1742-.0938-32.566,0,.0938,3.2834.3753,7.8824,3.5671,11.7309,3.8485,4.599,9.1958,5.0681,12.1061,5.0681a24.4484,24.4484,0,0,0,8.1639-1.4094,23.6414,23.6414,0,0,0,6.7567-4.1277Zm-8.729-24.4937a10.49,10.49,0,0,0-10.23-7.32c-5.2535,0-11.4473,3.5649-12.3876,12.9505,11.3557.0938,14.9227,0,23.5557-.0938A20.5192,20.5192,0,0,0,512.3552,902.6467Z"/><path class="cls-1" d="M573.6736,938.4961c-4.5051.0938-5.068.0938-9.3856.3752l-.6567-.6567c0-1.0319.0939-2.066.0939-3.0979.0938-4.599.0938-9.1958.0938-13.7948,0-14.4537-.0938-15.3918-.5629-17.3619-1.7824-7.1319-7.1319-7.1319-8.4453-7.1319-5.6309,0-9.9485,3.2834-12.4814,5.2557-.0938,16.3277.0938,24.869.75,35.8494l-.5629.5629c-4.599.0938-5.35.0938-9.8547.3752l-.469-.6567c.0938-5.2556.2814-10.3237.2814-17.268,0-15.0165-.6567-22.9927-1.1257-29.28l.5628-.6566c4.6928-.8443,5.5372-1.032,9.9485-1.8763l.6567.6567-.0938,4.8782c2.4391-1.6886,8.2577-5.8185,16.5175-5.8185a16.2258,16.2258,0,0,1,7.7886,1.7846,12.7077,12.7077,0,0,1,5.4433,6.1c1.22,2.8144,1.3134,5.6309,1.4072,11.45v10.98c.2815,10.9782.3753,15.202.6567,18.769Z"/><path class="cls-1" d="M607.5988,931.1765c-.2814,3.0958-.2814,3.7525-.3752,6.4753l-.4691.5628a25.5322,25.5322,0,0,1-7.04.8444c-2.2515,0-8.1639,0-11.072-4.88-1.6908-2.7205-1.6908-4.9742-1.6908-16.0484l.1876-20.6453c-3.2835,0-3.3773.0938-6.7567.1876l-.3752-.5629c.1876-3.0041.1876-3.7546.1876-6.7566l.5629-.5629c2.066,0,3.2856.0938,6.3814,0-.0938-1.9722-.0938-4.0361-.0938-6.0062q-.1407-2.6769-.2815-5.35l.4691-.6566c4.2237-1.0342,5.2557-1.3156,9.5732-2.629l.6567.4691c-.2814,6.1938-.3752,7.4133-.3752,14.266,3.9423-.0938,5.068-.0938,10.4175-.2814l.4691.5629c-.1877,2.4391-.2815,3.471-.2815,6.6628l-.469.5629c-4.6928-.0938-5.2557-.1876-10.23-.1876l-.1876,17.4556c.0938,1.1258.0938,6.4752.0938,7.7886,0,6.8505.8443,9.01,5.5371,9.01a12.7881,12.7881,0,0,0,4.5052-.8465Z"/><path class="cls-1" d="M643.998,938.8713l-.4691-.6567c.1877-4.5051.2815-8.8227.2815-17.3618,0-4.0361.0938-23.6494.0938-28.0608,0-9.8547-.2814-14.9205-.6567-19.801l.4691-.6566,12.5752-.1877c1.8784-.0938,4.7866-.0938,7.3217-.0938,5.535,0,11.4473.1876,16.14,2.9082a14.2009,14.2009,0,0,1,7.4134,12.8567c0,3.2856-.9381,12.669-13.9824,15.8608a22.3756,22.3756,0,0,1,8.6351,1.6886c8.07,3.5671,8.9143,10.699,8.9143,14.1722,0,8.633-5.35,14.7329-12.8566,17.4535-4.9743,1.7846-9.9485,1.7846-17.3619,1.7846Zm10.1361-38.1969c8.4453.0938,14.9205,0,18.8628-3.0958a10.925,10.925,0,0,0,3.8485-8.1638,9.8633,9.8633,0,0,0-2.6289-6.6651c-3.2834-3.19-9.102-3.19-11.2618-3.19-3.002,0-5.9124.0938-8.8206.2814Zm0,7.8846c0,10.699,0,12.2938.3753,22.5215h1.7824c7.0381,0,12.7628.096,16.4237-1.4071a10.625,10.625,0,0,0,7.0381-10.3216c0-10.98-12.1061-11.0742-16.6113-11.0742-.8443,0-1.6886,0-6.7567.1876Z"/><path class="cls-1" d="M722.1917,899.5487a9.6587,9.6587,0,0,0-3.7547-.8443,7.0065,7.0065,0,0,0-3.9423,1.22c-3.8463,2.7228-3.8463,6.8505-3.8463,16.6114,0,10.6051.2815,16.1422.6567,21.3979l-.469.6567c-4.4114,0-5.4433.0938-9.9485.2814l-.4691-.5628c.0938-7.132.1876-13.6094.1876-22.3361,0-15.0165-.2814-18.8629-.8443-24.3062l.5629-.6566c3.5671-.6567,5.8186-1.1258,9.7609-1.8763l.5628.5629-.469,7.9762c1.1257-3.0042,3.471-9.01,11.4494-9.01a9.7246,9.7246,0,0,1,2.6268.2814l.3752.5651c-.9381,4.503-1.1257,5.4411-1.7824,9.571Z"/><path class="cls-1" d="M765.54,919.258c0,11.6349.0938,12.669.5629,18.769l-.4691.4691c-4.4114.0938-5.1619.1876-9.4772.3752l-.3775-.5628.0938-3.38a20.103,20.103,0,0,1-13.1381,4.7866c-9.3834,0-15.9524-6.3814-15.9524-15.6732,0-12.5752,10.5091-16.6091,27.4019-18.5814l1.5948-.1876c0-2.5329,0-4.3175-.8443-5.8185-.9381-1.6887-3.0958-3.4711-7.7886-3.4711-6.1,0-10.3237,1.8762-14.2638,3.5649l-.75-.4691c.1876-4.3175.1876-4.88.2814-6.8505l.5629-.5629a48.3825,48.3825,0,0,1,16.2339-3.0979c6.9465,0,13.7031,2.3475,15.6732,9.667.6567,2.6267.6567,7.7886.6567,11.7309Zm-10.5114-6.8527c-9.4772,1.4094-18.3,2.7228-18.3,11.0743,0,.469,0,8.5412,8.9165,8.5412a14.6368,14.6368,0,0,0,10.2277-4.13V912.2177Z"/><path class="cls-1" d="M818.7792,938.4961c-4.5052.0938-5.068.0938-9.3856.3752l-.6567-.6567c0-1.0319.0938-2.066.0938-3.0979.0938-4.599.0938-9.1958.0938-13.7948,0-14.4537-.0938-15.3918-.5628-17.3619-1.7825-7.1319-7.132-7.1319-8.4453-7.1319-5.631,0-9.9485,3.2834-12.4814,5.2557-.0939,16.3277.0938,24.869.7505,35.8494l-.5629.5629c-4.599.0938-5.35.0938-9.8547.3752l-.469-.6567c.0938-5.2556.2814-10.3237.2814-17.268,0-15.0165-.6567-22.9927-1.1258-29.28l.5629-.6566c4.6928-.8443,5.5371-1.032,9.9485-1.8763l.6567.6567-.0938,4.8782c2.4391-1.6886,8.2576-5.8185,16.5175-5.8185a16.2258,16.2258,0,0,1,7.7886,1.7846,12.7082,12.7082,0,0,1,5.4433,6.1c1.22,2.8144,1.3134,5.6309,1.4072,11.45v10.98c.2814,10.9782.3752,15.202.6567,18.769Z"/><path class="cls-1" d="M865.5239,927.4219c-.3752,4.0361-.469,4.5051-.75,8.3514l-.6567.6567a26.4279,26.4279,0,0,1-12.9505,3.1918c-14.1722,0-23.368-10.23-23.368-24.869,0-14.9227,9.0082-26.1845,23.5556-26.1845a30.8654,30.8654,0,0,1,12.8567,3.0041l.3752.6567c-.3752,3.38-.469,4.599-.6567,7.4134l-.75.3752a17.7952,17.7952,0,0,0-10.4175-3.6587c-7.7886,0-14.6413,6.0062-14.6413,18.0186,0,12.7628,7.2279,17.3618,14.5475,17.3618a18.6048,18.6048,0,0,0,12.1062-4.6928Z"/><path class="cls-1" d="M914.3151,938.4961c-4.5052.0938-5.068.0938-9.3856.3752l-.6567-.6567.0938-3.0979c.0939-4.88.0939-9.8525.0939-14.733l-.0939-10.0422a28.8433,28.8433,0,0,0-.469-6.3815c-1.032-4.3175-3.6587-7.1319-8.4453-7.1319-5.35,0-9.4794,3.002-12.5752,5.2557-.0939,16.3277.0938,24.869.6566,35.8494l-.469.5629c-4.3176.0938-5.4433.0938-10.0423.3752l-.4691-.6567c.1877-6.6628.4691-15.11.4691-33.1288,0-7.8824-.0938-15.7649-.1876-23.6495-.1877-8.2576-.4691-10.98-.75-15.2019l.469-.5629c4.5052-.7527,6.0062-1.0341,10.23-1.9722l.5629.6566c-.5629,10.0423-.5629,20.1784-.5629,30.3123,3.002-1.97,8.9144-5.8185,16.799-5.8185a15.9087,15.9087,0,0,1,6.2876,1.1279,12.5817,12.5817,0,0,1,7.6948,8.9144c.4691,1.8762.4691,3.0042.6567,9.2918v10.98l.0938,4.4092c.1876,7.8846.1876,9.1979.5629,14.36Z"/><rect class="cls-2" y="465.5137" width="1200" height="6.7021"/><g id="CS"><path class="cls-3" d="M395.56,312.4815a2.8116,2.8116,0,0,1-.6331-.0682,3.0249,3.0249,0,0,1-2.328-3.589L457.8784,2.4a3.0277,3.0277,0,0,1,5.9222,1.2633l-65.2817,306.419a3.0322,3.0322,0,0,1-2.9585,2.3989Z"/><path class="cls-4" d="M534.6117,78.4505c-7.3633-.0786-9.2246-.0786-16.8963.232l-.3111-.3878c0-6.975.0792-13.8724.1582-20.7712.0737-4.4163.1529-8.8354.1529-13.2556,0-6.8188-.1529-11.8561-.4667-20.1515l.3875-.3878c7.5981.0786,9.2246.0786,16.82-.2306l.311.3878c-.2319,7.75-.3875,12.4012-.3875,21.3149,0,10.9274.232,22.0119.5431,32.862l-.3111.3878Z"/><path class="cls-4" d="M563.1233,55.8188V66.5145c6.0451,0,11.7028-.1559,19.6855-.4651l.4667.4651-.7778,11.47-.6959.4664c-10.6192,0-12.4014-.0786-14.7267-.0786-8.5231,0-12.9444.1572-20.3077.3106l-.3875-.5412c.2347-8.9137.3111-13.719.3111-24.2612,0-18.6-.1556-21.7788-.5431-29.6851l.4667-.4664h34.8761l.3875.3131-.54,10.694-.4666.3878H562.9678v9.8428l16.9727-.31.4667.5449-.62,10.1517-.5432.4664Z"/><path class="cls-4" d="M608.2939,55.8188V66.5145c6.0423,0,11.7026-.1559,19.6854-.4651l.464.4651-.7751,11.47-.6987.4664c-10.6165,0-12.4013-.0786-14.7238-.0786-8.526,0-12.9445.1572-20.3078.3106l-.3876-.5412c.2348-8.9137.3085-13.719.3085-24.2612,0-18.6-.1528-21.7788-.54-29.6851l.4667-.4664h34.876l.3876.3131-.5432,10.694-.4639.3878H608.1355v9.8428l16.9754-.31.4667.5449-.6222,10.1517-.5431.4664Z"/><path class="cls-4" d="M653.4589,55.8188V66.5145c6.0505,0,11.7081-.1559,19.6882-.4651l.4667.4651-.7751,11.47-.6987.4664c-10.6137,0-12.3986-.0786-14.7238-.0786-8.526,0-12.9473.1572-20.3105.3106l-.3848-.5412c.2347-8.9137.3084-13.719.3084-24.2612,0-18.6-.1556-21.7788-.54-29.6851l.4667-.4664h34.876l.3875.3131-.543,10.694-.464.3878H653.306v9.8428l16.9782-.31.4585.5449-.6168,10.1517-.5431.4664Z"/><path class="cls-4" d="M537.1417,122.8489a22.8463,22.8463,0,0,0-10.3846-2.6107,22.3486,22.3486,0,0,0-19.71,11.5045,23.7833,23.7833,0,0,0-2.983,11.8255,24.0652,24.0652,0,0,0,2.983,11.8788,22.4655,22.4655,0,0,0,8.2011,8.5207,21.8707,21.8707,0,0,0,11.5089,3.1449,24.0311,24.0311,0,0,0,10.1717-2.3987,31.9533,31.9533,0,0,0,9.2164-6.4444l9.9069,10.7594a44.9336,44.9336,0,0,1-14.0089,9.8026,39.0592,39.0592,0,0,1-16.14,3.6219,39.7247,39.7247,0,0,1-19.92-5.0663,36.9234,36.9234,0,0,1-14.0634-13.8965,38.6576,38.6576,0,0,1-5.1118-19.7092,37.2,37.2,0,0,1,19.5464-33.2364,41.2069,41.2069,0,0,1,20.1877-5.0081,42.0562,42.0562,0,0,1,29.4013,12.4653L546.1452,130.04a28.3681,28.3681,0,0,0-9.0035-7.1908Z"/><path class="cls-4" d="M589.1814,123.382a22.897,22.897,0,0,0-8.4167,8.5739,24.1756,24.1756,0,0,0,8.4686,32.5981,21.7015,21.7015,0,0,0,11.4543,3.1982A21.4244,21.4244,0,0,0,612.03,164.61a22.8452,22.8452,0,0,0,8.2038-8.63,24.543,24.543,0,0,0,3.0376-12.0919,24.0414,24.0414,0,0,0-3.0376-11.9321,22.9642,22.9642,0,0,0-8.2038-8.5739,21.4139,21.4139,0,0,0-11.3425-3.1438,22.223,22.223,0,0,0-11.5062,3.1438Zm31.6366-12.837a38.0852,38.0852,0,0,1,0,66.8421,43.3872,43.3872,0,0,1-40.6919,0,37.5418,37.5418,0,0,1-19.7074-33.4991,37.4761,37.4761,0,0,1,19.6528-33.343,43.9438,43.9438,0,0,1,40.7465,0Z"/><polygon class="cls-4" points="652.67 106.71 671.42 106.71 694.645 152.518 717.654 106.71 736.3 106.71 736.3 181.281 721.172 181.281 721.172 130.893 699.972 173.717 689.107 173.717 667.798 130.893 667.798 181.281 652.67 181.281 652.67 106.71 652.67 106.71"/><path class="cls-4" d="M795.58,142.6621q3.7786-3.2463,3.7826-9.5335,0-6.1766-3.7826-9.3229-3.7829-3.1381-10.9194-3.141H770.7068v25.2462H784.661q7.1355,0,10.9194-3.2488Zm11.9864-29.1881q7.7783,6.7665,7.7754,19.1217,0,12.9967-7.83,20.1887-7.8314,7.1882-22,7.1907H770.7068v21.3057H753.8705V106.71h31.642q14.2749,0,22.0543,6.7643Z"/><path class="cls-4" d="M847.2463,163.1175q4.536,4.6334,12.093,4.6347,7.3523,0,11.7163-4.5841,4.3682-4.5773,4.3694-12.6758V106.71h16.8335v43.7826a34.46,34.46,0,0,1-3.9927,16.9908,27.16,27.16,0,0,1-11.4572,11.0793,37.4608,37.4608,0,0,1-17.573,3.891,38.1385,38.1385,0,0,1-17.6878-3.891,27.3127,27.3127,0,0,1-11.6072-11.0793,34.0379,34.0379,0,0,1-4.05-16.9908V106.71h16.8308v43.7826q0,7.9915,4.525,12.6252Z"/><polygon class="cls-4" points="901.098 106.71 963.419 106.71 963.419 120.983 940.619 120.983 940.619 181.281 923.786 181.281 923.786 120.983 901.098 120.983 901.098 106.71 901.098 106.71"/><polygon class="cls-4" points="973.539 106.71 1030.319 106.71 1030.319 120.665 990.372 120.665 990.372 136.857 1026.274 136.857 1026.274 150.812 990.372 150.812 990.372 167.326 1031.493 167.326 1031.493 181.281 973.539 181.281 973.539 106.71 973.539 106.71"/><path class="cls-4" d="M1062.5969,145.9109h15.5509q7.033,0,10.8156-3.2488,3.7825-3.2463,3.78-9.5335,0-6.1766-3.78-9.3229-3.7908-3.1381-10.8156-3.141h-15.5509v25.2462Zm28.9756,35.37-11.8254-21.3057h-17.15v21.3057h-16.8308V106.71h32.3817q14.5983,0,22.5839,6.7643,7.995,6.7665,7.9936,19.1217a28.8524,28.8524,0,0,1-3.5724,14.7543,22.9289,22.9289,0,0,1-10.3818,9.3205l15.8675,24.61Z"/><path class="cls-4" d="M503.0515,228.4175a37.0345,37.0345,0,0,0-11.0258-2.076,13.01,13.01,0,0,0-6.9266,1.5963,5.1928,5.1928,0,0,0-2.5545,4.6882,6.5652,6.5652,0,0,0,3.6734,6.018,56.5135,56.5135,0,0,0,11.3479,4.3124,97.802,97.802,0,0,1,12.6224,4.48,22.35,22.35,0,0,1,8.4686,6.7083q3.5166,4.4772,3.5152,11.8281a20.2672,20.2672,0,0,1-3.78,12.301,23.3382,23.3382,0,0,1-10.3872,7.83,39.8672,39.8672,0,0,1-15.0214,2.6637,51.4359,51.4359,0,0,1-17.7887-3.1959,47.9951,47.9951,0,0,1-15.1278-8.7389l6.7111-13.741a45.4316,45.4316,0,0,0,12.9963,8.206,34.97,34.97,0,0,0,13.4247,3.087q5.2155,0,8.1466-1.9142a6.7018,6.7018,0,0,0,.9607-10.2822,15.14,15.14,0,0,0-5.008-3.0359q-3.0336-1.1671-8.3622-2.6623a95.3457,95.3457,0,0,1-12.5187-4.2643,21.9932,21.9932,0,0,1-8.3622-6.498q-3.5165-4.3614-3.5152-11.61a19.7235,19.7235,0,0,1,3.6216-11.775,22.982,22.982,0,0,1,10.1225-7.7716,38.966,38.966,0,0,1,15.1278-2.7212,52.4206,52.4206,0,0,1,15.1251,2.2387,51.1272,51.1272,0,0,1,13.212,5.9676l-6.501,13.9549a56.3383,56.3383,0,0,0-12.1967-5.5944Z"/><path class="cls-4" d="M558.5,229.91a22.9172,22.9172,0,0,0-8.4168,8.5739,24.1814,24.1814,0,0,0,8.4687,32.6008,21.74,21.74,0,0,0,11.4543,3.1964,21.4386,21.4386,0,0,0,11.3452-3.1456,22.8233,22.8233,0,0,0,8.2011-8.63,24.5228,24.5228,0,0,0,3.0376-12.0922,24.0451,24.0451,0,0,0-3.0376-11.9294,22.9373,22.9373,0,0,0-8.2011-8.5739,21.4371,21.4371,0,0,0-11.3452-3.1449A22.2444,22.2444,0,0,0,558.5,229.91Zm31.6393-12.8384a38.0938,38.0938,0,0,1,0,66.8461,43.42,43.42,0,0,1-40.6947,0,37.5411,37.5411,0,0,1-19.7073-33.5044A37.48,37.48,0,0,1,549.39,217.0718a43.95,43.95,0,0,1,40.7493,0Z"/><path class="cls-4" d="M665.08,229.3771a22.8206,22.8206,0,0,0-10.3817-2.6118,22.3754,22.3754,0,0,0-19.7128,11.5057,23.7853,23.7853,0,0,0-2.98,11.8282,24.0529,24.0529,0,0,0,2.98,11.8759,22.5174,22.5174,0,0,0,8.2039,8.5235,21.9026,21.9026,0,0,0,11.5089,3.1441,24.0178,24.0178,0,0,0,10.1689-2.3979,31.9364,31.9364,0,0,0,9.2164-6.4444l9.9069,10.7554a44.8,44.8,0,0,1-14.0061,9.8032,39.0419,39.0419,0,0,1-16.14,3.6216,39.7374,39.7374,0,0,1-19.9229-5.0627A36.9717,36.9717,0,0,1,619.86,270.0215a38.64,38.64,0,0,1-5.1117-19.7119,37.191,37.191,0,0,1,19.5463-33.2378,41.1885,41.1885,0,0,1,20.1877-5.008,42.1134,42.1134,0,0,1,29.4041,12.4653l-9.8032,12.0389a28.2716,28.2716,0,0,0-9.0036-7.1909Z"/><polygon class="cls-4" points="695.071 213.237 711.901 213.237 711.901 287.81 695.071 287.81 695.071 213.237 695.071 213.237"/><polygon class="cls-4" points="729.477 213.237 786.255 213.237 786.255 227.192 746.305 227.192 746.305 243.388 782.207 243.388 782.207 257.343 746.305 257.343 746.305 273.853 787.426 273.853 787.426 287.81 729.477 287.81 729.477 213.237 729.477 213.237"/><polygon class="cls-4" points="794.35 213.237 856.67 213.237 856.67 227.514 833.873 227.514 833.873 287.81 817.045 287.81 817.045 227.514 794.35 227.514 794.35 213.237 794.35 213.237"/><polygon class="cls-4" points="929.858 213.237 902.692 263.732 902.692 287.81 885.861 287.81 885.861 264.161 858.269 213.237 875.207 213.237 894.281 246.688 912.921 213.237 929.858 213.237 929.858 213.237"/><path class="cls-5" d="M257.8744,215.7687c.0213,17.5237,1.2579,18.1339,13.4859,18.9415l12.6145.741.5475.29c2.7133,1.4658,3.5662,4.9253,3.2076,7.71-.3851,2.9931-2.0961,5.2078-4.4655,5.7889l-.3878.0878-.4-.0158c-9.9119-.4424-27.173-.7036-46.1733-.7036-20.0291,0-37.2861.2558-47.3462.7036l-.4.0158-.3875-.0878c-2.3694-.5811-4.0793-2.7958-4.4657-5.7889-.3583-2.7851.4945-6.2446,3.2076-7.71l.5477-.29,12.6344-.741c12.2185-.8076,13.4458-1.4178,13.4674-18.9789-48.1483-5.413-78.1441-28.7283-78.1441-62.451,0-33.964,25.8712-55.7188,71.9274-61.84.1654,4.3883.2958,10.281.3891,17.056a68.2311,68.2311,0,0,0-7.8995,2.456l-1.1955.4437c-9.6014,3.5968-16.1392,10.3144-19.0189,19.48l-.1079.3064c-1.6711,4.0112-2.59,11.5884-2.59,21.34l.0013.4054-.0013.4022c0,9.7522.9194,17.3292,2.59,21.3378l.1225.3572a29.1714,29.1714,0,0,0,12.9784,16.5c9.0616,6.0312,26.3736,9.1442,43.5507,9.1442,18.7949,0,37.7447-3.7287,45.8749-10.93a29.0969,29.0969,0,0,0,10.3956-14.7575l.1078-.3143c1.6711-4.0086,2.5906-11.5856,2.5906-21.3378l-.0025-.37.0025-.4373c0-9.7518-.9195-17.329-2.5906-21.34l-.1053-.2958c-2.8836-9.1762-9.4214-15.8938-18.9082-19.4439l-1.2366-.4624a76.436,76.436,0,0,0-14.42-3.9207v85.5585a120.1037,120.1037,0,0,1-21.7081,1.8631,119.1115,119.1115,0,0,1-22.6009-2.0338v-19.813c.3917-18.4619.7888-47.7258.3437-68.4331l.0041.0038c-.0014-.4955-.3505-14.5118-.3532-14.9758-.084-13.5524-1.3725-14.9891-11.5536-16.1055l-14.3217-1.65c-2.1708-.973-3.6352-3.4475-3.82-6.454-.1837-2.989.9369-5.5981,2.9265-6.7976l.5223-.32.6065-.0693c10.4794-1.2366,23.7014-3.5728,37.2288-6.5751,7.1253-1.7,13.7431-3.8552,18.5778-5.43,4.8162-1.5712,6.8215-2.2055,8.11-2.2055a6.9305,6.9305,0,0,1,6.791,4.5828l.1719.5557-.0628.5838c-.5395,5-.8621,15.4113-.8621,27.834V90.6385C308.0483,95.5092,336.33,117.7262,336.33,153.28c0,33.7975-30.1221,57.1447-78.4554,62.4884ZM235.5492,17.7811c-80.737,0-146.1878,59.8659-146.1878,133.7107,0,73.8475,65.4508,133.7088,146.1878,133.7088s146.188-59.8613,146.188-133.7088c0-73.8448-65.4509-133.7107-146.188-133.7107Z"/><path class="cls-5" d="M337.624,276.9477h3.7032l6.1554,12.6688,6.1111-12.6688h3.7475v18.7358h-2.9V281.41l-5.934,12.3113h-2.051L340.5237,281.41v14.2736h-2.9V276.9477Zm-17.2186,0h14.4534v2.7674h-5.6649v15.9684h-3.1675V279.7151h-5.621v-2.7674Z"/></g></g></g></svg>