<svg xmlns="http://www.w3.org/2000/svg" viewBox="0 0 1200 911.9108"><defs><style>.cls-1{fill:#00629b;}.cls-2{fill:#75787b;}.cls-3{fill:#b2b2b2;}.cls-4{fill:#1d1d1b;}.cls-5{fill:#f7a400;}</style></defs><g id="Capa_2" data-name="Capa 2"><g id="Final"><path class="cls-1" d="M113.74,628.6725c7.6515,0,16.32,0,22.438,3.5706,8.4649,4.7926,9.4836,14.4815,9.4836,18.8675,0,7.1391-2.4482,12.9524-5.303,16.4193-7.3424,8.9752-19.5812,8.9752-31.0025,8.8715,0,10.4026,0,12.9524.4087,24.0688l-.51.612c-8.16-.1017-9.7926,0-17.3384.3071l-.612-.6121c.307-12.4421.612-24.7825.612-37.2246,0-11.7283-.305-20.6019-.7137-33.8593l.612-.6121,12.9525-.2033Zm-4.3839,35.1851c6.1183,0,9.8922-.2033,12.6454-1.7324,5.4067-2.9585,5.4067-8.8735,5.4067-10.3009,0-5.9151-2.4482-10.5043-11.4234-10.71-2.2448,0-4.3859,0-6.6287.1037Z"/><path class="cls-1" d="M176.2224,702.3063c-14.5853,0-19.5812-5.5063-22.2327-9.4835-3.776-5.5084-4.7947-12.1371-4.7947-18.6642,0-18.7658,9.9939-28.2494,27.7411-28.2494a36.6221,36.6221,0,0,1,12.44,1.9378c14.2782,5.608,14.2782,22.131,14.2782,26.1083C203.6543,689.2522,197.8409,702.3063,176.2224,702.3063Zm6.832-42.7309a8.5736,8.5736,0,0,0-6.5271-3.1619,8.45,8.45,0,0,0-7.4461,4.5893c-2.0374,3.5685-2.0374,10.0956-2.0374,13.0541,0,9.8923,1.9378,13.3591,3.67,15.0936a8.25,8.25,0,0,0,5.7117,2.3465c8.4648,0,9.5852-9.2823,9.5852-17.6434C186.0109,668.3452,185.5005,662.5319,183.0544,659.5754Z"/><path class="cls-1" d="M261.2194,700.9805c-8.1578,0-9.8923.1017-16.6227.3071l-.6141-.612c0-3.469.1038-7.0375.1038-10.5043,0-3.8756-.1038-17.8488-.3071-21.214-.3071-3.6723-.8154-9.6889-6.4233-9.6889-3.2656,0-5.7138,1.7344-7.8549,3.1618.1037,18.2555.2033,22.2327.8174,37.9383l-.6141.612c-8.1578,0-9.6889,0-17.0293.3071l-.6141-.612c.1038-6.5271.2054-13.0542.2054-19.5812a283.1652,283.1652,0,0,0-1.4295-31.9216l.6142-.7137c7.6474-1.0208,9.3818-1.3258,17.2346-2.9586l1.0187.7137-.2033,5.61c4.693-2.7532,10.0956-6.0167,16.32-6.0167,3.67,0,9.4836.8153,12.6434,6.1183,2.5519,4.1806,2.6514,8.8736,2.7552,18.6642v7.9545c.2033,9.9939.2033,12.8487.7137,21.8239Z"/><path class="cls-1" d="M301.8838,689.7625l-1.0207,10.5043-.7137.7137a59.2419,59.2419,0,0,1-10.71,1.2241c-15.9089,0-16.1123-10.0955-16.1123-19.48,0-2.6515.1038-5.2013.2034-7.7511l.307-16.216-6.4233.2054-.6141-.6121.917-10.913.6141-.51,5.5063.2054-.1037-12.7491.4108-.7137c7.2407-1.8361,9.0748-2.3465,16.0085-4.386l.7178.6121-.307,17.133h10.1993l.61.612-1.0208,10.913-.61.6121-9.1785-.4087-.2033,14.38a116.1,116.1,0,0,0,.2033,12.3405c.2033,1.5311.61,4.7946,5.8133,4.7946a15.2843,15.2843,0,0,0,4.6889-.9191Z"/><path class="cls-1" d="M325.9589,701.0822c-8.2616-.1017-10.3031,0-17.6434.3071l-.6141-.7137c.307-8.3632.6141-14.5853.6141-25.7016,0-14.4816-.3071-18.05-1.1245-25.8012l.6141-.6121,17.54-3.06.7138.8154c-.1,8.67-.3071,17.44-.3071,26.1082,0,14.0749.4108,20.0916.9212,27.9444Zm-1.4316-64.6586c-7.2408.9191-9.1785,1.1225-16.1122,2.3465l-.7137-.612c.1037-1.9378.1037-3.9772.1037-5.915,0-2.4482-.1037-4.5893-.3071-8.2615l.61-.7137,16.6268-2.04.61.612-.307,13.8695Z"/><path class="cls-1" d="M357.0506,700.9805c-7.6516,0-10.3031.1017-17.2368.4088l-.6141-.7137c.6141-18.1538.6141-22.7431.6141-42.0193l-7.7511.2054-.6141-.612,1.0207-10.8114.6141-.51,6.6267.1017-.1-6.1183c0-5.1-.1037-12.4421,6.22-17.1331,4.0789-3.06,9.3819-3.6722,14.5853-3.6722,2.3444,0,4.6888.1016,7.137.307l.51.7137-.917,11.523-.7137.4087c-1.0208-.1016-2.0416-.3049-3.0623-.3049-6.6267,0-6.73,5.71-6.73,11.9317l-.1,2.3444h9.2781l.51.612-.917,10.8114-.7137.7137-8.0582-.4087c-.1,18.0521,0,23.05,1.0207,41.6105Z"/><path class="cls-1" d="M391.0386,701.0822c-8.2615-.1017-10.303,0-17.6434.3071l-.6141-.7137c.307-8.3632.6141-14.5853.6141-25.7016,0-14.4816-.3071-18.05-1.1245-25.8012l.6141-.6121,17.54-3.06.7137.8154c-.1,8.67-.3071,17.44-.3071,26.1082,0,14.0749.4108,20.0916.9212,27.9444Zm-1.4316-64.6586c-7.2407.9191-9.1785,1.1225-16.1122,2.3465l-.7137-.612c.1037-1.9378.1037-3.9772.1037-5.915,0-2.4482-.1037-4.5893-.307-8.2615l.61-.7137,16.6268-2.04.61.612-.3071,13.8695Z"/><path class="cls-1" d="M442.1181,686.9077l-.4066,12.2367-.6141.6121c-4.2822,1.224-7.7512,2.2448-13.1537,2.2448-22.9464,0-29.0668-15.911-29.0668-27.6394,0-10.4026,4.693-28.5543,28.656-28.5543,5.9171,0,9.7927,1.222,14.2782,2.6515l.51.612c-.8133,5.4047-.9171,6.8321-1.3237,12.2367l-1.0208.3071c-3.0581-2.04-5.5063-3.6723-9.9959-3.6723-9.8923,0-13.1538,8.5665-13.1538,16.0127,0,6.1183,2.3445,15.7056,13.8675,15.7056,5.2033,0,7.8548-1.6328,10.6059-3.2635Z"/><path class="cls-1" d="M467.8529,701.0822c-8.2615-.1017-10.2989,0-17.6434.3071l-.61-.7137c.3029-8.3632.61-14.5853.61-25.7016,0-14.4816-.307-18.05-1.12-25.8012l.61-.6121,17.5438-3.06.7137.8154c-.1038,8.67-.3071,17.44-.3071,26.1082,0,14.0749.4067,20.0916.917,27.9444Zm-1.4274-64.6586c-7.2407.9191-9.1785,1.1225-16.1122,2.3465l-.7137-.612c.1-1.9378.1-3.9772.1-5.915,0-2.4482-.1-4.5893-.3071-8.2615l.6141-.7137,16.6227-2.04.6141.612-.3071,13.8695Z"/><path class="cls-1" d="M523.75,678.2375c0,9.5873,0,12.1371.7137,22.131l-.51.7137c-6.6308-.1017-8.8756,0-16.216.3071l-.6141-.7137v-3.7739a21.0806,21.0806,0,0,1-14.1745,5.4046c-9.996,0-17.8467-7.0375-17.8467-17.9484a16.3135,16.3135,0,0,1,7.6474-13.9732c6.12-3.7739,11.83-4.8943,24.0709-6.5271,0-1.529-.3071-3.3652-1.3278-4.3839-1.3237-1.3278-2.8548-1.9377-6.6267-1.9377-6.8341,0-13.4649,2.6515-17.0334,4.0789l-.8174-.4088.51-11.1163.6141-.8154c5.8134-1.7344,11.216-3.3652,19.9879-3.3652,13.0541,0,17.133,4.0789,19.1745,7.3425,2.6515,4.2843,2.6515,8.2615,2.5478,17.44Zm-16.7264-3.67c-6.9337.917-14.9919,2.0395-14.9919,8.77,0,4.2843,3.0581,6.2221,6.73,6.2221a16.5347,16.5347,0,0,0,8.2615-2.6515Z"/><path class="cls-1" d="M624.1954,629.3862l-.3071,30.2909V670.08c-.2033,12.9525-.61,18.8675-6.0167,24.5771-7.5478,7.9565-18.7637,7.9565-22.436,7.9565-13.6682,0-21.5189-5.1-25.3945-10.608-3.5685-4.8942-4.1827-10.4026-4.49-21.4152v-7.5478c-.1-15.909-.1-18.7659-.5062-33.349l.61-.6121c6.9337.1017,9.2823.1017,17.9505-.307l.51.612c-.2034,10.0976-.3071,17.95-.3071,26.212,0,5.4046,0,10.8093.2033,16.2139.2033,6.4254.8175,9.996,2.3445,12.6475a12.0486,12.0486,0,0,0,10.4026,5.4046,11.7745,11.7745,0,0,0,8.9752-3.6722c2.7552-3.2636,3.0623-8.1578,3.0623-18.8654,0-12.5459-.51-25.09-1.0208-37.6333l.61-.6121c5.8134.1017,7.8549.1017,15.299-.307Z"/><path class="cls-1" d="M684.1754,700.9805c-8.1619,0-9.8922.1017-16.6267.3071l-.61-.612c0-3.469.1037-7.0375.1037-10.5043,0-3.8756-.1037-17.8488-.307-21.214-.3071-3.6723-.8175-9.6889-6.4275-9.6889-3.2615,0-5.71,1.7344-7.8507,3.1618.1,18.2555.2033,22.2327.8174,37.9383l-.6141.612c-8.1578,0-9.689,0-17.0335.3071l-.61-.612c.1037-6.5271.2033-13.0542.2033-19.5812a283.3106,283.3106,0,0,0-1.4274-31.9216l.6141-.7137c7.6474-1.0208,9.3819-1.3258,17.2326-2.9586l1.0208.7137-.2033,5.61c4.6888-2.7532,10.0955-6.0167,16.3155-6.0167,3.6723,0,9.4856.8153,12.6475,6.1183,2.5519,4.1806,2.6515,8.8736,2.7552,18.6642v7.9545c.2034,9.9939.2034,12.8487.7137,21.8239Z"/><path class="cls-1" d="M712.7858,701.0822c-8.2615-.1017-10.2989,0-17.6434.3071l-.61-.7137c.3029-8.3632.61-14.5853.61-25.7016,0-14.4816-.3071-18.05-1.12-25.8012l.61-.6121,17.5438-3.06.7137.8154c-.1037,8.67-.307,17.44-.307,26.1082,0,14.0749.4066,20.0916.917,27.9444Zm-1.4274-64.6586c-7.2408.9191-9.1786,1.1225-16.1123,2.3465l-.7137-.612c.1-1.9378.1-3.9772.1-5.915,0-2.4482-.1-4.5893-.307-8.2615l.6141-.7137,16.6226-2.04.6141.612-.307,13.8695Z"/><path class="cls-1" d="M752.222,701.0822c-7.3445-.1017-9.996,0-16.6268.3071l-.7137-.7137c-2.2407-8.3632-3.3652-12.1371-16.93-52.32l.4108-.8153a134.2655,134.2655,0,0,0,17.8468-1.12l.7137.61c1.4274,6.7325,1.834,8.67,4.3859,18.1538l1.9378,7.8528,2.5477,11.0147,5.2034-20.0916c2.0374-7.9545,2.3445-9.3819,3.7719-16.2139l.7137-.7158,14.2782-.305.51.7137c-2.8548,8.3632-7.3445,21.6206-10.0956,29.8822-2.1453,6.4254-4.0789,12.747-7.3445,22.9463Z"/><path class="cls-1" d="M819.4844,686.2957l-.7137,11.523-.61.8174c-5.4067,2.1411-9.079,3.67-17.5438,3.67-7.34,0-21.2119-1.2241-27.129-14.9919a33.9559,33.9559,0,0,1-2.444-13.3591c0-17.6434,10.6059-28.1477,26.6144-28.1477a26.15,26.15,0,0,1,7.2449.917c3.4648.8154,11.32,3.2635,14.8882,15.2969,1.4274,5.1,1.5312,10.1993,1.6307,15.1973l-.61.7137-32.9424.6121a14.3972,14.3972,0,0,0,2.2449,6.22c2.4481,3.6722,6.6266,5.61,12.747,5.61,7.4441,0,12.0334-2.3465,15.909-4.386Zm-14.5812-18.9691c0-2.3466-.1037-4.7947-1.5311-7.0375a7.8253,7.8253,0,0,0-10.6059-2.4482c-3.8756,2.4482-4.5893,6.73-4.8964,9.8923Z"/><path class="cls-1" d="M858.211,663.6543a7.6368,7.6368,0,0,0-4.1784-1.4274c-6.9379,0-6.9379,6.73-6.9379,11.32,0,7.0374.6141,18.5625,1.0208,26.8219l-.51.7137c-8.1578-.1017-9.7885,0-17.3364.3071l-.6141-.6121c.2075-8.4648.3071-16.828.3071-25.1912,0-14.1765-.3071-18.7658-.917-26.4132l.61-.6121c7.4483-1.1224,9.3861-1.4274,16.93-3.06l.8175.8154-.3071,9.3839c3.2656-7.5478,7.9545-9.8922,12.1371-9.8922.7137,0,1.4274.1016,2.1411.1016l.6141.7137-2.8548,16.6227Z"/><path class="cls-1" d="M893.8049,667.7332c5.6059,2.1411,13.4608,5.1,13.4608,16.3177a17.0167,17.0167,0,0,1-.1038,2.2448c-1.834,14.5832-17.133,16.0106-24.8841,16.0106-7.4441,0-11.7263-1.6307-16.7223-3.4669l-.51-.9191c.4066-5.0975.51-6.22.7137-11.5229l.917-.4088a22.6234,22.6234,0,0,0,4.0789,2.8569A25.539,25.539,0,0,0,881.5641,691.7c5.7137,0,8.0582-2.7531,8.0582-5.3029,0-3.6723-4.4856-5.2014-7.2408-6.12l-3.8756-1.4274c-4.7926-1.8361-13.2574-5.1-13.2574-16.0106A15.3451,15.3451,0,0,1,868,653.8637c5.3029-7.6495,15.2989-8.0561,20.2948-8.0561,6.6308,0,10.8135,1.222,15.6061,2.5477l.51.6121L903.39,660.0837l-.917.3071c-2.5519-1.6328-6.5271-4.2843-12.7471-4.2843-6.3237,0-7.1412,3.3672-7.1412,4.5893,0,2.8568,2.7552,3.9772,6.22,5.2013Z"/><path class="cls-1" d="M931.4486,636.4236c-7.2408.9191-9.1786,1.1225-16.1123,2.3465l-.7137-.612c.1037-1.9378.1037-3.9772.1037-5.915,0-2.4482-.1037-4.5893-.307-8.2615l.61-.7137,16.6267-2.04.61.612-.3071,13.8695Zm1.4315,64.6586c-8.2615-.1017-10.303,0-17.6434.3071l-.6141-.7137c.3071-8.3632.6141-14.5853.6141-25.7016,0-14.4816-.307-18.05-1.1245-25.8012l.6141-.6121,17.54-3.06.7137.8154c-.1,8.67-.307,17.44-.307,26.1082,0,14.0749.4107,20.0916.9211,27.9444Z"/><path class="cls-1" d="M992.8727,701.0822c-7.6516,0-9.5894,0-16.6227.3071l-.51-.6121.2034-3.9772c-2.4482,2.1411-6.22,5.5063-13.4608,5.5063a21.4905,21.4905,0,0,1-13.3612-4.4876c-6.0167-4.9959-8.1578-12.9525-8.1578-20.907,0-10.5042,2.9544-18.9691,10.0956-24.4754,7.7511-6.12,17.3363-5.915,24.9837-5.7117.1038-11.6267,0-14.1765-.61-23.7617l.51-.6121,16.8259-2.6515.7137.6121c-.4066,13.4607-.8133,24.5771-.8133,51.5007,0,13.3612.3029,19.48.7137,28.6581Zm-20.2949-42.4259c-11.4234,0-13.6683,8.7719-13.6683,16.6247,0,2.04,0,14.6849,9.8923,14.6849,2.8589,0,4.8963-1.2241,6.9378-2.4482.3029-12.3383.4067-14.99.3029-28.5543A22.6449,22.6449,0,0,0,972.5778,658.6563Z"/><path class="cls-1" d="M1048.8651,678.2375c0,9.5873,0,12.1371.7137,22.131l-.51.7137c-6.6267-.1017-8.8715,0-16.216.3071l-.61-.7137v-3.7739a21.0806,21.0806,0,0,1-14.1745,5.4046c-9.996,0-17.8508-7.0375-17.8508-17.9484a16.3085,16.3085,0,0,1,7.6515-13.9732c6.1163-3.7739,11.83-4.8943,24.0667-6.5271,0-1.529-.307-3.3652-1.3236-4.3839-1.3279-1.3278-2.859-1.9377-6.6308-1.9377-6.8342,0-13.4608,2.6515-17.0293,4.0789l-.8175-.4088.51-11.1163.61-.8154c5.8134-1.7344,11.22-3.3652,19.992-3.3652,13.0541,0,17.133,4.0789,19.17,7.3425,2.6515,4.2843,2.6515,8.2615,2.5519,17.44Zm-16.7263-3.67c-6.9337.917-14.992,2.0395-14.992,8.77,0,4.2843,3.0623,6.2221,6.73,6.2221a16.5214,16.5214,0,0,0,8.2616-2.6515Z"/><path class="cls-1" d="M1108.7664,701.0822c-7.6516,0-9.5894,0-16.6227.3071l-.51-.6121.2033-3.9772c-2.4482,2.1411-6.22,5.5063-13.4608,5.5063a21.4905,21.4905,0,0,1-13.3612-4.4876c-6.0167-4.9959-8.1578-12.9525-8.1578-20.907,0-10.5042,2.9544-18.9691,10.0956-24.4754,7.7512-6.12,17.3364-5.915,24.9838-5.7117.1037-11.6267,0-14.1765-.61-23.7617l.51-.6121,16.8259-2.6515.7137.6121c-.4066,13.4607-.8132,24.5771-.8132,51.5007,0,13.3612.3029,19.48.7137,28.6581Zm-20.2949-42.4259c-11.4234,0-13.6683,8.7719-13.6683,16.6247,0,2.04,0,14.6849,9.8923,14.6849,2.859,0,4.8963-1.2241,6.9379-2.4482.3029-12.3383.4066-14.99.3029-28.5543A22.6461,22.6461,0,0,0,1088.4715,658.6563Z"/><path class="cls-1" d="M144.7447,793.71l-.7137,15.1953-.51.612a43.2587,43.2587,0,0,1-17.44,3.5706c-24.8842,0-36.8159-17.2367-36.8159-36.8179,0-17.8468,9.1786-38.2433,35.5918-38.2433a49.2122,49.2122,0,0,1,18.8675,3.7718l.4087.51-.9191,14.0749-.917.2033a21.8661,21.8661,0,0,0-14.3778-4.8942c-16.6247,0-19.6849,15.3985-19.6849,24.17,0,14.4816,8.1578,23.15,19.7845,23.15a24.9217,24.9217,0,0,0,16.0126-5.7117Z"/><path class="cls-1" d="M198.5961,788.712c0,9.5873,0,12.1371.7137,22.1311l-.51.7137c-6.6266-.1017-8.8715,0-16.216.307l-.61-.7137v-3.7739a21.0922,21.0922,0,0,1-14.1766,5.4046c-9.9939,0-17.8488-7.0374-17.8488-17.9483A16.3088,16.3088,0,0,1,157.6,780.8592c6.1183-3.7739,11.83-4.8942,24.0667-6.527,0-1.5291-.305-3.3652-1.3237-4.386-1.3278-1.3257-2.8568-1.9357-6.6308-1.9357-6.8341,0-13.4607,2.6515-17.0313,4.0789l-.8154-.4087.51-11.1163.61-.8154c5.8133-1.7345,11.22-3.3652,19.99-3.3652,13.0541,0,17.1351,4.0789,19.1724,7.3424,2.6515,4.2843,2.6515,8.2616,2.5519,17.44Zm-16.7264-3.67c-6.9337.917-14.9919,2.0394-14.9919,8.77,0,4.2843,3.0623,6.2221,6.7325,6.2221a16.5266,16.5266,0,0,0,8.2594-2.6515Z"/><path class="cls-1" d="M239.2232,800.2371l-1.0207,10.5043-.7137.7137a59.2519,59.2519,0,0,1-10.71,1.2241c-15.909,0-16.1123-10.0977-16.1123-19.48,0-2.6515.1017-5.2014.2033-7.7512l.3071-16.216-6.4275.2054-.61-.612.917-10.913.612-.51,5.5084.2054-.1037-12.7492.4087-.7137c7.2407-1.8361,9.0769-2.3465,16.0106-4.3859l.7137.612-.305,17.133h10.1972l.6141.6121-1.0207,10.913-.6121.612-9.1785-.4087-.2054,14.38a117.7384,117.7384,0,0,0,.2054,12.34c.2054,1.5312.612,4.7947,5.8134,4.7947a15.3092,15.3092,0,0,0,4.6909-.9191Z"/><path class="cls-1" d="M269.6469,812.7808c-14.5811,0-19.5791-5.5063-22.2306-9.4835-3.7739-5.5084-4.7947-12.1371-4.7947-18.6641,0-18.7659,9.996-28.2494,27.739-28.2494a36.6264,36.6264,0,0,1,12.4441,1.9378c14.2782,5.6079,14.2782,22.131,14.2782,26.1082C297.0829,799.7267,291.27,812.7808,269.6469,812.7808ZM276.481,770.05a8.57,8.57,0,0,0-6.5271-3.1619,8.4492,8.4492,0,0,0-7.444,4.5893c-2.04,3.5685-2.04,10.0955-2.04,13.0541,0,9.8922,1.9378,13.3591,3.67,15.0936a8.255,8.255,0,0,0,5.7138,2.3465c8.4648,0,9.5851-9.2823,9.5851-17.6434C279.44,778.82,278.9292,773.0064,276.481,770.05Zm9.2823-36.5109c-3.2656,4.9959-7.8549,12.0333-11.0168,17.2347l-.7137.4087H263.02l-.4087-.6121a111.1455,111.1455,0,0,0,6.2221-17.0313l.51-.51,16.1122-.2033Z"/><path class="cls-1" d="M322.5231,811.5568c-7.4441-.1017-10.1993,0-17.0334.307l-.61-.7137c.4067-10.0976.61-16.216.61-27.2306,0-6.0167,0-12.0355-.1-18.0522-.2075-16.5209-.307-19.8861-1.3278-32.3282l.4066-.6121,17.44-2.7531.7137.7137c-.4066,11.0147-.51,15.6039-.51,25.2908,0,32.2287.51,42.9363,1.0208,54.6647Z"/><path class="cls-1" d="M351.1584,811.5568c-8.2615-.1017-10.3031,0-17.6434.307l-.6141-.7137c.307-8.3632.6141-14.5852.6141-25.7016,0-14.4815-.3071-18.05-1.1245-25.8012l.6141-.612,17.54-3.06.7137.8153c-.1,8.67-.3071,17.44-.3071,26.1083,0,14.0749.4108,20.0916.9212,27.9444Zm-1.4316-64.6586c-7.2407.9191-9.1785,1.1224-16.1122,2.3465l-.7137-.612c.1037-1.9378.1037-3.9773.1037-5.9151,0-2.4481-.1037-4.5892-.3071-8.2615l.61-.7137,16.6268-2.0394.61.612-.3071,13.8695Z"/><path class="cls-1" d="M402.2379,797.3823l-.4108,12.2367-.61.612c-4.2822,1.2241-7.7512,2.2449-13.1579,2.2449-22.9464,0-29.0668-15.911-29.0668-27.6394,0-10.4027,4.693-28.5544,28.66-28.5544,5.9129,0,9.7885,1.222,14.2782,2.6515l.51.6121c-.8175,5.4046-.9171,6.832-1.3279,12.2367l-1.0207.307c-3.0582-2.0394-5.5063-3.6722-9.9919-3.6722-9.8922,0-13.1578,8.5665-13.1578,16.0126,0,6.1184,2.3486,15.7056,13.8715,15.7056,5.1993,0,7.8508-1.6328,10.606-3.2635Z"/><path class="cls-1" d="M455.8154,788.712c0,9.5873,0,12.1371.7137,22.1311l-.51.7137c-6.6308-.1017-8.8757,0-16.216.307l-.6142-.7137v-3.7739a21.09,21.09,0,0,1-14.1744,5.4046c-9.996,0-17.8467-7.0374-17.8467-17.9483a16.3134,16.3134,0,0,1,7.6474-13.9733c6.12-3.7739,11.83-4.8942,24.0708-6.527,0-1.5291-.307-3.3652-1.3278-4.386-1.3237-1.3257-2.8548-1.9357-6.6266-1.9357-6.8341,0-13.4649,2.6515-17.0335,4.0789l-.8174-.4087.51-11.1163.6141-.8154c5.8134-1.7345,11.2159-3.3652,19.9878-3.3652,13.0541,0,17.133,4.0789,19.1746,7.3424,2.6515,4.2843,2.6515,8.2616,2.5477,17.44Zm-16.7263-3.67c-6.9337.917-14.9919,2.0394-14.9919,8.77,0,4.2843,3.0581,6.2221,6.73,6.2221a16.5351,16.5351,0,0,0,8.2616-2.6515Z"/><path class="cls-1" d="M547.0823,811.5568c-7.6516,0-9.5894,0-16.6227.307l-.51-.612.2034-3.9773c-2.4482,2.1412-6.22,5.5063-13.4608,5.5063a21.49,21.49,0,0,1-13.3612-4.4876c-6.0167-4.9959-8.1578-12.9524-8.1578-20.9069,0-10.5043,2.9544-18.9691,10.0956-24.4754,7.7511-6.12,17.3363-5.9151,24.9837-5.7117.1038-11.6268,0-14.1766-.61-23.7618l.51-.612,16.8259-2.6515.7137.61c-.4066,13.4628-.8133,24.5791-.8133,51.5027,0,13.3612.3029,19.48.7137,28.6581Zm-20.2949-42.4259c-11.4234,0-13.6683,8.7719-13.6683,16.6247,0,2.0394,0,14.6848,9.8923,14.6848,2.8589,0,4.8963-1.2241,6.9378-2.4481.3029-12.3384.4067-14.9919.3029-28.5544A22.6436,22.6436,0,0,0,526.7874,769.1309Z"/><path class="cls-1" d="M603.5021,796.77l-.7137,11.5229-.61.8154c-5.4068,2.1432-9.079,3.6722-17.5439,3.6722-7.34,0-21.2119-1.224-27.129-14.9919a33.9577,33.9577,0,0,1-2.444-13.3591c0-17.6434,10.606-28.1477,26.6145-28.1477a26.15,26.15,0,0,1,7.2449.9171c3.4648.8153,11.32,3.2635,14.8882,15.2969,1.4274,5.1,1.5311,10.1993,1.6307,15.1973l-.61.7137-32.9423.612a14.3961,14.3961,0,0,0,2.2448,6.22c2.4482,3.6723,6.6267,5.61,12.7471,5.61,7.4441,0,12.0333-2.3465,15.9089-4.3859ZM588.921,777.8011c0-2.3465-.1037-4.7947-1.5311-7.0374a7.8254,7.8254,0,0,0-10.606-2.4482c-3.8756,2.4482-4.5893,6.73-4.8963,9.8923Z"/><path class="cls-1" d="M630.8925,811.5568c-7.444-.1017-10.1993,0-17.0334.307l-.61-.7137c.4067-10.0976.61-16.216.61-27.2306,0-6.0167,0-12.0355-.1-18.0522-.2074-16.5209-.307-19.8861-1.3278-32.3282l.4067-.6121,17.44-2.7531.7137.7137c-.4066,11.0147-.51,15.6039-.51,25.2908,0,32.2287.51,42.9363,1.0208,54.6647Z"/><path class="cls-1" d="M695.7482,739.147c7.6474,0,16.3156,0,22.436,3.5706,8.4649,4.7926,9.4856,14.4816,9.4856,18.8675,0,7.1391-2.4482,12.9525-5.303,16.4193-7.3445,8.9753-19.5811,8.9753-31.0045,8.8715,0,10.4027,0,12.9525.4066,24.0688l-.51.6121c-8.1578-.1017-9.7885,0-17.3363.307l-.61-.612c.3029-12.4421.61-24.7825.61-37.2246,0-11.7284-.3071-20.6019-.7137-33.8594l.61-.612,12.9546-.2034Zm-4.3859,35.1852c6.12,0,9.8922-.2033,12.6474-1.7324,5.4026-2.9586,5.4026-8.8736,5.4026-10.301,0-5.915-2.4482-10.5043-11.4192-10.71-2.2449,0-4.386,0-6.6308.1038Z"/><path class="cls-1" d="M779.5834,796.77l-.7137,11.5229-.6141.8154c-5.4026,2.1432-9.0748,3.6722-17.54,3.6722-7.3445,0-21.216-1.224-27.129-14.9919a33.9565,33.9565,0,0,1-2.4482-13.3591c0-17.6434,10.606-28.1477,26.6187-28.1477a26.1215,26.1215,0,0,1,7.2407.9171c3.469.8153,11.32,3.2635,14.8882,15.2969,1.4316,5.1,1.5311,10.1993,1.6349,15.1973l-.6141.7137-32.9424.612a14.5056,14.5056,0,0,0,2.2448,6.22c2.4482,3.6723,6.6308,5.61,12.7471,5.61,7.4482,0,12.0375-2.3465,15.9131-4.3859Zm-14.5853-18.9692c0-2.3465-.1037-4.7947-1.5311-7.0374a7.8254,7.8254,0,0,0-10.606-2.4482c-3.8755,2.4482-4.5892,6.73-4.8963,9.8923Z"/><path class="cls-1" d="M818.31,774.1289a7.6371,7.6371,0,0,0-4.1785-1.4274c-6.9379,0-6.9379,6.73-6.9379,11.32,0,7.0375.6142,18.56,1.0208,26.822l-.51.7137c-8.1578-.1017-9.7885,0-17.3363.307l-.6141-.612c.2074-8.4649.307-16.8281.307-25.1912,0-14.1766-.307-18.7659-.917-26.4133l.61-.612c7.4482-1.1224,9.386-1.4274,16.93-3.06l.8174.8153-.3071,9.384c3.2656-7.5478,7.9545-9.8923,12.1371-9.8923.7137,0,1.4274.1017,2.1411.1017l.6142.7137L819.2312,773.72Z"/><path class="cls-1" d="M877.5308,757.8112q-.3049,14.381-.307,28.76c0,13.2575.2033,17.1331.7137,24.3738l-.61.6121c-6.6308,0-8.8715,0-16.32.307l-.7137-.612.1037-4.5893c-3.6723,2.8548-7.8549,6.1183-15.0957,6.1183-5.1,0-9.9918-1.6307-13.357-5.4046-3.6722-4.2843-4.1826-8.9752-4.083-20.0916v-7.1391c0-10.3009-.1-13.1557-.7137-21.7223l.7137-.612,16.83-.8154.7137.8154-.2033,20.6c-.1038,2.55-.1038,5.2013-.1038,7.7511,0,6.0188,0,13.7678,7.3445,13.7678,2.7511,0,4.8964-1.529,7.6474-3.3651.1038-4.0789.1038-5.71.1038-8.6682,0-1.6328,0-17.9505-.7137-29.4735l.7137-.612,16.6226-.8154Zm-9.0748-24.2721c-3.2656,4.9959-7.8549,12.0333-11.0168,17.2347l-.7137.4087H845.7129l-.4108-.6121a111.3684,111.3684,0,0,0,6.2242-17.0313l.5062-.51,16.1164-.2033Z"/><path class="cls-1" d="M102.4744,847.9224c-.27,5.9793-.4481,13.0292-.4481,28.38,0,17.1351.1784,24.4526.7137,33.6457l-.5353.6245c-3.9253.0892-5.1743.0892-9.9047.2676l-.5352-.6245c.1784-5.4441.3568-10.1744.3568-21.687,0-13.4753,0-26.8635-.6266-40.25l.4482-.7137c3.9253,0,5.3528,0,9.9047-.2677Z"/><path class="cls-1" d="M153.7241,903.2531c-.27,3.0353-.27,3.66-.4481,6.6951l-.6245.6245c-17.4027,0-20.1683.0892-37.1271.2676l-.444-.6245c.2656-7.052.5353-11.8695.5353-28.2016,0-14.994,0-23.56-.6266-33.8241l.5353-.6245c17.5833-.0893,21.0626-.0893,37.486-.2677l.5353.6245c-.27,2.6764-.4481,3.747-.6266,6.9607l-.5352.6245c-11.5127-.3569-15.3488-.3569-26.6851-.4461-.2655,8.21-.2655,10.7989-.2655,19.0086,10.9752.0892,14.3674,0,25.2555-.1784l.4461.6244a63.2972,63.2972,0,0,0-.4461,6.8736l-.5353.6245c-10.3528-.2677-12.5831-.2677-24.72-.2677-.1785,10.3529-.0913,12.8508,0,21.3281,13.4753,0,16.2409,0,27.7555-.446Z"/><path class="cls-1" d="M200.7642,903.2531c-.2677,3.0353-.2677,3.66-.4461,6.6951l-.6265.6245c-17.4028,0-20.1684.0892-37.125.2676l-.4461-.6245c.2676-7.052.5374-11.8695.5374-28.2016,0-14.994,0-23.56-.6266-33.8241l.5353-.6245c17.5811-.0893,21.0625-.0893,37.4839-.2677l.5353.6245c-.2677,2.6764-.4461,3.747-.6245,6.9607l-.5353.6245c-11.5147-.3569-15.3508-.3569-26.685-.4461-.2677,8.21-.2677,10.7989-.2677,19.0086,10.9774.0892,14.3675,0,25.2556-.1784l.4481.6244a63.8812,63.8812,0,0,0-.4481,6.8736l-.5353.6245c-10.3528-.2677-12.5832-.2677-24.72-.2677-.1784,10.3529-.0892,12.8508,0,21.3281,13.4753,0,16.243,0,27.7556-.446Z"/><path class="cls-1" d="M247.8043,903.2531c-.2656,3.0353-.2656,3.66-.444,6.6951l-.6266.6245c-17.4027,0-20.17.0892-37.125.2676l-.4481-.6245c.27-7.052.5352-11.8695.5352-28.2016,0-14.994,0-23.56-.6224-33.8241l.5353-.6245c17.5812-.0893,21.0625-.0893,37.4819-.2677l.5352.6245c-.2655,2.6764-.444,3.747-.6224,6.9607l-.5373.6245c-11.5126-.3569-15.3509-.3569-26.683-.4461-.27,8.21-.27,10.7989-.27,19.0086,10.9794.0892,14.37,0,25.2576-.1784l.4461.6244a63.2972,63.2972,0,0,0-.4461,6.8736l-.5353.6245c-10.3528-.2677-12.5852-.2677-24.7223-.2677-.1784,10.3529-.0871,12.8508,0,21.3281,13.4774,0,16.245,0,27.7556-.446Z"/><path class="cls-1" d="M306.6018,874.873c6.5146,2.8569,15.1744,6.6059,15.1744,18.0293,0,9.9939-7.4067,19.0085-22.938,19.0085a38.6448,38.6448,0,0,1-17.6683-3.9274l-.3569-.6245c.3569-3.1224.444-4.8195.7137-8.21l.8921-.3569a26.3174,26.3174,0,0,0,15.7057,5.2656c9.191,0,13.0292-4.73,13.0292-10.0852,0-6.2469-5.1744-8.6578-10.9753-10.8881l-4.4648-1.9627C289.3774,878.1759,280.9,874.3377,280.9,863.45a16.4742,16.4742,0,0,1,2.7676-9.3694c4.1038-5.89,11.5106-7.8549,18.7389-7.8549a46.6784,46.6784,0,0,1,16.0666,2.8569l.444.7137c-.3569,3.3921-.444,4.6411-.7137,7.8528l-.7137.3589c-3.8383-1.9647-8.0292-4.1059-14.7222-4.1059-7.4109,0-12.05,3.4793-12.05,8.745,0,4.0166,2.6764,5.89,4.5519,7.0519,1.1577.7137,1.5146.8922,6.8715,3.2117Z"/><path class="cls-1" d="M350.175,903.5228c-.27,2.944-.27,3.5685-.3569,6.1577l-.4481.5353a24.264,24.264,0,0,1-6.6931.8029c-2.1411,0-7.7636,0-10.5312-4.6411-1.6059-2.5872-1.6059-4.73-1.6059-15.2616l.1785-19.6331c-3.1246,0-3.2117.0892-6.4275.1784l-.3569-.5352c.1785-2.8569.1785-3.5706.1785-6.4254l.5352-.5353c1.9669,0,3.1246.0892,6.0707,0-.0913-1.8756-.0913-3.8383-.0913-5.7117q-.1308-2.5457-.2656-5.0872l.444-.6245c4.0167-.9834,5-1.2511,9.1039-2.5l.6265.4461c-.27,5.89-.3568,7.05-.3568,13.5666,3.7469-.0892,4.8175-.0892,9.9047-.2677l.4481.5353c-.1784,2.32-.27,3.3009-.27,6.3362l-.444.5353c-4.4648-.0892-5-.1784-9.73-.1784l-.1784,16.6c.0913,1.07.0913,6.1577.0913,7.4067,0,6.5146.8008,8.5686,5.2656,8.5686a12.1558,12.1558,0,0,0,4.2822-.805Z"/><path class="cls-1" d="M396.8686,864.433c-.1785,6.7823-.27,13.1185-.27,20.3468,0,10.9773.27,17.5811.4482,21.4194,0,1.2489.0871,2.4979.1784,3.749l-.3568.5352c-4.2864.0893-5,.1785-9.1039.3569l-.5353-.5353.0872-3.749a22.8015,22.8015,0,0,1-14.0085,5.0872,16.6431,16.6431,0,0,1-10.1744-3.0353c-5.7138-4.6391-5.7138-12.2263-5.801-19.187v-5.5333c-.1784-12.7615-.1784-14.189-.4481-19.0085l.4481-.6245c4.1951-.0892,4.996-.0892,9.191-.4461l.5353.6245-.3568,19.5439c0,2.4108-.0872,4.195,0,8.4793.0913,3.747.27,11.78,9.2823,11.78,5.2656,0,9.0125-2.9461,11.1536-4.6412.0913-4.8195.0913-8.9254.0913-14.1018,0-12.4048-.0913-14.9027-.6265-20.7036l.5352-.6245c4.108-.0892,5.0872-.0892,9.1952-.3569Z"/><path class="cls-1" d="M437.8318,841.2294c4.5519-.805,5.444-.9834,9.4607-1.8756l.6224.5353c-.6224,12.4068-.7137,34.5378-.7137,43.4633,0,13.8321.3569,20.438.7137,26.5958l-.444.6245c-3.9295,0-5,.0892-9.1038.2676l-.6266-.5353.1784-3.3029a18.8825,18.8825,0,0,1-12.3155,4.4627c-11.8674,0-20.0791-9.3715-20.0791-22.936,0-9.7284,4.1038-15.8861,7.8549-19.187,6.5146-5.8922,14.9919-6.16,19.6309-6.16,1.8756,0,2.7677,0,5.1785.1784a197.9722,197.9722,0,0,0-.805-21.5957Zm.0871,29.3614c-1.5145-.0892-2.5851-.2677-4.4606-.2677-2.7677,0-8.6557.1785-12.9421,4.193-1.9627,1.8756-5.1744,6.0686-5.1744,14.0127,0,5.0872,1.4274,8.7449,3.303,10.9773a11.7512,11.7512,0,0,0,9.191,4.0167,14.8124,14.8124,0,0,0,9.996-3.9275C438.01,887.9043,438.01,885.2258,437.9189,870.5908Z"/><path class="cls-1" d="M495.538,899.6845c-.4482,3.5686-.54,4.4628-.7179,7.9421l-.5353.6244a29.1372,29.1372,0,0,1-14.2782,3.3922c-14.635,0-23.826-8.39-23.826-23.9173,0-16.6,9.9918-24.7224,21.6849-24.7224,7.05,0,11.9587,2.9461,14.6351,6.1578,5.0872,6.0706,4.9088,14.9048,4.8216,18.8322l-.6265.5353c-13.9214-.0892-16.3322-.0892-30.9673,0,.0872,3.1224.3569,7.4959,3.39,11.1557,3.66,4.3735,8.747,4.82,11.5147,4.82a23.259,23.259,0,0,0,7.7636-1.34,22.4319,22.4319,0,0,0,6.4233-3.9253Zm-8.303-23.2928a9.9736,9.9736,0,0,0-9.7263-6.9607c-4.9959,0-10.8881,3.39-11.78,12.3155,10.7969.0892,14.1911,0,22.3987-.0892A19.4307,19.4307,0,0,0,487.235,876.3917Z"/><path class="cls-1" d="M545.547,910.4834c-4.2823.0893-4.8175.0893-8.9255.3569l-.6224-.6245c0-.9813.0872-1.9648.0872-2.9461.0912-4.3735.0912-8.7449.0912-13.1184,0-13.745-.0912-14.6372-.5352-16.5106-1.6972-6.7823-6.7844-6.7823-8.0333-6.7823-5.3528,0-9.4608,3.1225-11.8674,4.998-.0913,15.5272.0871,23.65.7137,34.0918l-.5353.5352c-4.3735.0893-5.0872.0893-9.3736.3569l-.444-.6245c.0872-4.998.2656-9.8176.2656-16.4214,0-14.28-.6224-21.8654-1.0706-27.8448l.5353-.6245c4.4648-.8029,5.2657-.9813,9.4607-1.7842l.6266.6245-.0913,4.639c2.3195-1.6058,7.8549-5.5332,15.71-5.5332a15.4355,15.4355,0,0,1,7.4067,1.6971,12.071,12.071,0,0,1,5.1744,5.8009c1.1618,2.6764,1.2489,5.3548,1.34,10.8881v10.4421c.2656,10.44.3569,14.4566.6224,17.8488Z"/><path class="cls-1" d="M577.8088,903.5228c-.2655,2.944-.2655,3.5685-.3568,6.1577l-.444.5353a24.2982,24.2982,0,0,1-6.6972.8029c-2.1411,0-7.7636,0-10.5271-4.6411-1.61-2.5872-1.61-4.73-1.61-15.2616l.1784-19.6331c-3.12,0-3.2116.0892-6.4233.1784l-.3569-.5352c.1785-2.8569.1785-3.5706.1785-6.4254l.5352-.5353c1.9627,0,3.1246.0892,6.0665,0-.0871-1.8756-.0871-3.8383-.0871-5.7117q-.1369-2.5457-.27-5.0872l.4481-.6245c4.0167-.9834,4.9959-1.2511,9.1039-2.5l.6224.4461c-.2656,5.89-.3569,7.05-.3569,13.5666,3.7511-.0892,4.8217-.0892,9.9089-.2677l.444.5353c-.1785,2.32-.2656,3.3009-.2656,6.3362l-.4481.5353c-4.4607-.0892-4.9959-.1784-9.7263-.1784l-.1784,16.6c.0871,1.07.0871,6.1577.0871,7.4067,0,6.5146.805,8.5686,5.2656,8.5686a12.162,12.162,0,0,0,4.2864-.805Z"/><path class="cls-1" d="M612.4234,910.84l-.444-.6245c.1784-4.2843.2656-8.39.2656-16.5106,0-3.8382.0913-22.49.0913-26.685,0-9.3715-.27-14.189-.6266-18.83l.4481-.6245,11.9587-.1785c1.7843-.0892,4.5519-.0892,6.9628-.0892,5.2615,0,10.8839.1784,15.3487,2.7656a13.5045,13.5045,0,0,1,7.05,12.2263c0,3.1246-.8921,12.0479-13.2989,15.0832a21.2658,21.2658,0,0,1,8.2117,1.6059c7.6765,3.3921,8.4773,10.1744,8.4773,13.4773,0,8.21-5.0872,14.0106-12.2242,16.5978-4.73,1.6971-9.4607,1.6971-16.5106,1.6971Zm9.6391-36.3242c8.0334.0893,14.1911,0,17.9381-2.944a10.3831,10.3831,0,0,0,3.66-7.7636,9.3779,9.3779,0,0,0-2.498-6.3382c-3.1245-3.0333-8.6557-3.0333-10.71-3.0333-2.8548,0-5.6225.0892-8.39.2677Zm0,7.4981c0,10.1744,0,11.691.3569,21.4173h1.6971c6.6931,0,12.1371.0913,15.6185-1.3382a10.1067,10.1067,0,0,0,6.693-9.8155c0-10.4421-11.5147-10.5313-15.7969-10.5313-.805,0-1.6058,0-6.4274.1785Z"/><path class="cls-1" d="M686.7854,873.4456a9.1871,9.1871,0,0,0-3.5726-.8029,6.662,6.662,0,0,0-3.747,1.16c-3.66,2.5893-3.66,6.5147-3.66,15.7969,0,10.0852.27,15.3509.6266,20.3489l-.4481.6245c-4.1951,0-5.1744.0892-9.4608.2676l-.4439-.5353c.0871-6.7822.1784-12.9421.1784-21.2409,0-14.28-.27-17.938-.805-23.1145l.5353-.6245c3.3942-.6244,5.5353-1.0705,9.2823-1.7842l.5352.5353-.444,7.5851c1.0706-2.8569,3.2988-8.5686,10.8882-8.5686a9.2576,9.2576,0,0,1,2.4979.2677l.3569.5373c-.8922,4.2823-1.0706,5.1744-1.6972,9.1018Z"/><path class="cls-1" d="M728.0059,892.1886a168.2205,168.2205,0,0,0,.5353,17.8488l-.444.446c-4.1951.0893-4.9088.1785-9.0126.3569l-.361-.5353.0913-3.2137a19.1281,19.1281,0,0,1-12.4939,4.5519c-8.9255,0-15.17-6.0685-15.17-14.9048,0-11.9586,9.9919-15.7948,26.0585-17.67l1.5145-.1785c0-2.4087,0-4.1058-.8008-5.5332-.8921-1.6059-2.9461-3.3009-7.4067-3.3009-5.801,0-9.8176,1.7843-13.5646,3.39L696.2378,873c.1785-4.1058.1785-4.6411.2656-6.5146l.5353-.5353a46.0322,46.0322,0,0,1,15.44-2.9461c6.6059,0,13.0293,2.2324,14.9048,9.1931.6224,2.498.6224,7.4067.6224,11.1558Zm-9.996-6.5167c-9.0125,1.34-17.4027,2.5892-17.4027,10.5313,0,.446,0,8.1225,8.4814,8.1225a13.9289,13.9289,0,0,0,9.7263-3.9275V885.4935Z"/><path class="cls-1" d="M778.6373,910.4834c-4.2863.0893-4.8216.0893-8.9254.3569l-.6266-.6245c0-.9813.0913-1.9648.0913-2.9461.0872-4.3735.0872-8.7449.0872-13.1184,0-13.745-.0872-14.6372-.5353-16.5106-1.693-6.7823-6.78-6.7823-8.0292-6.7823-5.3569,0-9.4607,3.1225-11.8715,4.998-.0872,15.5272.0913,23.65.7137,34.0918l-.5353.5352c-4.3735.0893-5.0872.0893-9.3694.3569l-.4482-.6245c.0913-4.998.27-9.8176.27-16.4214,0-14.28-.6266-21.8654-1.0706-27.8448l.5353-.6245c4.4606-.8029,5.2656-.9813,9.4607-1.7842l.6224.6245-.0871,4.639c2.32-1.6058,7.8507-5.5332,15.7056-5.5332a15.4249,15.4249,0,0,1,7.4067,1.6971,12.0994,12.0994,0,0,1,5.1785,5.8009c1.1577,2.6764,1.249,5.3548,1.3361,10.8881v10.4421c.27,10.44.3569,14.4566.6266,17.8488Z"/><path class="cls-1" d="M823.09,899.9522c-.3568,3.8382-.4481,4.2843-.7137,7.942l-.6265.6245a25.1262,25.1262,0,0,1-12.3156,3.0353c-13.4773,0-22.22-9.7284-22.22-23.65,0-14.1911,8.5644-24.9008,22.3987-24.9008a29.3717,29.3717,0,0,1,12.2283,2.8569l.3569.6245c-.3569,3.2137-.4481,4.3735-.6266,7.05l-.7137.3569a16.9162,16.9162,0,0,0-9.9047-3.4794c-7.4067,0-13.9255,5.7117-13.9255,17.1351,0,12.1371,6.8756,16.5106,13.8342,16.5106a17.6989,17.6989,0,0,0,11.5147-4.4627Z"/><path class="cls-1" d="M869.4892,910.4834c-4.2864.0893-4.8216.0893-8.9254.3569l-.6266-.6245.0913-2.9461c.0871-4.6411.0871-9.3694.0871-14.0106l-.0871-9.55a27.3023,27.3023,0,0,0-.4481-6.0685c-.9793-4.1059-3.4773-6.7823-8.0292-6.7823-5.0872,0-9.0167,2.8548-11.9587,4.998-.0913,15.5272.0872,23.65.6224,34.0918l-.4439.5352c-4.108.0893-5.1785.0893-9.552.3569l-.444-.6245c.1784-6.3362.444-14.3695.444-31.5046,0-7.4959-.0872-14.9919-.1785-22.49-.1784-7.8528-.444-10.4421-.7137-14.4566l.4482-.5353c4.2822-.7158,5.71-.9834,9.7262-1.8756l.5353.6245c-.5353,9.55-.5353,19.1891-.5353,28.8261,2.8548-1.8734,8.4773-5.5332,15.9754-5.5332a15.1223,15.1223,0,0,1,5.9793,1.0726,11.9631,11.9631,0,0,1,7.32,8.4773c.444,1.7843.444,2.8569.6224,8.8362v10.4421l.0913,4.193c.1784,7.498.1784,8.747.5353,13.6558Z"/><g id="Separator"><rect class="cls-2" y="460.6909" width="1200" height="6.3735"/></g><g id="CS"><path class="cls-3" d="M393.807,315.1619a2.8367,2.8367,0,0,1-.6386-.0688,3.0508,3.0508,0,0,1-2.348-3.62L456.6594,2.4209a3.0537,3.0537,0,0,1,5.9731,1.2741L396.7908,312.7424a3.0582,3.0582,0,0,1-2.9838,2.42Z"/><path class="cls-4" d="M534.051,79.1234c-7.4265-.0792-9.3037-.0792-17.0412.234l-.3139-.3911c0-7.0349.08-13.9914.16-20.9494.0743-4.4542.1542-8.9112.1542-13.3693,0-6.8773-.1542-11.9577-.4707-20.3243l.3908-.3912c7.6632.0793,9.3037.0793,16.9642-.2326l.3137.3912c-.2339,7.8169-.3908,12.5075-.3908,21.4978,0,11.021.234,22.2006.5478,33.1438l-.3138.3911Z"/><path class="cls-4" d="M562.8072,56.2976V67.085c6.097,0,11.8031-.1571,19.8544-.469l.4706.469-.7845,11.568-.7019.47c-10.71,0-12.5077-.0792-14.8529-.0792-8.5962,0-13.0555.1585-20.4819.3132l-.3909-.5458c.2367-8.99.3138-13.8367.3138-24.4694,0-18.76-.1569-21.9656-.5478-29.94l.4707-.4705h35.1753l.3908.3158-.545,10.7858-.4707.3911H562.65V45.352l17.1183-.3132.4707.55-.6248,10.2387-.5479.47Z"/><path class="cls-4" d="M608.3652,56.2976V67.085c6.0941,0,11.803-.1571,19.8543-.469l.4679.469-.7817,11.568-.7046.47c-10.7076,0-12.5078-.0792-14.85-.0792-8.5991,0-13.0555.1585-20.482.3132l-.3909-.5458c.2368-8.99.3111-13.8367.3111-24.4694,0-18.76-.1541-21.9656-.545-29.94l.4707-.4705H626.89l.3909.3158-.5478,10.7858-.468.3911h-18.06V45.352l17.121-.3132.4707.55L625.17,55.8272l-.5477.47Z"/><path class="cls-4" d="M653.9176,56.2976V67.085c6.1024,0,11.8086-.1571,19.8571-.469l.4707.469-.7817,11.568-.7047.47c-10.7048,0-12.505-.0792-14.85-.0792-8.5991,0-13.0583.1585-20.4848.3132l-.3881-.5458c.2367-8.99.3111-13.8367.3111-24.4694,0-18.76-.1569-21.9656-.5451-29.94l.4707-.4705h35.1752l.3909.3158-.5477,10.7858-.468.3911h-18.06V45.352l17.1239-.3132.4624.55-.6221,10.2387-.5478.47Z"/><path class="cls-4" d="M536.6027,123.9027A23.0429,23.0429,0,0,0,526.129,121.27,22.54,22.54,0,0,0,506.25,132.8728,23.9865,23.9865,0,0,0,503.2413,144.8,24.2714,24.2714,0,0,0,506.25,156.78a22.6579,22.6579,0,0,0,8.2715,8.5938,22.0581,22.0581,0,0,0,11.6076,3.1718,24.237,24.237,0,0,0,10.2589-2.4192,32.2266,32.2266,0,0,0,9.2955-6.5l9.9918,10.8517a45.3146,45.3146,0,0,1-14.129,9.8867,39.3958,39.3958,0,0,1-16.2787,3.653,40.0649,40.0649,0,0,1-20.0911-5.11,37.241,37.241,0,0,1-14.1841-14.0157,38.99,38.99,0,0,1-5.1555-19.8782,37.5192,37.5192,0,0,1,19.7139-33.5216,41.5613,41.5613,0,0,1,20.3609-5.051,42.4161,42.4161,0,0,1,29.6535,12.5722l-9.8817,12.1408a28.6105,28.6105,0,0,0-9.0807-7.2525Z"/><path class="cls-4" d="M589.0888,124.44a23.0942,23.0942,0,0,0-8.489,8.6475,24.383,24.383,0,0,0,8.5413,32.8777,21.8883,21.8883,0,0,0,11.5526,3.2257,21.6077,21.6077,0,0,0,11.44-3.1694,23.04,23.04,0,0,0,8.2743-8.7039,24.7542,24.7542,0,0,0,3.0636-12.1956,24.2485,24.2485,0,0,0-3.0636-12.0345,23.1613,23.1613,0,0,0-8.2743-8.6475,21.598,21.598,0,0,0-11.44-3.1707,22.4142,22.4142,0,0,0-11.6049,3.1707Zm31.9079-12.9471a38.4119,38.4119,0,0,1,0,67.4155,43.7589,43.7589,0,0,1-41.0409,0,37.8638,37.8638,0,0,1-19.8764-33.7864,37.7977,37.7977,0,0,1,19.8213-33.6291,44.3211,44.3211,0,0,1,41.096,0Z"/><polygon class="cls-4" points="653.122 107.625 672.032 107.625 695.457 153.826 718.664 107.625 737.469 107.625 737.469 182.836 722.212 182.836 722.212 132.015 700.83 175.207 689.872 175.207 668.38 132.015 668.38 182.836 653.122 182.836 653.122 107.625 653.122 107.625"/><path class="cls-4" d="M797.2582,143.8859q3.8111-3.2742,3.8151-9.6153,0-6.23-3.8151-9.4029-3.8152-3.165-11.013-3.168h-14.074v25.4628h14.074q7.1966,0,11.013-3.2766Zm12.0893-29.4386q7.845,6.8247,7.8421,19.2857,0,13.1084-7.8971,20.362-7.8986,7.25-22.1886,7.2524H772.1712v21.4884H755.1905V107.625h31.9134q14.3975,0,22.2436,6.8223Z"/><path class="cls-4" d="M849.3673,164.5167q4.5748,4.6731,12.1967,4.6745,7.4154,0,11.8169-4.6235,4.4055-4.6165,4.4069-12.7845V107.625h16.9778v44.1582a34.7552,34.7552,0,0,1-4.027,17.1366,27.393,27.393,0,0,1-11.5554,11.1743,37.7829,37.7829,0,0,1-17.7237,3.9244,38.4669,38.4669,0,0,1-17.84-3.9244A27.5482,27.5482,0,0,1,831.9131,168.92a34.331,34.331,0,0,1-4.0848-17.1366V107.625h16.9752v44.1582q0,8.06,4.5638,12.7335Z"/><polygon class="cls-4" points="903.681 107.625 966.536 107.625 966.536 122.021 943.541 122.021 943.541 182.836 926.564 182.836 926.564 122.021 903.681 122.021 903.681 107.625 903.681 107.625"/><polygon class="cls-4" points="976.743 107.625 1034.01 107.625 1034.01 121.7 993.721 121.7 993.721 138.031 1029.931 138.031 1029.931 152.106 993.721 152.106 993.721 168.761 1035.194 168.761 1035.194 182.836 976.743 182.836 976.743 107.625 976.743 107.625"/><path class="cls-4" d="M1066.5652,147.1625H1082.25q7.0934,0,10.9084-3.2766,3.815-3.2742,3.8123-9.6153,0-6.23-3.8123-9.4029-3.8235-3.165-10.9084-3.168h-15.6843v25.4628Zm29.2241,35.6733-11.9268-21.4884h-17.2973v21.4884H1049.59V107.625h32.66q14.7234,0,22.7775,6.8223,8.0637,6.8247,8.0622,19.2857a29.1,29.1,0,0,1-3.603,14.8809,23.1251,23.1251,0,0,1-10.4709,9.4l16.0036,24.8215Z"/><path class="cls-4" d="M502.22,230.3769a37.3484,37.3484,0,0,0-11.12-2.0939,13.1211,13.1211,0,0,0-6.986,1.61,5.2374,5.2374,0,0,0-2.5764,4.7284,6.6218,6.6218,0,0,0,3.7049,6.07,57.0011,57.0011,0,0,0,11.4452,4.3493,98.6531,98.6531,0,0,1,12.7307,4.5188,22.5424,22.5424,0,0,1,8.5413,6.7658q3.5467,4.5156,3.5453,11.93a20.4409,20.4409,0,0,1-3.8123,12.4065,23.5388,23.5388,0,0,1-10.4764,7.8971,40.2076,40.2076,0,0,1-15.15,2.6866,51.8788,51.8788,0,0,1-17.9413-3.2233,48.4059,48.4059,0,0,1-15.2575-8.8139l6.7686-13.8588a45.8233,45.8233,0,0,0,13.1078,8.2764,35.2713,35.2713,0,0,0,13.54,3.1134q5.26,0,8.2164-1.9306a6.7592,6.7592,0,0,0,.969-10.37,15.2728,15.2728,0,0,0-5.051-3.062q-3.06-1.1771-8.4339-2.6851a96.15,96.15,0,0,1-12.6261-4.3009,22.181,22.181,0,0,1-8.4339-6.5537q-3.5468-4.3989-3.5453-11.7092a19.8922,19.8922,0,0,1,3.6526-11.8759,23.1781,23.1781,0,0,1,10.2093-7.8383,39.2991,39.2991,0,0,1,15.2576-2.7446,52.8728,52.8728,0,0,1,15.2548,2.2579,51.5645,51.5645,0,0,1,13.3253,6.0188l-6.5567,14.0746a56.8212,56.8212,0,0,0-12.3013-5.6423Z"/><path class="cls-4" d="M558.1443,231.8823a23.1148,23.1148,0,0,0-8.489,8.6475,24.3888,24.3888,0,0,0,8.5414,32.88,21.9265,21.9265,0,0,0,11.5525,3.2238,21.6214,21.6214,0,0,0,11.4425-3.1726,23.02,23.02,0,0,0,8.2715-8.7039,24.7343,24.7343,0,0,0,3.0636-12.1959,24.2519,24.2519,0,0,0-3.0636-12.0318,23.1356,23.1356,0,0,0-8.2715-8.6475,21.6207,21.6207,0,0,0-11.4425-3.1718,22.4349,22.4349,0,0,0-11.6049,3.1718Zm31.9107-12.9485a38.4206,38.4206,0,0,1,0,67.42,43.7928,43.7928,0,0,1-41.0438,0,37.8635,37.8635,0,0,1-19.8764-33.7917,37.8018,37.8018,0,0,1,19.8214-33.6278,44.3276,44.3276,0,0,1,41.0988,0Z"/><path class="cls-4" d="M665.6381,231.3446a23.0171,23.0171,0,0,0-10.4709-2.6341,22.5676,22.5676,0,0,0-19.8818,11.6043,23.9891,23.9891,0,0,0-3.0058,11.93,24.2591,24.2591,0,0,0,3.0058,11.9778,22.7109,22.7109,0,0,0,8.2742,8.5966,22.09,22.09,0,0,0,11.6076,3.1711,24.2243,24.2243,0,0,0,10.2562-2.4185,32.2078,32.2078,0,0,0,9.2954-6.5l9.9919,10.8476a45.1829,45.1829,0,0,1-14.1263,9.8873,39.3758,39.3758,0,0,1-16.2787,3.6527,40.0776,40.0776,0,0,1-20.0938-5.1061,37.287,37.287,0,0,1-14.1813-14.0156,38.97,38.97,0,0,1-5.1556-19.881,37.51,37.51,0,0,1,19.714-33.5229,41.5423,41.5423,0,0,1,20.3608-5.0509,42.4742,42.4742,0,0,1,29.6564,12.5722l-9.8874,12.1421a28.5139,28.5139,0,0,0-9.0807-7.2526Z"/><polygon class="cls-4" points="695.886 215.066 712.861 215.066 712.861 290.279 695.886 290.279 695.886 215.066 695.886 215.066"/><polygon class="cls-4" points="730.588 215.066 787.853 215.066 787.853 229.14 747.56 229.14 747.56 245.476 783.771 245.476 783.771 259.551 747.56 259.551 747.56 276.202 789.034 276.202 789.034 290.279 730.588 290.279 730.588 215.066 730.588 215.066"/><polygon class="cls-4" points="796.017 215.066 858.872 215.066 858.872 229.466 835.88 229.466 835.88 290.279 818.907 290.279 818.907 229.466 796.017 229.466 796.017 215.066 796.017 215.066"/><polygon class="cls-4" points="932.688 215.066 905.289 265.994 905.289 290.279 888.314 290.279 888.314 266.427 860.485 215.066 877.568 215.066 896.805 248.804 915.605 215.066 932.688 215.066 932.688 215.066"/><path class="cls-5" d="M254.94,217.62c.0214,17.6741,1.2686,18.29,13.6015,19.104l12.7227.7474.5522.2928c2.7367,1.4784,3.5968,4.9676,3.2351,7.7766-.3884,3.0188-2.114,5.2525-4.5037,5.8385l-.3912.0886-.4032-.0159c-9.9969-.4462-27.4061-.71-46.5693-.71-20.2009,0-37.606.258-47.7524.71l-.4032.0159-.3908-.0886c-2.39-.586-4.1143-2.82-4.5041-5.8385-.3613-2.809.4988-6.2982,3.2352-7.7766l.5524-.2928,12.7428-.7474c12.3233-.8145,13.5611-1.43,13.5829-19.1417-48.5613-5.4594-78.8144-28.9747-78.8144-62.9867,0-34.2554,26.0931-56.1967,72.5443-62.37.1668,4.4259.2984,10.3692.3924,17.2023a68.8184,68.8184,0,0,0-7.9672,2.477l-1.2057.4476c-9.6838,3.6276-16.2777,10.4028-19.1821,19.6471l-.1088.309c-1.6854,4.0455-2.6127,11.6878-2.6127,21.5233l.0013.4088-.0013.4056c0,9.8359.9273,17.4779,2.6127,21.5209l.1236.36a29.421,29.421,0,0,0,13.09,16.6418c9.1393,6.0829,26.6,9.2226,43.9242,9.2226,18.9562,0,38.0685-3.7607,46.2684-11.0236a29.3464,29.3464,0,0,0,10.4848-14.8841l.1088-.317c1.6853-4.043,2.6127-11.685,2.6127-21.5209l-.0024-.3734.0024-.441c0-9.8355-.9274-17.4778-2.6127-21.5233l-.1062-.2984c-2.9084-9.2549-9.5023-16.03-19.0705-19.6107l-1.2472-.4663a77.0954,77.0954,0,0,0-14.5438-3.9544v86.2924a121.1244,121.1244,0,0,1-21.8943,1.8792,120.1265,120.1265,0,0,1-22.7947-2.0513V174.1158c.395-18.62.7955-48.1352.3466-69.02l.0041.0039c-.0013-.5-.3535-14.6363-.3562-15.1042-.0847-13.6688-1.3843-15.1177-11.6527-16.2438l-14.4445-1.6639c-2.1894-.9813-3.6665-3.4771-3.8533-6.5093-.1853-3.0147.945-5.6461,2.9516-6.8559l.5268-.3226.6117-.07c10.5693-1.2472,23.9047-3.6034,37.5482-6.6315,7.1864-1.7149,13.8609-3.8883,18.7371-5.4768,4.8575-1.5847,6.88-2.2244,8.18-2.2244,2.6961,0,5.86,1.43,6.8493,4.6221l.1733.56-.0633.5888c-.5441,5.0426-.87,15.5435-.87,28.0727V91.416c50.607,4.9124,79.1312,27.32,79.1312,63.1791,0,34.0874-30.3805,57.6349-79.1284,63.0244ZM232.4232,17.9336c-81.43,0-147.4418,60.38-147.4418,134.8577,0,74.4809,66.0122,134.8557,147.4418,134.8557s147.442-60.3748,147.442-134.8557c0-74.4782-66.0124-134.8577-147.442-134.8577Z"/><path class="cls-5" d="M335.3736,279.3233h3.7349l6.2082,12.7775,6.1636-12.7775h3.78V298.22h-2.9246v-14.396l-5.985,12.4169h-2.0686l-5.9835-12.4169V298.22h-2.9246V279.3233Zm-17.3663,0h14.5773v2.7911h-5.7135V298.22h-3.1946V282.1144h-5.6692v-2.7911Z"/></g></g></g></svg>