<svg xmlns="http://www.w3.org/2000/svg" viewBox="0 0 1200 770.0932"><defs><style>.cls-1{fill:#00629b;}.cls-2{fill:#b2b2b2;}.cls-3{fill:#1d1d1b;}.cls-4{fill:#f7a400;}</style></defs><g id="Capa_2" data-name="Capa 2"><g id="Final"><path class="cls-1" d="M242.8084,644.2336c9.8336,0,20.9766,0,28.8419,4.59,10.8816,6.161,12.1939,18.6163,12.1939,24.2545,0,9.1774-3.1472,16.6506-6.8171,21.1073-9.4388,11.5378-25.1719,11.5378-39.8569,11.4044,0,13.3728,0,16.6506.5254,30.9408l-.6561.7868c-10.4869-.1307-12.5859,0-22.2861.3947l-.7868-.7868c.3921-15.9944.7868-31.8582.7868-47.8527,0-15.077-.3947-26.4842-.9175-43.5268l.7842-.7868,16.65-.2614Zm-5.6382,45.231c7.8679,0,12.7167-.2613,16.2586-2.227,6.9477-3.8032,6.9477-11.4071,6.9477-13.242,0-7.6039-3.1472-13.5035-14.6823-13.7675-2.8858,0-5.6382,0-8.524.1333Z"/><path class="cls-1" d="M350.58,718.3091l-.9175,14.813-.7868,1.0482c-6.9477,2.755-11.6685,4.7207-22.55,4.7207-9.4388,0-27.2709-1.5736-34.8747-19.2723-2.0964-4.5874-3.1445-11.0124-3.1445-17.1734,0-22.6808,13.6341-36.1843,34.216-36.1843A33.5672,33.5672,0,0,1,331.83,667.44c4.4593,1.0481,14.5542,4.1953,19.1416,19.6644,1.8376,6.5556,1.9683,13.1113,2.099,19.5363l-.7868.9175-42.3479.7868c.5254,2.6217.92,5.2435,2.8858,7.9959,3.1472,4.7207,8.5213,7.2118,16.3865,7.2118,9.5722,0,15.4718-3.0165,20.4539-5.6382ZM331.83,693.924c0-3.0165-.1307-6.1636-1.9657-9.0468a10.06,10.06,0,0,0-13.6341-3.1471c-4.9821,3.1471-5.9,8.652-6.2943,12.7166Z"/><path class="cls-1" d="M400.3663,689.2033c-1.835-1.0482-3.1472-1.835-5.3742-1.835-8.916,0-8.916,8.652-8.916,14.5516,0,9.0467.7867,23.86,1.3122,34.48l-.6561.9175c-10.49-.1307-12.586,0-22.2888.3947l-.7868-.7868c.264-10.8816.3947-21.6327.3947-32.3837,0-18.2241-.3947-24.1237-1.1815-33.9546l.7868-.7868c9.5721-1.4429,12.0632-1.8349,21.7634-3.9339l1.0508,1.0482-.3947,12.0632c4.1953-9.7029,10.2255-12.7167,15.6024-12.7167.9175,0,1.8349.1307,2.7524.1307l.7868.9175-3.67,21.3686Z"/><path class="cls-1" d="M476.4928,668.2267q-.3921,18.4867-.3921,36.971c0,17.0427.2614,22.0248.9175,31.3329l-.7868.7868c-8.5213,0-11.4044,0-20.9766.3947l-.9175-.7868.1307-5.8995c-4.718,3.67-10.0949,7.8652-19.403,7.8652-6.5557,0-12.8473-2.0963-17.1733-6.9478-4.7208-5.5075-5.3769-11.5378-5.2462-25.828v-9.1774c0-13.2421-.1307-16.912-.9175-27.9244l.9175-.7867,21.6327-1.0482.9175,1.0482-.2614,26.4814c-.1307,3.2779-.1307,6.6864-.1307,9.9642,0,7.7372,0,17.6988,9.4388,17.6988,3.5393,0,6.2944-1.9657,9.8336-4.326.1307-5.2435.1307-7.34.1307-11.1431,0-2.099,0-23.0756-.9175-37.8886l.9175-.7867,21.3686-1.0482Z"/><path class="cls-1" d="M599.0639,714.3752l-.92,19.5337-.6534.7868a55.6233,55.6233,0,0,1-22.42,4.59c-31.989,0-47.3274-22.1581-47.3274-47.33,0-22.9423,11.7992-49.1623,45.7538-49.1623a63.2764,63.2764,0,0,1,24.2545,4.8487l.5254.6561-1.1816,18.0935-1.1788.2614a28.1235,28.1235,0,0,0-18.4855-6.2917c-21.3714,0-25.3026,19.7951-25.3026,31.0715,0,18.6163,10.4869,29.7593,25.4332,29.7593a32.0287,32.0287,0,0,0,20.5819-7.3424Z"/><path class="cls-1" d="M671.4351,737.1867c-10.0949,0-12.1939,0-21.6327.5254l-.6561-.9174c0-4.3287.1334-8.524.1334-12.85,0-4.8488-.1334-23.4677-.3948-27.5323-.5254-5.2435-1.0481-12.7167-8.26-12.7167-4.4567,0-7.6039,2.23-10.0949,3.934.1307,23.2063.264,29.1058,1.1815,48.77l-.7868.7868c-10.62,0-12.5859,0-22.2888.5254l-.6561-.9174c.264-12.85.5254-20.5846.5254-33.5626q0-15.93-.392-31.8583c-.2641-16.9146-.5255-21.6327-1.707-34.3493l.6561-.7868,22.4195-3.5392.7868.9174-.3947,40.38c5.2461-3.1472,12.7193-7.7346,22.2888-7.7346,5.7689,0,11.2737,1.7043,15.077,7.0785,3.8033,5.5075,3.9339,12.7166,4.0646,25.1719v9.8335c.2614,13.6341.3921,17.304.9175,28.055Z"/><path class="cls-1" d="M743.1929,707.95c0,12.3246,0,15.6024.9175,28.45l-.6561.9175c-8.5213-.1307-11.4071,0-20.8459.3947l-.7868-.9174v-4.8515A27.1114,27.1114,0,0,1,703.6,738.891c-12.85,0-22.9449-9.0468-22.9449-23.0729a20.9682,20.9682,0,0,1,9.8335-17.9628c7.8653-4.8515,15.2077-6.2917,30.9409-8.3907,0-1.9656-.3948-4.326-1.7043-5.6382-1.7043-1.7042-3.6726-2.4884-8.5213-2.4884-8.7854,0-17.3067,3.4086-21.8941,5.2435l-1.0508-.5254.6561-14.29.7868-1.0482c7.4731-2.23,14.4209-4.326,25.6973-4.326,16.7813,0,22.0247,5.2435,24.6465,9.4388,3.4085,5.5075,3.4085,10.62,3.2778,22.4195Zm-21.502-4.7181c-8.916,1.1789-19.2723,2.6217-19.2723,11.2738,0,5.5075,3.9339,7.9985,8.652,7.9985,4.3287,0,7.8679-1.8376,10.62-3.4085Z"/><path class="cls-1" d="M778.5718,672.422c3.67-2.4911,8.7827-6.161,17.8294-6.161,14.685,0,27.4016,12.586,27.4016,33.4292,0,8.9161-2.7524,20.0591-11.1431,27.927-10.62,9.9642-23.8623,10.0949-33.4318,10.2256l.9175,31.2022-.7868.6561c-9.9642-.1307-12.7167,0-22.0248.3921l-.7868-.6535c.3921-14.8156.6561-23.7317.6561-39.3314,0-37.7579-.5254-43.7908-1.9683-59.3906l.7868-.9175a184.7643,184.7643,0,0,0,21.7634-3.8032l1.0482,1.1815Zm.5254,50.8692c4.5874-.1333,9.8309-.3947,14.0262-3.2778,5.2461-3.6726,7.7372-10.49,7.7372-18.0935,0-4.4567-.6561-11.1431-4.7208-15.6024a11.7473,11.7473,0,0,0-9.1774-3.9313c-3.2778,0-4.9821.9175-7.8652,2.6217Z"/><path class="cls-1" d="M873.4265,722.7658l-1.31,13.5034-.9175.9175A76.2174,76.2174,0,0,1,857.432,738.76c-20.4511,0-20.7125-12.9807-20.7125-25.0412,0-3.4086.1307-6.6864.2614-9.9642l.392-20.846-8.2573.2641-.7867-.7868,1.1788-14.0289.7868-.6561,7.0784.2641-.1307-16.3892.5255-.9175c9.3081-2.36,11.6684-3.0165,20.5818-5.6382l.9175.7868-.3921,22.0247h13.1114l.7868.7868-1.3122,14.0289-.7868.7868-11.7992-.5255-.2613,18.4856a150.7355,150.7355,0,0,0,.2613,15.8638c.2614,1.9683.7868,6.1636,7.4732,6.1636a19.6652,19.6652,0,0,0,6.03-1.1815Z"/><path class="cls-1" d="M939.7862,718.3091l-.9175,14.813-.7868,1.0482c-6.9477,2.755-11.6685,4.7207-22.55,4.7207-9.4388,0-27.2709-1.5736-34.8747-19.2723-2.0963-4.5874-3.1445-11.0124-3.1445-17.1734,0-22.6808,13.6341-36.1843,34.216-36.1843a33.5667,33.5667,0,0,1,9.3081,1.1789c4.4594,1.0481,14.5543,4.1953,19.1416,19.6644,1.8377,6.5556,1.9684,13.1113,2.099,19.5363l-.7867.9175-42.348.7868c.5254,2.6217.92,5.2435,2.8858,7.9959,3.1472,4.7207,8.5213,7.2118,16.3866,7.2118,9.5721,0,15.4717-3.0165,20.4538-5.6382Zm-18.75-24.3851c0-3.0165-.1307-6.1636-1.9656-9.0468a10.06,10.06,0,0,0-13.6342-3.1471c-4.9821,3.1471-5.8995,8.652-6.2943,12.7166Z"/><path class="cls-1" d="M989.5726,689.2033c-1.835-1.0482-3.1472-1.835-5.3742-1.835-8.916,0-8.916,8.652-8.916,14.5516,0,9.0467.7868,23.86,1.3122,34.48l-.6561.9175c-10.49-.1307-12.586,0-22.2888.3947l-.7868-.7868c.264-10.8816.3947-21.6327.3947-32.3837,0-18.2241-.3947-24.1237-1.1815-33.9546l.7868-.7868c9.5721-1.4429,12.0632-1.8349,21.7634-3.9339l1.0508,1.0482-.3947,12.0632c4.1953-9.7029,10.2256-12.7167,15.6024-12.7167.9175,0,1.835.1307,2.7524.1307l.7868.9175-3.67,21.3686Z"/><g id="CS"><path class="cls-2" d="M370.7179,350.4527a3.1506,3.1506,0,0,1-.71-.0765,3.3923,3.3923,0,0,1-2.6109-4.025L440.6084,2.692a3.3957,3.3957,0,0,1,6.642,1.4168L374.0359,347.7623a3.4006,3.4006,0,0,1-3.318,2.69Z"/><path class="cls-3" d="M526.666,87.9834c-8.258-.0881-10.3455-.0881-18.9494.26l-.349-.4349c0-7.8226.0888-15.5581.1775-23.2952.0827-4.953.1715-9.9091.1715-14.8664,0-7.6474-.1715-13.2967-.5234-22.6l.4346-.4349c8.5213.0882,10.3455.0882,18.8638-.2587l.3489.4349c-.26,8.6924-.4347,13.9082-.4347,23.9051,0,12.2552.26,24.6866.6091,36.8552l-.3489.4349Z"/><path class="cls-3" d="M558.6422,62.6017V74.597c6.78,0,13.1248-.1748,22.0777-.5216l.5233.5216L580.3709,87.46l-.78.5231c-11.91,0-13.9083-.0881-16.5161-.0881-9.5588,0-14.5174.1763-22.7754.3483l-.4347-.6069c.2633-9.9969.3489-15.3861.3489-27.2094,0-20.8606-.1744-24.4253-.609-33.2922l.5234-.5231h39.114l.4346.3511-.606,11.9936-.5234.4349H558.4678V50.43l19.0352-.3483.5233.6112-.6947,11.3853-.6092.5231Z"/><path class="cls-3" d="M609.3017,62.6017V74.597c6.7765,0,13.1247-.1748,22.0775-.5216l.52.5216L631.03,87.46l-.7836.5231c-11.9066,0-13.9084-.0881-16.5131-.0881-9.562,0-14.5174.1763-22.7754.3483l-.4347-.6069c.2633-9.9969.3459-15.3861.3459-27.2094,0-20.8606-.1714-24.4253-.606-33.2922l.5234-.5231h39.114l.4346.3511-.6091,11.9936-.52.4349H609.1241V50.43l19.0382-.3483.5234.6112-.6978,11.3853-.6092.5231Z"/><path class="cls-3" d="M659.9549,62.6017V74.597c6.7858,0,13.1309-.1748,22.0807-.5216l.5233.5216L681.69,87.46l-.7836.5231c-11.9035,0-13.9052-.0881-16.513-.0881-9.562,0-14.52.1763-22.7785.3483l-.4316-.6069c.2632-9.9969.3459-15.3861.3459-27.2094,0-20.8606-.1745-24.4253-.6061-33.2922l.5234-.5231H680.56l.4347.3511-.6091,11.9936-.52.4349h-20.082V50.43l19.0413-.3483.5142.6112-.6918,11.3853-.609.5231Z"/><path class="cls-3" d="M529.5034,137.7769a25.6231,25.6231,0,0,0-11.6464-2.928,25.0647,25.0647,0,0,0-22.1051,12.9025,26.673,26.673,0,0,0-3.3455,13.2625,26.9886,26.9886,0,0,0,3.3455,13.3222,25.195,25.195,0,0,0,9.1977,9.5562,24.5291,24.5291,0,0,0,12.9074,3.527,26.9519,26.9519,0,0,0,11.4077-2.69,35.8359,35.8359,0,0,0,10.3363-7.2275l11.1107,12.0669a50.3933,50.3933,0,0,1-15.7111,10.9938,43.8073,43.8073,0,0,1-18.1016,4.0619,44.55,44.55,0,0,1-22.3408-5.6819,41.4112,41.4112,0,0,1-15.7724-15.5851,43.3554,43.3554,0,0,1-5.7329-22.1041,41.7206,41.7206,0,0,1,21.9215-37.2752,46.2141,46.2141,0,0,1,22.6409-5.6167,47.1675,47.1675,0,0,1,32.974,13.98l-10.9883,13.5a31.8129,31.8129,0,0,0-10.0976-8.0646Z"/><path class="cls-3" d="M587.8668,138.3747a25.6785,25.6785,0,0,0-9.44,9.6159A27.1132,27.1132,0,0,0,587.925,184.55a24.3392,24.3392,0,0,0,12.8462,3.5868,24.0282,24.0282,0,0,0,12.7207-3.5242,25.6215,25.6215,0,0,0,9.2008-9.6786,27.5256,27.5256,0,0,0,3.4066-13.5612,26.9632,26.9632,0,0,0-3.4066-13.382,25.7553,25.7553,0,0,0-9.2008-9.6159,24.0161,24.0161,0,0,0-12.7207-3.5258,24.9237,24.9237,0,0,0-12.9044,3.5258Zm35.4809-14.3968a42.7131,42.7131,0,0,1,0,74.9644,48.66,48.66,0,0,1-45.6366,0,42.1036,42.1036,0,0,1-22.1021-37.57A42.03,42.03,0,0,1,577.65,123.9779a49.2833,49.2833,0,0,1,45.6978,0Z"/><polygon class="cls-3" points="659.07 119.677 680.098 119.677 706.146 171.051 731.951 119.677 752.863 119.677 752.863 203.309 735.897 203.309 735.897 146.798 712.12 194.826 699.935 194.826 676.036 146.798 676.036 203.309 659.07 203.309 659.07 119.677 659.07 119.677"/><path class="cls-3" d="M819.3464,159.9977q4.2377-3.6408,4.2422-10.6919,0-6.9273-4.2422-10.4558-4.2425-3.5194-12.2463-3.5227H791.45v28.314H807.1q8.0025,0,12.2463-3.6436Zm13.443-32.7349q8.7234,7.5888,8.72,21.4452,0,14.5761-8.7814,22.642-8.783,8.0616-24.6731,8.0645H791.45v23.8946H772.568V119.6765h35.4871q16.01,0,24.7343,7.5863Z"/><path class="cls-3" d="M877.2905,182.9387q5.0871,5.1964,13.5624,5.1979,8.2458,0,13.14-5.1412,4.8988-5.1334,4.9-14.216V119.6765h18.8789v49.1029a38.6466,38.6466,0,0,1-4.4779,19.0554,30.4611,30.4611,0,0,1-12.8493,12.4257q-8.356,4.3668-19.7085,4.3637A42.7734,42.7734,0,0,1,870.9,200.2605a30.6326,30.6326,0,0,1-13.0177-12.4257q-4.545-8.0616-4.5422-19.0554V119.6765h18.876v49.1029q0,8.9626,5.0749,14.1593Z"/><polygon class="cls-3" points="937.686 119.677 1007.58 119.677 1007.58 135.685 982.01 135.685 982.01 203.309 963.131 203.309 963.131 135.685 937.686 135.685 937.686 119.677 937.686 119.677"/><polygon class="cls-3" points="1018.929 119.677 1082.609 119.677 1082.609 135.327 1037.808 135.327 1037.808 153.487 1078.073 153.487 1078.073 169.138 1037.808 169.138 1037.808 187.659 1083.926 187.659 1083.926 203.309 1018.929 203.309 1018.929 119.677 1018.929 119.677"/><path class="cls-3" d="M1118.8094,163.6413H1136.25q7.8876,0,12.13-3.6436,4.2422-3.6408,4.2393-10.6919,0-6.9273-4.2393-10.4558-4.2516-3.5194-12.13-3.5227h-17.4406v28.314Zm32.4966,39.6678-13.2624-23.8946h-19.2342v23.8946h-18.876V119.6765H1136.25q16.3722,0,25.3281,7.5863,8.9667,7.5888,8.965,21.4452a32.3575,32.3575,0,0,1-4.0065,16.5472,25.7148,25.7148,0,0,1-11.6433,10.4531l17.7956,27.6008Z"/><path class="cls-3" d="M491.2708,256.1737a41.5335,41.5335,0,0,0-12.3656-2.3283,14.59,14.59,0,0,0-7.7683,1.79,5.8239,5.8239,0,0,0-2.8649,5.2578,7.3632,7.3632,0,0,0,4.12,6.7494,63.3815,63.3815,0,0,0,12.7268,4.8364,109.6813,109.6813,0,0,1,14.1563,5.0247,25.0664,25.0664,0,0,1,9.4976,7.5235q3.944,5.0211,3.9424,13.2654a22.729,22.729,0,0,1-4.2393,13.7957,26.1743,26.1743,0,0,1-11.6494,8.7814,44.71,44.71,0,0,1-16.8467,2.9874,57.6857,57.6857,0,0,1-19.95-3.5842,53.8283,53.8283,0,0,1-16.9661-9.8008l7.5266-15.4107a50.9534,50.9534,0,0,0,14.5755,9.2031,39.2207,39.2207,0,0,0,15.0561,3.4621q5.8492,0,9.1365-2.1468a7.516,7.516,0,0,0,1.0774-11.5316,16.981,16.981,0,0,0-5.6165-3.4049q-3.4022-1.3089-9.3783-2.9858a106.91,106.91,0,0,1-14.04-4.7825,24.6659,24.6659,0,0,1-9.3784-7.2875q-3.9438-4.8915-3.9423-13.02a22.12,22.12,0,0,1,4.0617-13.2058,25.7742,25.7742,0,0,1,11.3525-8.7159,43.7,43.7,0,0,1,16.9661-3.0519,58.7917,58.7917,0,0,1,16.963,2.5107,57.3346,57.3346,0,0,1,14.8174,6.6928L504.95,262.4479a63.1865,63.1865,0,0,0-13.6788-6.2742Z"/><path class="cls-3" d="M553.4573,257.8478a25.7018,25.7018,0,0,0-9.44,9.6157,27.12,27.12,0,0,0,9.4978,36.5623,24.3815,24.3815,0,0,0,12.8461,3.5848,24.0431,24.0431,0,0,0,12.7238-3.5278,25.5961,25.5961,0,0,0,9.1977-9.6786,27.504,27.504,0,0,0,3.4067-13.5616,26.9678,26.9678,0,0,0-3.4067-13.3791,25.7252,25.7252,0,0,0-9.1977-9.6157,24.0415,24.0415,0,0,0-12.7238-3.527,24.9466,24.9466,0,0,0-12.9043,3.527Zm35.4838-14.3985a42.7227,42.7227,0,0,1,0,74.9689,48.696,48.696,0,0,1-45.64,0,42.1033,42.1033,0,0,1-22.1021-37.5756A42.0348,42.0348,0,0,1,543.24,243.4493a49.2909,49.2909,0,0,1,45.7008,0Z"/><path class="cls-3" d="M672.9878,257.25a25.5935,25.5935,0,0,0-11.6433-2.9291,25.0943,25.0943,0,0,0-22.1081,12.9037,26.6743,26.6743,0,0,0-3.3425,13.2656,26.9745,26.9745,0,0,0,3.3425,13.319,25.2529,25.2529,0,0,0,9.2007,9.5592,24.5638,24.5638,0,0,0,12.9074,3.5262,26.9358,26.9358,0,0,0,11.4046-2.6894,35.8136,35.8136,0,0,0,10.3363-7.2274L694.1961,309.04a50.2425,50.2425,0,0,1-15.708,10.9944,43.7852,43.7852,0,0,1-18.1016,4.0617,44.5655,44.5655,0,0,1-22.3439-5.6779,41.4627,41.4627,0,0,1-15.7693-15.585,43.3352,43.3352,0,0,1-5.7328-22.1072,41.71,41.71,0,0,1,21.9214-37.2767,46.1934,46.1934,0,0,1,22.6408-5.6165,47.23,47.23,0,0,1,32.9772,13.98l-10.9945,13.5018a31.7064,31.7064,0,0,0-10.0976-8.0647Z"/><polygon class="cls-3" points="706.623 239.148 725.499 239.148 725.499 322.783 706.623 322.783 706.623 239.148 706.623 239.148"/><polygon class="cls-3" points="745.211 239.148 808.888 239.148 808.888 254.799 764.084 254.799 764.084 272.963 804.348 272.963 804.348 288.614 764.084 288.614 764.084 307.13 810.201 307.13 810.201 322.783 745.211 322.783 745.211 239.148 745.211 239.148"/><polygon class="cls-3" points="817.966 239.148 887.859 239.148 887.859 255.161 862.293 255.161 862.293 322.783 843.42 322.783 843.42 255.161 817.966 255.161 817.966 239.148 817.966 239.148"/><polygon class="cls-3" points="969.941 239.148 939.474 295.779 939.474 322.783 920.598 322.783 920.598 296.26 889.653 239.148 908.648 239.148 930.04 276.664 950.946 239.148 969.941 239.148 969.941 239.148"/><path class="cls-4" d="M216.301,241.9879c.0238,19.6531,1.4107,20.3374,15.1246,21.2431l14.1474.8311.614.3257c3.043,1.6439,3.9995,5.5238,3.5973,8.6473-.4319,3.3569-2.3507,5.8407-5.008,6.4923l-.435.0985-.4484-.0177c-11.1163-.4962-30.4749-.7891-51.784-.7891-22.4629,0-41.817.2868-53.1.7891l-.4483.0177-.4347-.0985c-2.6574-.6516-4.5749-3.1354-5.0083-6.4923-.4019-3.1235.5546-7.0034,3.5974-8.6473l.6142-.3257,14.17-.8311c13.7032-.9057,15.08-1.59,15.1039-21.2851-53.999-6.0708-87.64-32.2192-87.64-70.04,0-38.0912,29.0149-62.49,80.6676-69.354.1855,4.9215.3318,11.53.4364,19.1286a76.5283,76.5283,0,0,0-8.8594,2.7544l-1.3407.4977c-10.7682,4.0338-18.1,11.5677-21.33,21.8471l-.121.3436c-1.8741,4.4986-2.9052,12.9966-2.9052,23.9334l.0015.4546-.0015.4511c0,10.9373,1.0311,19.4349,2.9052,23.9307l.1374.4006a32.7162,32.7162,0,0,0,14.5555,18.5053c10.1627,6.7641,29.5784,10.2553,48.8427,10.2553,21.0789,0,42.3313-4.1818,51.4494-12.258A32.6325,32.6325,0,0,0,255.06,196.2459l.1209-.3525c1.8741-4.4958,2.9054-12.9934,2.9054-23.9307l-.0028-.4153.0028-.49c0-10.9368-1.0313-19.4348-2.9054-23.9334l-.1181-.3317c-3.234-10.2913-10.5663-17.8252-21.2059-21.8067l-1.3868-.5185a85.7226,85.7226,0,0,0-16.1724-4.3972v95.9551a134.6929,134.6929,0,0,1-24.346,2.09,133.5741,133.5741,0,0,1-25.3471-2.281V193.6127c.4392-20.7054.8845-53.5252.3854-76.7488l.0045.0043c-.0014-.5558-.393-16.2752-.396-16.7956-.0943-15.1993-1.5394-16.81-12.9576-18.0626l-16.062-1.85c-2.4346-1.0912-4.077-3.8664-4.2847-7.2382-.2061-3.3522,1.0508-6.2783,3.2821-7.6236l.5858-.3587.68-.0777c11.7528-1.3868,26.5815-4.0069,41.7527-7.3741,7.9911-1.9069,15.413-4.3237,20.8352-6.09,5.4014-1.7621,7.65-2.4734,9.0958-2.4734,2.998,0,6.5161,1.59,7.6162,5.14l.1928.6232-.07.6547c-.6051,5.6073-.9669,17.284-.9669,31.2162v15.0947c56.2738,5.4626,87.992,30.3793,87.992,70.2538,0,37.9044-33.7824,64.0886-87.9889,70.0817ZM191.2629,19.9418c-90.5477,0-163.9518,67.1405-163.9518,149.9585,0,82.8211,73.4041,149.9565,163.9518,149.9565S355.215,252.7214,355.215,169.9c0-82.818-73.4042-149.9585-163.9521-149.9585Z"/><path class="cls-4" d="M305.7413,310.601h4.1533l6.9033,14.2082,6.8538-14.2082h4.2028v21.0125h-3.2521V315.6054l-6.6552,13.8074h-2.3l-6.6535-13.8074v16.0081h-3.2522V310.601Zm-19.3108,0h16.21v3.1037h-6.3533v17.9088h-3.5523V313.7047h-6.304V310.601Z"/></g><g id="Separator"><rect class="cls-1" y="482.9098" width="1200" height="8.1933"/></g></g></g></svg>