<?xml version="1.0" encoding="UTF-8"?>
<svg id="Layer_2" data-name="Layer 2" xmlns="http://www.w3.org/2000/svg" viewBox="0 0 1194.22 914.66">
  <defs>
    <style>
      .cls-1 {
        fill: #b2b2b2;
      }

      .cls-2 {
        fill: #00629b;
      }

      .cls-3 {
        fill: #f7a400;
      }

      .cls-4 {
        fill: #75787b;
      }

      .cls-5 {
        fill: #1d1d1b;
      }
    </style>
  </defs>
  <g id="Layer_43" data-name="Layer 43">
    <g id="ieee_upc_cs_rgb_pp_c">
      <g>
        <path class="cls-2" d="M150.98,629.8l-.31,30.54v10.49c-.21,13.06-.62,19.02-6.07,24.78-7.61,8.02-18.92,8.02-22.62,8.02-13.78,0-21.7-5.14-25.61-10.69-3.6-4.94-4.22-10.49-4.52-21.59v-7.61c-.1-16.04-.1-18.92-.51-33.63l.62-.62c6.99,.1,9.36,.1,18.1-.31l.51,.62c-.21,10.18-.31,18.1-.31,26.43,0,5.45,0,10.9,.21,16.35,.21,6.48,.82,10.08,2.37,12.75,2.26,3.6,6.27,5.45,10.49,5.45,3.4,0,6.79-1.13,9.05-3.7,2.78-3.29,3.09-8.23,3.09-19.02,0-12.65-.51-25.3-1.03-37.95l.62-.62c5.86,.1,7.92,.1,15.42-.31l.51,.62Z"/>
        <path class="cls-2" d="M211.46,701.98c-8.23,0-9.97,.1-16.76,.31l-.62-.62c0-3.5,.1-7.1,.1-10.59,0-3.91-.1-17.99-.31-21.39-.31-3.7-.82-9.77-6.48-9.77-3.29,0-5.76,1.75-7.92,3.19,.1,18.4,.21,22.42,.82,38.25l-.62,.62c-8.23,0-9.77,0-17.17,.31l-.62-.62c.1-6.58,.21-13.16,.21-19.74,0-16.76-.62-23.24-1.44-32.19l.62-.72c7.71-1.03,9.46-1.34,17.38-2.98l1.03,.72-.21,5.65c4.73-2.78,10.18-6.07,16.45-6.07,3.7,0,9.56,.82,12.75,6.17,2.57,4.22,2.67,8.95,2.78,18.82v8.02c.21,10.08,.21,12.96,.72,22.01l-.72,.62Z"/>
        <path class="cls-2" d="M240.31,702.09c-8.33-.1-10.38,0-17.79,.31l-.62-.72c.31-8.43,.62-14.7,.62-25.91,0-14.6-.31-18.2-1.13-26.02l.62-.62,17.69-3.08,.72,.82c-.1,8.74-.31,17.58-.31,26.32,0,14.19,.41,20.26,.92,28.18l-.72,.72Zm-1.44-65.19c-7.3,.92-9.25,1.13-16.25,2.36l-.72-.62c.1-1.95,.1-4.01,.1-5.96,0-2.47-.1-4.63-.31-8.33l.62-.72,16.76-2.06,.62,.62-.31,13.99-.51,.72Z"/>
        <path class="cls-2" d="M280.07,702.09c-7.41-.1-10.08,0-16.76,.31l-.72-.72c-2.26-8.43-3.39-12.24-17.07-52.75l.41-.82c7.82-.1,9.87-.21,17.99-1.13l.72,.62c1.44,6.79,1.85,8.74,4.42,18.3l1.95,7.92,2.57,11.11,5.24-20.26c2.06-8.02,2.36-9.46,3.8-16.35l.72-.72,14.39-.31,.51,.72c-2.88,8.43-7.4,21.8-10.18,30.13-2.16,6.48-4.11,12.85-7.4,23.14l-.62,.82Z"/>
        <path class="cls-2" d="M347.89,687.17l-.72,11.62-.62,.82c-5.45,2.16-9.15,3.7-17.69,3.7-7.4,0-21.39-1.23-27.35-15.12-1.64-3.6-2.47-8.64-2.47-13.47,0-17.79,10.69-28.38,26.84-28.38,2.37,0,4.73,.21,7.3,.92,3.5,.82,11.42,3.29,15.01,15.43,1.44,5.14,1.54,10.28,1.65,15.32l-.62,.72-33.22,.62c.41,2.06,.72,4.11,2.26,6.27,2.47,3.7,6.68,5.65,12.85,5.65,7.51,0,12.14-2.36,16.04-4.42l.72,.31Zm-14.71-19.13c0-2.37-.1-4.83-1.54-7.1-1.13-1.85-3.19-3.6-6.58-3.6-1.44,0-2.88,.31-4.11,1.13-3.91,2.47-4.63,6.79-4.94,9.98l17.17-.41Z"/>
        <path class="cls-2" d="M386.94,664.35c-1.44-.82-2.47-1.44-4.22-1.44-6.99,0-6.99,6.79-6.99,11.42,0,7.09,.62,18.71,1.03,27.04l-.51,.72c-8.23-.1-9.87,0-17.48,.31l-.62-.62c.21-8.54,.31-16.97,.31-25.4,0-14.29-.31-18.92-.93-26.63l.62-.62c7.51-1.13,9.46-1.44,17.07-3.08l.82,.82-.31,9.46c3.29-7.61,8.02-9.97,12.24-9.97,.72,0,1.44,.1,2.16,.1l.62,.72-2.88,16.76-.93,.41Z"/>
        <path class="cls-2" d="M422.83,668.46c5.65,2.16,13.57,5.14,13.57,16.45,0,.72,0,1.44-.1,2.26-1.85,14.7-17.28,16.15-25.09,16.15s-11.83-1.65-16.86-3.5l-.51-.92c.41-5.14,.51-6.27,.72-11.62l.92-.41c1.54,1.23,2.37,1.95,4.11,2.88,3.8,1.95,8.02,2.88,10.9,2.88,5.76,0,8.12-2.78,8.12-5.35,0-3.7-4.52-5.24-7.3-6.17l-3.91-1.44c-4.83-1.85-13.37-5.14-13.37-16.15,0-4.11,1.44-7.2,2.78-9.05,5.35-7.71,15.43-8.12,20.46-8.12,6.69,0,10.9,1.23,15.73,2.57l.51,.62-1.03,11.21-.93,.31c-2.57-1.64-6.58-4.32-12.85-4.32s-7.2,3.39-7.2,4.63c0,2.88,2.78,4.01,6.27,5.24l5.04,1.85Z"/>
        <path class="cls-2" d="M462.23,702.09c-8.33-.1-10.39,0-17.79,.31l-.62-.72c.31-8.43,.62-14.7,.62-25.91,0-14.6-.31-18.2-1.13-26.02l.62-.62,17.69-3.08,.72,.82c-.1,8.74-.31,17.58-.31,26.32,0,14.19,.41,20.26,.93,28.18l-.72,.72Zm-1.44-65.19c-7.3,.92-9.25,1.13-16.25,2.36l-.72-.62c.1-1.95,.1-4.01,.1-5.96,0-2.47-.1-4.63-.31-8.33l.62-.72,16.76-2.06,.62,.62-.31,13.99-.51,.72Z"/>
        <path class="cls-2" d="M522.72,702.09c-7.71,0-9.67,0-16.76,.31l-.51-.62,.21-4.01c-2.47,2.16-6.27,5.55-13.57,5.55-3.4,0-8.95-.82-13.47-4.52-6.07-5.04-8.23-13.06-8.23-21.08,0-10.59,2.98-19.13,10.18-24.68,7.82-6.17,17.48-5.96,25.19-5.76,.1-11.72,0-14.29-.62-23.96l.51-.62,16.97-2.67,.72,.62c-.41,13.57-.82,24.78-.82,51.93,0,13.47,.31,19.64,.72,28.9l-.51,.62Zm-20.46-42.78c-11.52,0-13.78,8.84-13.78,16.76,0,2.06,0,14.81,9.97,14.81,2.88,0,4.94-1.23,6.99-2.47,.31-12.44,.41-15.12,.31-28.79-1.44-.21-2.36-.31-3.5-.31Z"/>
        <path class="cls-2" d="M579.18,679.05c0,9.66,0,12.24,.72,22.31l-.51,.72c-6.68-.1-8.95,0-16.35,.31l-.62-.72v-3.81c-2.16,1.75-6.58,5.45-14.29,5.45-10.08,0-18-7.1-18-18.1,0-4.63,1.95-10.49,7.71-14.09,6.17-3.81,11.93-4.94,24.27-6.58,0-1.54-.31-3.39-1.34-4.42-1.34-1.34-2.88-1.95-6.68-1.95-6.89,0-13.57,2.67-17.17,4.11l-.82-.41,.51-11.21,.62-.82c5.86-1.75,11.31-3.39,20.16-3.39,13.16,0,17.28,4.11,19.33,7.4,2.67,4.32,2.67,8.33,2.57,17.58l-.1,7.61Zm-16.87-3.7c-6.99,.93-15.12,2.06-15.12,8.84,0,4.32,3.09,6.27,6.79,6.27,3.4,0,6.17-1.44,8.33-2.67v-12.44Z"/>
        <path class="cls-2" d="M639.57,702.09c-7.71,0-9.67,0-16.76,.31l-.51-.62,.21-4.01c-2.47,2.16-6.27,5.55-13.57,5.55-3.4,0-8.95-.82-13.47-4.52-6.07-5.04-8.23-13.06-8.23-21.08,0-10.59,2.98-19.13,10.18-24.68,7.82-6.17,17.48-5.96,25.19-5.76,.1-11.72,0-14.29-.62-23.96l.51-.62,16.97-2.67,.72,.62c-.41,13.57-.82,24.78-.82,51.93,0,13.47,.31,19.64,.72,28.9l-.51,.62Zm-20.46-42.78c-11.52,0-13.78,8.84-13.78,16.76,0,2.06,0,14.81,9.97,14.81,2.88,0,4.94-1.23,6.99-2.47,.31-12.44,.41-15.12,.31-28.79-1.44-.21-2.36-.31-3.5-.31Z"/>
        <path class="cls-2" d="M704.65,629.08c7.71,0,16.45,0,22.62,3.6,8.54,4.83,9.56,14.6,9.56,19.02,0,7.2-2.47,13.06-5.35,16.56-7.4,9.05-19.74,9.05-31.26,8.95,0,10.49,0,13.06,.41,24.27l-.51,.62c-8.23-.1-9.87,0-17.48,.31l-.62-.62c.31-12.55,.62-24.99,.62-37.53,0-11.83-.31-20.77-.72-34.14l.62-.62,13.06-.21,9.05-.21Zm-4.42,35.48c6.17,0,9.97-.21,12.75-1.75,5.45-2.98,5.45-8.95,5.45-10.39,0-5.96-2.47-10.59-11.52-10.8-2.26,0-4.42,0-6.69,.1v22.83Z"/>
        <path class="cls-2" d="M789.19,687.17l-.72,11.62-.62,.82c-5.45,2.16-9.15,3.7-17.69,3.7-7.4,0-21.39-1.23-27.35-15.12-1.64-3.6-2.47-8.64-2.47-13.47,0-17.79,10.69-28.38,26.84-28.38,2.37,0,4.73,.21,7.3,.92,3.5,.82,11.41,3.29,15.01,15.43,1.44,5.14,1.54,10.28,1.65,15.32l-.62,.72-33.22,.62c.41,2.06,.72,4.11,2.26,6.27,2.47,3.7,6.68,5.65,12.85,5.65,7.51,0,12.14-2.36,16.04-4.42l.72,.31Zm-14.7-19.13c0-2.37-.1-4.83-1.54-7.1-1.13-1.85-3.19-3.6-6.58-3.6-1.44,0-2.88,.31-4.11,1.13-3.91,2.47-4.63,6.79-4.94,9.98l17.17-.41Z"/>
        <path class="cls-2" d="M828.24,664.35c-1.44-.82-2.47-1.44-4.22-1.44-6.99,0-6.99,6.79-6.99,11.42,0,7.09,.62,18.71,1.03,27.04l-.51,.72c-8.23-.1-9.87,0-17.48,.31l-.62-.62c.21-8.54,.31-16.97,.31-25.4,0-14.29-.31-18.92-.93-26.63l.62-.62c7.51-1.13,9.46-1.44,17.07-3.08l.82,.82-.31,9.46c3.29-7.61,8.02-9.97,12.24-9.97,.72,0,1.44,.1,2.16,.1l.62,.72-2.88,16.76-.93,.41Z"/>
        <path class="cls-2" d="M887.95,647.89c-.21,9.67-.31,19.33-.31,29,0,13.37,.21,17.28,.72,24.58l-.62,.62c-6.68,0-8.95,0-16.45,.31l-.72-.62,.1-4.63c-3.7,2.88-7.92,6.17-15.22,6.17-5.14,0-10.08-1.65-13.47-5.45-3.7-4.32-4.22-9.05-4.11-20.26v-7.2c0-10.39-.1-13.27-.72-21.9l.72-.62,16.97-.82,.72,.82-.21,20.77c-.1,2.57-.1,5.24-.1,7.82,0,6.07,0,13.88,7.4,13.88,2.78,0,4.94-1.54,7.71-3.39,.1-4.11,.1-5.76,.1-8.74,0-1.64,0-18.1-.72-29.72l.72-.62,16.76-.82,.72,.82Z"/>
        <path class="cls-2" d="M944.2,679.05c0,9.66,0,12.24,.72,22.31l-.51,.72c-6.68-.1-8.95,0-16.35,.31l-.62-.72v-3.81c-2.16,1.75-6.58,5.45-14.29,5.45-10.08,0-18-7.1-18-18.1,0-4.63,1.95-10.49,7.71-14.09,6.17-3.81,11.93-4.94,24.27-6.58,0-1.54-.31-3.39-1.34-4.42-1.34-1.34-2.88-1.95-6.68-1.95-6.89,0-13.57,2.67-17.17,4.11l-.82-.41,.51-11.21,.62-.82c5.86-1.75,11.31-3.39,20.16-3.39,13.16,0,17.28,4.11,19.33,7.4,2.67,4.32,2.67,8.33,2.57,17.58l-.1,7.61Zm-16.87-3.7c-6.99,.93-15.12,2.06-15.12,8.84,0,4.32,3.09,6.27,6.79,6.27,3.4,0,6.17-1.44,8.33-2.67v-12.44Z"/>
        <path class="cls-2" d="M1004.59,701.98c-8.23,0-9.97,.1-16.76,.31l-.62-.62c0-3.5,.1-7.1,.1-10.59,0-3.91-.1-17.99-.31-21.39-.31-3.7-.82-9.77-6.48-9.77-3.29,0-5.76,1.75-7.92,3.19,.1,18.4,.21,22.42,.82,38.25l-.62,.62c-8.23,0-9.77,0-17.17,.31l-.62-.62c.1-6.58,.21-13.16,.21-19.74,0-16.76-.62-23.24-1.44-32.19l.62-.72c7.71-1.03,9.46-1.34,17.38-2.98l1.03,.72-.21,5.65c4.73-2.78,10.18-6.07,16.45-6.07,3.7,0,9.56,.82,12.75,6.17,2.57,4.22,2.67,8.95,2.78,18.82v8.02c.21,10.08,.21,12.96,.72,22.01l-.72,.62Z"/>
        <path class="cls-2" d="M1060.97,679.05c0,9.66,0,12.24,.72,22.31l-.51,.72c-6.68-.1-8.95,0-16.35,.31l-.62-.72v-3.81c-2.16,1.75-6.58,5.45-14.29,5.45-10.08,0-18-7.1-18-18.1,0-4.63,1.95-10.49,7.71-14.09,6.17-3.81,11.93-4.94,24.27-6.58,0-1.54-.31-3.39-1.34-4.42-1.34-1.34-2.88-1.95-6.68-1.95-6.89,0-13.57,2.67-17.17,4.11l-.82-.41,.51-11.21,.62-.82c5.86-1.75,11.31-3.39,20.16-3.39,13.16,0,17.28,4.11,19.33,7.4,2.67,4.32,2.67,8.33,2.57,17.58l-.1,7.61Zm-16.87-3.7c-6.99,.93-15.12,2.06-15.12,8.84,0,4.32,3.09,6.27,6.79,6.27,3.4,0,6.17-1.44,8.33-2.67v-12.44Z"/>
      </g>
      <g>
        <path class="cls-2" d="M141.73,813.48c-7.71,0-9.66,0-16.76,.31l-.51-.62,.21-4.01c-2.47,2.16-6.27,5.55-13.57,5.55-3.39,0-8.95-.82-13.47-4.52-6.07-5.04-8.23-13.06-8.23-21.08,0-10.59,2.98-19.13,10.18-24.68,7.82-6.17,17.48-5.96,25.2-5.76,.1-11.72,0-14.29-.62-23.96l.51-.62,16.97-2.67,.72,.62c-.41,13.57-.82,24.78-.82,51.93,0,13.47,.31,19.64,.72,28.9l-.51,.62Zm-20.46-42.78c-11.52,0-13.78,8.84-13.78,16.76,0,2.06,0,14.81,9.98,14.81,2.88,0,4.93-1.23,6.99-2.47,.31-12.44,.41-15.12,.31-28.79-1.44-.21-2.37-.31-3.5-.31Z"/>
        <path class="cls-2" d="M198.62,798.57l-.72,11.62-.62,.82c-5.45,2.16-9.15,3.7-17.69,3.7-7.4,0-21.39-1.23-27.35-15.12-1.65-3.6-2.47-8.64-2.47-13.47,0-17.79,10.69-28.38,26.84-28.38,2.36,0,4.73,.21,7.3,.92,3.5,.82,11.41,3.29,15.01,15.43,1.44,5.14,1.54,10.28,1.65,15.32l-.62,.72-33.22,.62c.41,2.06,.72,4.11,2.26,6.27,2.47,3.7,6.68,5.65,12.85,5.65,7.51,0,12.14-2.36,16.04-4.42l.72,.31Zm-14.7-19.13c0-2.37-.1-4.83-1.54-7.1-1.13-1.85-3.19-3.6-6.58-3.6-1.44,0-2.88,.31-4.11,1.13-3.91,2.47-4.63,6.79-4.94,9.97l17.17-.41Z"/>
        <path class="cls-2" d="M294.14,795.48l-.72,15.32-.51,.62c-3.29,1.34-8.95,3.6-17.58,3.6-25.09,0-37.12-17.38-37.12-37.12,0-18,9.25-38.56,35.89-38.56,9.05,0,15.32,2.37,19.02,3.81l.41,.51-.93,14.19-.92,.21c-2.57-1.95-6.79-4.94-14.5-4.94-16.76,0-19.85,15.53-19.85,24.37,0,14.6,8.23,23.34,19.95,23.34,8.54,0,13.78-3.91,16.14-5.76l.72,.41Z"/>
        <path class="cls-2" d="M319.18,813.48c-8.33-.1-10.39,0-17.79,.31l-.62-.72c.31-8.43,.62-14.7,.62-25.91,0-14.6-.31-18.2-1.13-26.02l.62-.62,17.69-3.08,.72,.82c-.1,8.74-.31,17.58-.31,26.32,0,14.19,.41,20.26,.93,28.18l-.72,.72Zm-1.44-65.19c-7.3,.92-9.25,1.13-16.25,2.36l-.72-.62c.1-1.95,.1-4.01,.1-5.96,0-2.47-.1-4.63-.31-8.33l.62-.72,16.76-2.06,.62,.62-.31,13.99-.51,.72Z"/>
        <path class="cls-2" d="M375.97,798.57l-.72,11.62-.62,.82c-5.45,2.16-9.15,3.7-17.69,3.7-7.4,0-21.39-1.23-27.35-15.12-1.64-3.6-2.47-8.64-2.47-13.47,0-17.79,10.69-28.38,26.84-28.38,2.37,0,4.73,.21,7.3,.92,3.5,.82,11.42,3.29,15.01,15.43,1.44,5.14,1.54,10.28,1.65,15.32l-.62,.72-33.22,.62c.41,2.06,.72,4.11,2.26,6.27,2.47,3.7,6.68,5.65,12.85,5.65,7.51,0,12.14-2.36,16.04-4.42l.72,.31Zm-14.71-19.13c0-2.37-.1-4.83-1.54-7.1-1.13-1.85-3.19-3.6-6.58-3.6-1.44,0-2.88,.31-4.11,1.13-3.91,2.47-4.63,6.79-4.94,9.97l17.17-.41Z"/>
        <path class="cls-2" d="M435.98,813.37c-8.23,0-9.97,.1-16.76,.31l-.62-.62c0-3.5,.1-7.1,.1-10.59,0-3.91-.1-17.99-.31-21.39-.31-3.7-.82-9.77-6.48-9.77-3.29,0-5.76,1.75-7.92,3.19,.1,18.41,.21,22.42,.82,38.25l-.62,.62c-8.23,0-9.77,0-17.17,.31l-.62-.62c.1-6.58,.21-13.16,.21-19.74,0-16.76-.62-23.24-1.44-32.19l.62-.72c7.71-1.03,9.46-1.34,17.38-2.98l1.03,.72-.21,5.65c4.73-2.78,10.18-6.07,16.45-6.07,3.7,0,9.56,.82,12.75,6.17,2.57,4.22,2.67,8.95,2.78,18.82v8.02c.21,10.08,.21,12.96,.72,22.01l-.72,.62Z"/>
        <path class="cls-2" d="M487.52,799.18l-.41,12.34-.62,.62c-4.32,1.23-7.82,2.26-13.26,2.26-23.14,0-29.31-16.04-29.31-27.87,0-10.49,4.73-28.79,28.9-28.79,5.96,0,9.87,1.23,14.4,2.67l.51,.62c-.82,5.45-.92,6.89-1.34,12.34l-1.03,.31c-3.08-2.06-5.55-3.7-10.08-3.7-9.97,0-13.26,8.64-13.26,16.14,0,6.17,2.37,15.84,13.98,15.84,5.24,0,7.92-1.64,10.69-3.29l.82,.51Z"/>
        <path class="cls-2" d="M513.47,813.48c-8.33-.1-10.39,0-17.79,.31l-.62-.72c.31-8.43,.62-14.7,.62-25.91,0-14.6-.31-18.2-1.13-26.02l.62-.62,17.69-3.08,.72,.82c-.1,8.74-.31,17.58-.31,26.32,0,14.19,.41,20.26,.93,28.18l-.72,.72Zm-1.44-65.19c-7.3,.92-9.25,1.13-16.25,2.36l-.72-.62c.1-1.95,.1-4.01,.1-5.96,0-2.47-.1-4.63-.31-8.33l.62-.72,16.76-2.06,.62,.62-.31,13.99-.51,.72Z"/>
        <path class="cls-2" d="M569.83,790.44c0,9.66,0,12.24,.72,22.31l-.51,.72c-6.68-.1-8.95,0-16.35,.31l-.62-.72v-3.81c-2.16,1.75-6.58,5.45-14.29,5.45-10.08,0-18-7.1-18-18.1,0-4.63,1.95-10.49,7.71-14.09,6.17-3.81,11.93-4.94,24.27-6.58,0-1.54-.31-3.39-1.34-4.42-1.34-1.34-2.88-1.95-6.68-1.95-6.89,0-13.57,2.67-17.17,4.11l-.82-.41,.51-11.21,.62-.82c5.86-1.75,11.31-3.39,20.16-3.39,13.16,0,17.28,4.11,19.33,7.4,2.67,4.32,2.67,8.33,2.57,17.58l-.1,7.61Zm-16.87-3.7c-6.99,.93-15.12,2.06-15.12,8.84,0,4.32,3.09,6.27,6.79,6.27,3.4,0,6.17-1.44,8.33-2.67v-12.44Z"/>
        <path class="cls-2" d="M607.51,779.85c5.65,2.16,13.57,5.14,13.57,16.45,0,.72,0,1.44-.1,2.26-1.85,14.7-17.28,16.15-25.09,16.15s-11.83-1.65-16.86-3.5l-.51-.92c.41-5.14,.51-6.27,.72-11.62l.92-.41c1.54,1.23,2.37,1.95,4.11,2.88,3.8,1.95,8.02,2.88,10.9,2.88,5.76,0,8.12-2.78,8.12-5.35,0-3.7-4.52-5.24-7.3-6.17l-3.91-1.44c-4.83-1.85-13.37-5.14-13.37-16.15,0-4.11,1.44-7.2,2.78-9.05,5.35-7.71,15.43-8.12,20.46-8.12,6.69,0,10.9,1.23,15.73,2.57l.51,.62-1.03,11.21-.93,.31c-2.57-1.64-6.58-4.32-12.85-4.32s-7.2,3.39-7.2,4.63c0,2.88,2.78,4.01,6.27,5.24l5.04,1.85Z"/>
        <path class="cls-2" d="M702.41,741.19c5.86,22.62,7.3,27.46,19.74,71.47l-.51,.82c-8.33-.1-10.39,0-17.89,.31l-.72-.62-4.42-19.02h-22.21l-5.04,18.72-.72,.62h-16.04l-.41-.72c15.12-43.39,18.41-53.78,23.86-71.26l.72-.62c11,0,13.06,0,22.93-.31l.72,.62Zm-6.79,40.51l-3.8-16.04-3.09-13.37-3.6,12.03-5.14,17.38h15.63Z"/>
        <path class="cls-2" d="M745.13,762.57c2.88-1.95,6.89-4.83,13.98-4.83,11.52,0,21.49,9.87,21.49,26.22,0,6.99-2.16,15.73-8.74,21.9-8.33,7.82-18.72,7.92-26.22,8.02l.72,24.48-.62,.51c-7.82-.1-9.97,0-17.28,.31l-.62-.51c.31-11.62,.51-18.61,.51-30.85,0-29.62-.41-34.35-1.54-46.58l.62-.72c7.4-.92,9.56-1.34,17.07-2.98l.82,.92-.21,4.11Zm.41,39.9c3.6-.1,7.71-.31,11-2.57,4.11-2.88,6.07-8.23,6.07-14.19,0-3.5-.51-8.74-3.7-12.24-2.57-2.88-5.66-3.09-7.2-3.09-2.57,0-3.91,.72-6.17,2.06v30.03Z"/>
        <path class="cls-2" d="M806.03,813.48c-7.51-.1-10.28,0-17.17,.31l-.62-.72c.41-10.18,.62-16.35,.62-27.46,0-6.07,0-12.13-.1-18.2-.21-16.66-.31-20.05-1.34-32.6l.41-.62,17.58-2.78,.72,.72c-.41,11.11-.51,15.73-.51,25.5,0,32.49,.51,43.29,1.03,55.12l-.62,.72Z"/>
        <path class="cls-2" d="M834.91,813.48c-8.33-.1-10.39,0-17.79,.31l-.62-.72c.31-8.43,.62-14.7,.62-25.91,0-14.6-.31-18.2-1.13-26.02l.62-.62,17.69-3.08,.72,.82c-.1,8.74-.31,17.58-.31,26.32,0,14.19,.41,20.26,.93,28.18l-.72,.72Zm-1.44-65.19c-7.3,.92-9.25,1.13-16.25,2.36l-.72-.62c.1-1.95,.1-4.01,.1-5.96,0-2.47-.1-4.63-.31-8.33l.62-.72,16.76-2.06,.62,.62-.31,13.99-.51,.72Z"/>
        <path class="cls-2" d="M886.41,799.18l-.41,12.34-.62,.62c-4.32,1.23-7.82,2.26-13.26,2.26-23.14,0-29.31-16.04-29.31-27.87,0-10.49,4.73-28.79,28.9-28.79,5.96,0,9.87,1.23,14.4,2.67l.51,.62c-.82,5.45-.92,6.89-1.34,12.34l-1.03,.31c-3.08-2.06-5.55-3.7-10.08-3.7-9.97,0-13.26,8.64-13.26,16.14,0,6.17,2.37,15.84,13.98,15.84,5.24,0,7.92-1.64,10.69-3.29l.82,.51Z"/>
        <path class="cls-2" d="M940.43,790.44c0,9.66,0,12.24,.72,22.31l-.51,.72c-6.68-.1-8.95,0-16.35,.31l-.62-.72v-3.81c-2.16,1.75-6.58,5.45-14.29,5.45-10.08,0-18-7.1-18-18.1,0-4.63,1.95-10.49,7.71-14.09,6.17-3.81,11.93-4.94,24.27-6.58,0-1.54-.31-3.39-1.34-4.42-1.34-1.34-2.88-1.95-6.68-1.95-6.89,0-13.57,2.67-17.17,4.11l-.82-.41,.51-11.21,.62-.82c5.86-1.75,11.31-3.39,20.16-3.39,13.16,0,17.28,4.11,19.33,7.4,2.67,4.32,2.67,8.33,2.57,17.58l-.1,7.61Zm-16.87-3.7c-6.99,.93-15.12,2.06-15.12,8.84,0,4.32,3.09,6.27,6.79,6.27,3.4,0,6.17-1.44,8.33-2.67v-12.44Z"/>
        <path class="cls-2" d="M1000.83,813.48c-7.71,0-9.67,0-16.76,.31l-.51-.62,.21-4.01c-2.47,2.16-6.27,5.55-13.57,5.55-3.4,0-8.95-.82-13.47-4.52-6.07-5.04-8.23-13.06-8.23-21.08,0-10.59,2.98-19.13,10.18-24.68,7.82-6.17,17.48-5.96,25.19-5.76,.1-11.72,0-14.29-.62-23.96l.51-.62,16.97-2.67,.72,.62c-.41,13.57-.82,24.78-.82,51.93,0,13.47,.31,19.64,.72,28.9l-.51,.62Zm-20.46-42.78c-11.52,0-13.78,8.84-13.78,16.76,0,2.06,0,14.81,9.97,14.81,2.88,0,4.94-1.23,6.99-2.47,.31-12.44,.41-15.12,.31-28.79-1.44-.21-2.36-.31-3.5-.31Z"/>
        <path class="cls-2" d="M1057.29,790.44c0,9.66,0,12.24,.72,22.31l-.51,.72c-6.68-.1-8.95,0-16.35,.31l-.62-.72v-3.81c-2.16,1.75-6.58,5.45-14.29,5.45-10.08,0-18-7.1-18-18.1,0-4.63,1.95-10.49,7.71-14.09,6.17-3.81,11.93-4.94,24.27-6.58,0-1.54-.31-3.39-1.34-4.42-1.34-1.34-2.88-1.95-6.68-1.95-6.89,0-13.57,2.67-17.17,4.11l-.82-.41,.51-11.21,.62-.82c5.86-1.75,11.31-3.39,20.16-3.39,13.16,0,17.28,4.11,19.33,7.4,2.67,4.32,2.67,8.33,2.57,17.58l-.1,7.61Zm-16.87-3.7c-6.99,.93-15.12,2.06-15.12,8.84,0,4.32,3.09,6.27,6.79,6.27,3.4,0,6.17-1.44,8.33-2.67v-12.44Z"/>
        <path class="cls-2" d="M1094.97,779.85c5.65,2.16,13.57,5.14,13.57,16.45,0,.72,0,1.44-.1,2.26-1.85,14.7-17.28,16.15-25.09,16.15s-11.83-1.65-16.86-3.5l-.51-.92c.41-5.14,.51-6.27,.72-11.62l.92-.41c1.54,1.23,2.37,1.95,4.11,2.88,3.8,1.95,8.02,2.88,10.9,2.88,5.76,0,8.12-2.78,8.12-5.35,0-3.7-4.52-5.24-7.3-6.17l-3.91-1.44c-4.83-1.85-13.37-5.14-13.37-16.15,0-4.11,1.44-7.2,2.78-9.05,5.35-7.71,15.43-8.12,20.46-8.12,6.69,0,10.9,1.23,15.73,2.57l.51,.62-1.03,11.21-.93,.31c-2.57-1.64-6.58-4.32-12.85-4.32s-7.2,3.39-7.2,4.63c0,2.88,2.78,4.01,6.27,5.24l5.04,1.85Z"/>
      </g>
      <g>
        <path class="cls-2" d="M103.32,850.14c-.27,6.03-.45,13.14-.45,28.62,0,17.28,.18,24.66,.72,33.92l-.54,.63c-3.96,.09-5.22,.09-9.99,.27l-.54-.63c.18-5.49,.36-10.26,.36-21.87,0-13.59,0-27.08-.63-40.58l.45-.72c3.96,0,5.4,0,9.99-.27l.63,.63Z"/>
        <path class="cls-2" d="M155,905.93c-.27,3.06-.27,3.69-.45,6.75l-.63,.63c-17.55,0-20.34,.09-37.43,.27l-.45-.63c.27-7.11,.54-11.97,.54-28.44,0-15.12,0-23.76-.63-34.1l.54-.63c17.73-.09,21.24-.09,37.79-.27l.54,.63c-.27,2.7-.45,3.78-.63,7.02l-.54,.63c-11.61-.36-15.48-.36-26.91-.45-.27,8.28-.27,10.89-.27,19.17,11.07,.09,14.49,0,25.47-.18l.45,.63c-.36,3.15-.36,4.05-.45,6.93l-.54,.63c-10.44-.27-12.69-.27-24.93-.27-.18,10.44-.09,12.96,0,21.51,13.59,0,16.38,0,27.99-.45l.54,.63Z"/>
        <path class="cls-2" d="M202.43,905.93c-.27,3.06-.27,3.69-.45,6.75l-.63,.63c-17.55,0-20.34,.09-37.43,.27l-.45-.63c.27-7.11,.54-11.97,.54-28.44,0-15.12,0-23.76-.63-34.1l.54-.63c17.73-.09,21.24-.09,37.79-.27l.54,.63c-.27,2.7-.45,3.78-.63,7.02l-.54,.63c-11.61-.36-15.48-.36-26.9-.45-.27,8.28-.27,10.89-.27,19.17,11.07,.09,14.49,0,25.47-.18l.45,.63c-.36,3.15-.36,4.05-.45,6.93l-.54,.63c-10.44-.27-12.69-.27-24.93-.27-.18,10.44-.09,12.96,0,21.51,13.59,0,16.38,0,27.99-.45l.54,.63Z"/>
        <path class="cls-2" d="M249.86,905.93c-.27,3.06-.27,3.69-.45,6.75l-.63,.63c-17.55,0-20.34,.09-37.44,.27l-.45-.63c.27-7.11,.54-11.97,.54-28.44,0-15.12,0-23.76-.63-34.1l.54-.63c17.73-.09,21.24-.09,37.79-.27l.54,.63c-.27,2.7-.45,3.78-.63,7.02l-.54,.63c-11.61-.36-15.48-.36-26.9-.45-.27,8.28-.27,10.89-.27,19.17,11.07,.09,14.49,0,25.47-.18l.45,.63c-.36,3.15-.36,4.05-.45,6.93l-.54,.63c-10.44-.27-12.69-.27-24.93-.27-.18,10.44-.09,12.96,0,21.51,13.59,0,16.38,0,27.99-.45l.54,.63Z"/>
        <path class="cls-2" d="M309.14,877.32c6.57,2.88,15.3,6.66,15.3,18.18,0,10.08-7.47,19.17-23.13,19.17-9.54,0-15.66-2.88-17.82-3.96l-.36-.63c.36-3.15,.45-4.86,.72-8.28l.9-.36c2.25,1.53,7.47,5.31,15.84,5.31,9.27,0,13.14-4.77,13.14-10.17,0-6.3-5.22-8.73-11.07-10.98l-4.5-1.98c-6.39-2.97-14.94-6.84-14.94-17.82,0-3.33,.9-6.75,2.79-9.45,4.14-5.94,11.61-7.92,18.9-7.92s11.43,1.35,16.2,2.88l.45,.72c-.36,3.42-.45,4.68-.72,7.92l-.72,.36c-3.87-1.98-8.1-4.14-14.85-4.14-7.47,0-12.15,3.51-12.15,8.82,0,4.05,2.7,5.94,4.59,7.11,1.17,.72,1.53,.9,6.93,3.24l4.5,1.98Z"/>
        <path class="cls-2" d="M353.08,906.2c-.27,2.97-.27,3.6-.36,6.21l-.45,.54c-1.89,.45-3.42,.81-6.75,.81-2.16,0-7.83,0-10.62-4.68-1.62-2.61-1.62-4.77-1.62-15.39l.18-19.8c-3.15,0-3.24,.09-6.48,.18l-.36-.54c.18-2.88,.18-3.6,.18-6.48l.54-.54c1.98,0,3.15,.09,6.12,0-.09-1.89-.09-3.87-.09-5.76-.09-1.71-.18-3.42-.27-5.13l.45-.63c4.05-.99,5.04-1.26,9.18-2.52l.63,.45c-.27,5.94-.36,7.11-.36,13.68,3.78-.09,4.86-.09,9.99-.27l.45,.54c-.18,2.34-.27,3.33-.27,6.39l-.45,.54c-4.5-.09-5.04-.18-9.81-.18l-.18,16.74c.09,1.08,.09,6.21,.09,7.47,0,6.57,.81,8.64,5.31,8.64,1.89,0,3.33-.45,4.32-.81l.63,.54Z"/>
        <path class="cls-2" d="M400.16,866.79c-.18,6.84-.27,13.23-.27,20.52,0,11.07,.27,17.73,.45,21.59,0,1.26,.09,2.52,.18,3.78l-.36,.54c-4.32,.09-5.04,.18-9.18,.36l-.54-.54,.09-3.78c-1.98,1.44-6.75,5.13-14.13,5.13-3.51,0-7.38-.81-10.26-3.06-5.76-4.68-5.76-12.33-5.85-19.35v-5.58c-.18-12.87-.18-14.31-.45-19.17l.45-.63c4.23-.09,5.04-.09,9.27-.45l.54,.63-.36,19.71c0,2.43-.09,4.23,0,8.55,.09,3.78,.27,11.88,9.36,11.88,5.31,0,9.09-2.97,11.25-4.68,.09-4.86,.09-9,.09-14.22,0-12.51-.09-15.03-.63-20.88l.54-.63c4.14-.09,5.13-.09,9.27-.36l.54,.63Z"/>
        <path class="cls-2" d="M441.46,843.39c4.59-.81,5.49-.99,9.54-1.89l.63,.54c-.63,12.51-.72,34.82-.72,43.82,0,13.95,.36,20.61,.72,26.82l-.45,.63c-3.96,0-5.04,.09-9.18,.27l-.63-.54,.18-3.33c-2.16,1.62-5.85,4.5-12.42,4.5-11.97,0-20.25-9.45-20.25-23.13,0-9.81,4.14-16.02,7.92-19.35,6.57-5.94,15.12-6.21,19.8-6.21,1.89,0,2.79,0,5.22,.18,.09-11.16-.36-16.56-.81-21.78l.45-.54Zm.09,29.6c-1.53-.09-2.61-.27-4.5-.27-2.79,0-8.73,.18-13.05,4.23-1.98,1.89-5.22,6.12-5.22,14.13,0,5.13,1.44,8.82,3.33,11.07,1.62,1.89,4.59,4.05,9.27,4.05,5.49,0,8.82-2.88,10.08-3.96,.18-11.79,.18-14.49,.09-29.25Z"/>
        <path class="cls-2" d="M499.65,902.33c-.45,3.6-.54,4.5-.72,8.01l-.54,.63c-1.53,.81-6.39,3.42-14.4,3.42-14.76,0-24.03-8.46-24.03-24.12,0-16.74,10.08-24.93,21.86-24.93,7.11,0,12.06,2.97,14.76,6.21,5.13,6.12,4.95,15.03,4.86,18.99l-.63,.54c-14.04-.09-16.47-.09-31.23,0,.09,3.15,.36,7.56,3.42,11.25,3.69,4.41,8.82,4.86,11.61,4.86,2.61,0,5.31-.45,7.83-1.35,3.33-1.35,5.31-2.97,6.48-3.96l.72,.45Zm-8.37-23.49c-1.8-4.95-5.76-7.02-9.81-7.02-5.04,0-10.98,3.42-11.88,12.42,10.89,.09,14.31,0,22.59-.09-.09-1.26-.18-3.24-.9-5.31Z"/>
        <path class="cls-2" d="M550.07,913.22c-4.32,.09-4.86,.09-9,.36l-.63-.63c0-.99,.09-1.98,.09-2.97,.09-4.41,.09-8.82,.09-13.23,0-13.86-.09-14.76-.54-16.65-1.71-6.84-6.84-6.84-8.1-6.84-5.4,0-9.54,3.15-11.97,5.04-.09,15.66,.09,23.85,.72,34.37l-.54,.54c-4.41,.09-5.13,.09-9.45,.36l-.45-.63c.09-5.04,.27-9.9,.27-16.56,0-14.4-.63-22.05-1.08-28.08l.54-.63c4.5-.81,5.31-.99,9.54-1.8l.63,.63-.09,4.68c2.34-1.62,7.92-5.58,15.84-5.58,2.25,0,5.04,.36,7.47,1.71,2.34,1.35,4.23,3.42,5.22,5.85,1.17,2.7,1.26,5.4,1.35,10.98v10.53c.27,10.53,.36,14.58,.63,18l-.54,.54Z"/>
        <path class="cls-2" d="M582.6,906.2c-.27,2.97-.27,3.6-.36,6.21l-.45,.54c-1.89,.45-3.42,.81-6.75,.81-2.16,0-7.83,0-10.62-4.68-1.62-2.61-1.62-4.77-1.62-15.39l.18-19.8c-3.15,0-3.24,.09-6.48,.18l-.36-.54c.18-2.88,.18-3.6,.18-6.48l.54-.54c1.98,0,3.15,.09,6.12,0-.09-1.89-.09-3.87-.09-5.76-.09-1.71-.18-3.42-.27-5.13l.45-.63c4.05-.99,5.04-1.26,9.18-2.52l.63,.45c-.27,5.94-.36,7.11-.36,13.68,3.78-.09,4.86-.09,9.99-.27l.45,.54c-.18,2.34-.27,3.33-.27,6.39l-.45,.54c-4.5-.09-5.04-.18-9.81-.18l-.18,16.74c.09,1.08,.09,6.21,.09,7.47,0,6.57,.81,8.64,5.31,8.64,1.89,0,3.33-.45,4.32-.81l.63,.54Z"/>
        <path class="cls-2" d="M617.5,913.58l-.45-.63c.18-4.32,.27-8.46,.27-16.65,0-3.87,.09-22.68,.09-26.9,0-9.45-.27-14.31-.63-18.99l.45-.63,12.06-.18c1.8-.09,4.59-.09,7.02-.09,5.31,0,10.98,.18,15.48,2.79,3.33,1.89,7.11,5.67,7.11,12.33,0,3.15-.9,12.15-13.41,15.21,2.07,.09,5.04,.18,8.28,1.62,7.74,3.42,8.55,10.26,8.55,13.59,0,8.28-5.13,14.13-12.33,16.74-4.77,1.71-9.54,1.71-16.65,1.71l-15.84,.09Zm9.72-36.62c8.1,.09,14.31,0,18.09-2.97,2.25-1.89,3.69-4.86,3.69-7.83,0-2.43-.99-4.77-2.52-6.39-3.15-3.06-8.73-3.06-10.8-3.06-2.88,0-5.67,.09-8.46,.27v19.98Zm0,7.56c0,10.26,0,11.79,.36,21.6h1.71c6.75,0,12.24,.09,15.75-1.35,4.32-1.62,6.75-5.4,6.75-9.9,0-10.53-11.61-10.62-15.93-10.62-.81,0-1.62,0-6.48,.18l-2.16,.09Z"/>
        <path class="cls-2" d="M692.48,875.88c-.9-.36-2.07-.81-3.6-.81-1.71,0-2.97,.63-3.78,1.17-3.69,2.61-3.69,6.57-3.69,15.93,0,10.17,.27,15.48,.63,20.52l-.45,.63c-4.23,0-5.22,.09-9.54,.27l-.45-.54c.09-6.84,.18-13.05,.18-21.42,0-14.4-.27-18.09-.81-23.31l.54-.63c3.42-.63,5.58-1.08,9.36-1.8l.54,.54-.45,7.65c1.08-2.88,3.33-8.64,10.98-8.64,1.17,0,1.8,.09,2.52,.27l.36,.54c-.9,4.32-1.08,5.22-1.71,9.18l-.63,.45Z"/>
        <path class="cls-2" d="M734.04,894.78c0,11.16,.09,12.15,.54,18l-.45,.45c-4.23,.09-4.95,.18-9.09,.36l-.36-.54,.09-3.24c-1.71,1.35-5.76,4.59-12.6,4.59-9,0-15.3-6.12-15.3-15.03,0-12.06,10.08-15.93,26.27-17.82l1.53-.18c0-2.43,0-4.14-.81-5.58-.9-1.62-2.97-3.33-7.47-3.33-5.85,0-9.9,1.8-13.68,3.42l-.72-.45c.18-4.14,.18-4.68,.27-6.57l.54-.54c5.04-1.8,10.26-2.97,15.57-2.97,6.66,0,13.14,2.25,15.03,9.27,.63,2.52,.63,7.47,.63,11.25v8.91Zm-10.08-6.57c-9.09,1.35-17.55,2.61-17.55,10.62,0,.45,0,8.19,8.55,8.19,5.58,0,8.82-3.06,9.81-3.96v-15.03l-.81,.18Z"/>
        <path class="cls-2" d="M785.09,913.22c-4.32,.09-4.86,.09-9,.36l-.63-.63c0-.99,.09-1.98,.09-2.97,.09-4.41,.09-8.82,.09-13.23,0-13.86-.09-14.76-.54-16.65-1.71-6.84-6.84-6.84-8.1-6.84-5.4,0-9.54,3.15-11.97,5.04-.09,15.66,.09,23.85,.72,34.37l-.54,.54c-4.41,.09-5.13,.09-9.45,.36l-.45-.63c.09-5.04,.27-9.9,.27-16.56,0-14.4-.63-22.05-1.08-28.08l.54-.63c4.5-.81,5.31-.99,9.54-1.8l.63,.63-.09,4.68c2.34-1.62,7.92-5.58,15.84-5.58,2.25,0,5.04,.36,7.47,1.71,2.34,1.35,4.23,3.42,5.22,5.85,1.17,2.7,1.26,5.4,1.35,10.98v10.53c.27,10.53,.36,14.58,.63,18l-.54,.54Z"/>
        <path class="cls-2" d="M829.92,902.6c-.36,3.87-.45,4.32-.72,8.01l-.63,.63c-2.61,1.26-6.12,3.06-12.42,3.06-13.59,0-22.41-9.81-22.41-23.85s8.64-25.11,22.59-25.11c5.85,0,9.99,1.89,12.33,2.88l.36,.63c-.36,3.24-.45,4.41-.63,7.11l-.72,.36c-2.97-2.16-6.39-3.51-9.99-3.51-7.47,0-14.04,5.76-14.04,17.28,0,12.24,6.93,16.65,13.95,16.65,6.12,0,9.9-3.15,11.61-4.5l.72,.36Z"/>
        <path class="cls-2" d="M876.7,913.22c-4.32,.09-4.86,.09-9,.36l-.63-.63,.09-2.97c.09-4.68,.09-9.45,.09-14.13l-.09-9.63c0-2.07,0-4.14-.45-6.12-.99-4.14-3.51-6.84-8.1-6.84-5.13,0-9.09,2.88-12.06,5.04-.09,15.66,.09,23.85,.63,34.37l-.45,.54c-4.14,.09-5.22,.09-9.63,.36l-.45-.63c.18-6.39,.45-14.49,.45-31.76,0-7.56-.09-15.12-.18-22.68-.18-7.92-.45-10.53-.72-14.58l.45-.54c4.32-.72,5.76-.99,9.81-1.89l.54,.63c-.54,9.63-.54,19.35-.54,29.07,2.88-1.89,8.55-5.58,16.11-5.58,2.07,0,4.14,.27,6.03,1.08,4.05,1.62,6.48,4.86,7.38,8.55,.45,1.8,.45,2.88,.63,8.91v10.53l.09,4.23c.18,7.56,.18,8.82,.54,13.77l-.54,.54Z"/>
      </g>
      <rect class="cls-4" y="459.7" width="1194.22" height="6.43"/>
      <g id="CS">
        <path class="cls-1" d="M392.36,312.96c-.21,0-.42-.02-.63-.07-1.64-.35-2.68-1.96-2.33-3.59L454.77,2.4c.35-1.64,1.95-2.7,3.6-2.33,1.64,.35,2.68,1.96,2.33,3.6l-65.38,306.89c-.3,1.42-1.56,2.4-2.96,2.4h0Z"/>
        <path class="cls-5" d="M531.62,78.57c-7.37-.08-9.24-.08-16.92,.23l-.31-.39c0-6.99,.08-13.89,.16-20.8,.07-4.42,.15-8.85,.15-13.28,0-6.83-.15-11.87-.47-20.18l.39-.39c7.61,.08,9.24,.08,16.85-.23l.31,.39c-.23,7.76-.39,12.42-.39,21.35,0,10.94,.23,22.05,.54,32.91l-.31,.39h0Z"/>
        <path class="cls-5" d="M560.18,55.9v10.71c6.05,0,11.72-.16,19.72-.47l.47,.47-.78,11.49-.7,.47c-10.64,0-12.42-.08-14.75-.08-8.54,0-12.96,.16-20.34,.31l-.39-.54c.24-8.93,.31-13.74,.31-24.3,0-18.63-.16-21.81-.54-29.73l.47-.47h34.93l.39,.31-.54,10.71-.47,.39h-17.93v9.86l17-.31,.47,.55-.62,10.17-.54,.47h-16.15Z"/>
        <path class="cls-5" d="M605.42,55.9v10.71c6.05,0,11.72-.16,19.72-.47l.46,.47-.78,11.49-.7,.47c-10.63,0-12.42-.08-14.75-.08-8.54,0-12.96,.16-20.34,.31l-.39-.54c.24-8.93,.31-13.74,.31-24.3,0-18.63-.15-21.81-.54-29.73l.47-.47h34.93l.39,.31-.54,10.71-.46,.39h-17.93v9.86l17-.31,.47,.55-.62,10.17-.54,.47h-16.14Z"/>
        <path class="cls-5" d="M650.65,55.9v10.71c6.06,0,11.73-.16,19.72-.47l.47,.47-.78,11.49-.7,.47c-10.63,0-12.42-.08-14.75-.08-8.54,0-12.97,.16-20.34,.31l-.39-.54c.24-8.93,.31-13.74,.31-24.3,0-18.63-.16-21.81-.54-29.73l.47-.47h34.93l.39,.31-.54,10.71-.46,.39h-17.93v9.86l17-.31,.46,.55-.62,10.17-.54,.47h-16.15Z"/>
        <path class="cls-5" d="M534.16,123.04c-3.45-1.74-6.92-2.61-10.4-2.61-4.2,0-8.04,1.03-11.53,3.1-3.49,2.06-6.22,4.87-8.21,8.43-1.99,3.56-2.99,7.51-2.99,11.84s.99,8.31,2.99,11.9c1.99,3.59,4.73,6.44,8.21,8.53,3.49,2.1,7.33,3.15,11.53,3.15,3.34,0,6.74-.8,10.19-2.4,3.45-1.6,6.52-3.75,9.23-6.45l9.92,10.78c-3.99,4.13-8.66,7.4-14.03,9.82-5.37,2.42-10.76,3.63-16.17,3.63-7.33,0-13.98-1.69-19.95-5.07-5.98-3.37-10.67-8.01-14.09-13.92-3.41-5.9-5.12-12.48-5.12-19.74s1.74-13.69,5.23-19.53c3.49-5.83,8.27-10.42,14.35-13.76,6.08-3.34,12.82-5.02,20.22-5.02,5.41,0,10.74,1.12,16.01,3.36,5.26,2.24,9.74,5.28,13.44,9.12l-9.81,12.06c-2.56-3.06-5.57-5.46-9.02-7.2h0Z"/>
        <path class="cls-5" d="M586.28,123.57c-3.56,2.1-6.37,4.96-8.43,8.59-2.06,3.63-3.09,7.61-3.09,11.95s1.05,8.43,3.15,12.06c2.09,3.63,4.91,6.51,8.43,8.64,3.52,2.13,7.34,3.2,11.47,3.2s7.91-1.05,11.36-3.15c3.45-2.1,6.19-4.98,8.22-8.64,2.03-3.66,3.04-7.7,3.04-12.11s-1.01-8.32-3.04-11.95c-2.03-3.63-4.77-6.49-8.22-8.59-3.45-2.1-7.24-3.15-11.36-3.15s-7.97,1.05-11.52,3.15h0Zm31.69-12.86c6.12,3.34,10.94,7.95,14.46,13.82,3.52,5.87,5.28,12.39,5.28,19.58s-1.76,13.73-5.28,19.63c-3.52,5.9-8.34,10.54-14.46,13.92-6.12,3.38-12.91,5.07-20.38,5.07s-14.26-1.69-20.38-5.07c-6.12-3.37-10.94-8-14.46-13.87-3.52-5.87-5.28-12.43-5.28-19.68s1.76-13.71,5.28-19.58c3.52-5.87,8.32-10.47,14.4-13.82,6.08-3.34,12.89-5.02,20.43-5.02s14.26,1.67,20.38,5.02h0Z"/>
        <polygon class="cls-5" points="649.86 106.87 668.64 106.87 691.9 152.75 714.95 106.87 733.62 106.87 733.62 181.56 718.47 181.56 718.47 131.09 697.24 173.98 686.36 173.98 665.01 131.09 665.01 181.56 649.86 181.56 649.86 106.87 649.86 106.87"/>
        <path class="cls-5" d="M792.99,142.88c2.52-2.17,3.79-5.35,3.79-9.55s-1.27-7.24-3.79-9.34c-2.53-2.1-6.17-3.15-10.94-3.15h-13.98v25.29h13.98c4.76,0,8.41-1.08,10.94-3.25h0Zm12-29.23c5.19,4.52,7.79,10.9,7.79,19.15,0,8.68-2.62,15.42-7.84,20.22-5.23,4.8-12.58,7.2-22.03,7.2h-14.83v21.34h-16.86V106.87h31.69c9.53,0,16.89,2.26,22.09,6.77h0Z"/>
        <path class="cls-5" d="M844.74,163.37c3.03,3.09,7.06,4.64,12.11,4.64s8.82-1.53,11.73-4.59c2.92-3.06,4.38-7.29,4.38-12.7v-43.85h16.86v43.85c0,6.55-1.33,12.22-4,17.02-2.67,4.8-6.49,8.5-11.47,11.1-4.97,2.6-10.85,3.9-17.6,3.9s-12.67-1.3-17.72-3.9c-5.05-2.6-8.93-6.29-11.63-11.1-2.71-4.8-4.06-10.47-4.06-17.02v-43.85h16.86v43.85c0,5.34,1.51,9.55,4.53,12.64h0Z"/>
        <polygon class="cls-5" points="898.67 106.87 961.09 106.87 961.09 121.17 938.26 121.17 938.26 181.56 921.4 181.56 921.4 121.17 898.67 121.17 898.67 106.87 898.67 106.87"/>
        <polygon class="cls-5" points="971.23 106.87 1028.09 106.87 1028.09 120.85 988.08 120.85 988.08 137.07 1024.04 137.07 1024.04 151.04 988.08 151.04 988.08 167.58 1029.27 167.58 1029.27 181.56 971.23 181.56 971.23 106.87 971.23 106.87"/>
        <path class="cls-5" d="M1060.42,146.14h15.57c4.7,0,8.3-1.08,10.83-3.25,2.53-2.17,3.79-5.35,3.79-9.55s-1.26-7.24-3.79-9.34c-2.53-2.1-6.14-3.15-10.83-3.15h-15.57v25.29h0Zm29.02,35.42l-11.84-21.34h-17.18v21.34h-16.86V106.87h32.43c9.75,0,17.29,2.26,22.62,6.77,5.34,4.52,8.01,10.9,8.01,19.15,0,5.76-1.2,10.69-3.58,14.78-2.38,4.09-5.85,7.2-10.4,9.33l15.89,24.65h-19.1Z"/>
        <path class="cls-5" d="M500.01,228.77c-4.31-1.39-7.99-2.08-11.04-2.08s-5.23,.53-6.94,1.6c-1.71,1.07-2.56,2.63-2.56,4.7,0,2.63,1.23,4.64,3.68,6.03,2.46,1.39,6.24,2.83,11.37,4.32,5.12,1.5,9.33,2.99,12.64,4.49,3.31,1.49,6.14,3.73,8.48,6.72,2.35,2.99,3.52,6.93,3.52,11.85s-1.26,8.87-3.79,12.32c-2.53,3.45-5.99,6.06-10.4,7.84-4.41,1.78-9.42,2.67-15.04,2.67-6.05,0-11.99-1.07-17.82-3.2-5.83-2.13-10.88-5.05-15.15-8.75l6.72-13.76c3.77,3.41,8.11,6.15,13.02,8.22,4.91,2.06,9.39,3.09,13.45,3.09,3.48,0,6.2-.64,8.16-1.92,1.96-1.28,2.93-3.13,2.93-5.55,0-1.92-.66-3.5-1.97-4.75-1.32-1.24-2.99-2.26-5.02-3.04-2.03-.78-4.82-1.67-8.38-2.67-5.12-1.43-9.3-2.85-12.54-4.27-3.24-1.42-6.03-3.59-8.38-6.51-2.35-2.91-3.52-6.79-3.52-11.63,0-4.48,1.21-8.41,3.63-11.79,2.42-3.38,5.8-5.97,10.14-7.78,4.34-1.82,9.39-2.73,15.15-2.73,5.12,0,10.17,.75,15.15,2.24,4.98,1.49,9.39,3.48,13.23,5.98l-6.51,13.98c-3.84-2.35-7.91-4.22-12.22-5.6h0Z"/>
        <path class="cls-5" d="M555.55,230.26c-3.56,2.1-6.37,4.96-8.43,8.59-2.06,3.63-3.09,7.62-3.09,11.95s1.04,8.43,3.15,12.06c2.1,3.63,4.91,6.51,8.43,8.64,3.52,2.13,7.34,3.2,11.47,3.2s7.91-1.05,11.36-3.15c3.45-2.1,6.19-4.98,8.21-8.64,2.03-3.66,3.04-7.7,3.04-12.11s-1.01-8.32-3.04-11.95c-2.03-3.63-4.76-6.49-8.21-8.59-3.45-2.1-7.24-3.15-11.36-3.15s-7.97,1.05-11.52,3.15h0Zm31.69-12.86c6.12,3.34,10.94,7.95,14.45,13.82,3.52,5.87,5.28,12.4,5.28,19.57s-1.76,13.73-5.28,19.64c-3.52,5.9-8.34,10.54-14.45,13.92-6.12,3.38-12.91,5.07-20.38,5.07s-14.26-1.69-20.38-5.07c-6.12-3.38-10.94-8-14.46-13.87-3.52-5.87-5.28-12.43-5.28-19.69s1.76-13.7,5.28-19.57c3.52-5.87,8.32-10.47,14.4-13.82,6.08-3.34,12.89-5.02,20.43-5.02s14.26,1.67,20.38,5.02h0Z"/>
        <path class="cls-5" d="M662.29,229.73c-3.45-1.74-6.92-2.62-10.4-2.62-4.2,0-8.04,1.03-11.53,3.1-3.49,2.06-6.22,4.87-8.22,8.42-1.99,3.56-2.98,7.51-2.98,11.85s.99,8.31,2.98,11.89c1.99,3.59,4.73,6.44,8.22,8.54,3.49,2.1,7.33,3.15,11.53,3.15,3.34,0,6.74-.8,10.18-2.4,3.45-1.6,6.53-3.75,9.23-6.45l9.92,10.77c-3.98,4.13-8.66,7.4-14.03,9.82-5.37,2.42-10.76,3.63-16.17,3.63-7.33,0-13.98-1.69-19.95-5.07-5.98-3.38-10.67-8.02-14.08-13.92-3.42-5.91-5.12-12.48-5.12-19.74s1.74-13.69,5.22-19.53c3.49-5.83,8.27-10.42,14.35-13.76,6.08-3.34,12.82-5.02,20.22-5.02,5.4,0,10.74,1.12,16,3.36,5.26,2.24,9.74,5.28,13.45,9.12l-9.82,12.06c-2.56-3.06-5.57-5.46-9.02-7.2h0Z"/>
        <polygon class="cls-5" points="692.33 213.57 709.18 213.57 709.18 288.25 692.33 288.25 692.33 213.57 692.33 213.57"/>
        <polygon class="cls-5" points="726.79 213.57 783.65 213.57 783.65 227.54 743.64 227.54 743.64 243.76 779.6 243.76 779.6 257.74 743.64 257.74 743.64 274.27 784.83 274.27 784.83 288.25 726.79 288.25 726.79 213.57 726.79 213.57"/>
        <polygon class="cls-5" points="791.76 213.57 854.18 213.57 854.18 227.86 831.34 227.86 831.34 288.25 814.49 288.25 814.49 227.86 791.76 227.86 791.76 213.57 791.76 213.57"/>
        <polygon class="cls-5" points="927.48 213.57 900.27 264.14 900.27 288.25 883.41 288.25 883.41 264.57 855.78 213.57 872.74 213.57 891.85 247.07 910.51 213.57 927.48 213.57 927.48 213.57"/>
        <path class="cls-3" d="M254.46,216.1c.02,17.55,1.26,18.16,13.51,18.97l12.63,.74,.55,.29c2.72,1.47,3.57,4.93,3.21,7.72-.39,3-2.1,5.22-4.47,5.8l-.39,.09-.4-.02c-9.93-.44-27.21-.7-46.24-.7-20.06,0-37.34,.26-47.42,.7l-.4,.02-.39-.09c-2.37-.58-4.09-2.8-4.47-5.8-.36-2.79,.5-6.25,3.21-7.72l.55-.29,12.65-.74c12.24-.81,13.47-1.42,13.49-19.01-48.22-5.42-78.26-28.77-78.26-62.55s25.91-55.8,72.04-61.93c.17,4.4,.3,10.3,.39,17.08-2.82,.72-5.51,1.52-7.91,2.46l-1.2,.44c-9.62,3.6-16.16,10.33-19.05,19.51l-.11,.31c-1.67,4.02-2.59,11.61-2.59,21.37v.41s0,.4,0,.4c0,9.77,.92,17.36,2.59,21.37l.12,.36c2.23,7.08,6.69,12.69,13,16.53,9.08,6.04,26.41,9.16,43.62,9.16,18.82,0,37.8-3.73,45.95-10.95,4.95-3.73,8.5-8.7,10.41-14.78l.11-.31c1.67-4.01,2.59-11.6,2.59-21.37v-.37s0-.44,0-.44c0-9.77-.92-17.36-2.59-21.37l-.11-.3c-2.89-9.19-9.44-15.92-18.94-19.47l-1.24-.46c-4.22-1.66-9.1-2.98-14.44-3.93v85.69c-6.19,1.15-13.5,1.87-21.74,1.87-8.64,0-16.26-.8-22.64-2.04v-19.84c.39-18.49,.79-47.8,.34-68.54h0c0-.49-.35-14.53-.35-15-.08-13.57-1.37-15.01-11.57-16.13l-14.34-1.65c-2.17-.97-3.64-3.45-3.83-6.46-.18-2.99,.94-5.61,2.93-6.81l.52-.32,.61-.07c10.5-1.24,23.74-3.58,37.29-6.59,7.14-1.7,13.76-3.86,18.61-5.44,4.82-1.57,6.83-2.21,8.12-2.21,2.68,0,5.82,1.42,6.8,4.59l.17,.56-.06,.58c-.54,5.01-.86,15.44-.86,27.88v13.48c50.25,4.88,78.58,27.13,78.58,62.74s-30.17,57.23-78.58,62.58h0ZM232.1,17.81c-80.86,0-146.41,59.96-146.41,133.92s65.55,133.91,146.41,133.91,146.41-59.95,146.41-133.91S312.96,17.81,232.1,17.81h0Z"/>
        <path class="cls-3" d="M334.33,277.37h3.71l6.16,12.69,6.12-12.69h3.75v18.76h-2.9v-14.3l-5.94,12.33h-2.05l-5.94-12.33v14.3h-2.9v-18.76h0Zm-17.25,0h14.48v2.77h-5.67v15.99h-3.17v-15.99h-5.63v-2.77h0Z"/>
      </g>
    </g>
  </g>
</svg>