<svg xmlns="http://www.w3.org/2000/svg" viewBox="0 0 1116.133 854.1343"><defs><style>.cls-1{fill:#00629b;}.cls-2{fill:#75787b;}.cls-3{fill:#b2b2b2;}.cls-4{fill:#1d1d1b;}.cls-5{fill:#f7a400;}</style></defs><g id="Layer_2" data-name="Layer 2"><g id="UNMSM"><g id="ieee_unmsm_cs_rgb_pp_c"><path class="cls-1" d="M140.9126,588.2671l-.287,28.5041v9.7893c-.1933,12.1889-.576,17.7552-5.6639,23.1291-7.1009,7.4865-17.6575,7.4865-21.1133,7.4865-12.8605,0-20.25-4.799-23.8974-9.9816-3.3581-4.6067-3.9341-9.7894-4.2211-20.1537V619.938c-.0976-14.971-.0976-17.6585-.48-31.3829l.574-.576c6.5269.0967,8.7351.0967,16.8922-.288l.48.576c-.1913,9.5014-.2889,16.8912-.2889,24.6657,0,5.086,0,10.1729.1913,15.2589.1933,6.0466.7692,9.4057,2.2082,11.9009a11.3323,11.3323,0,0,0,9.7893,5.087,11.0805,11.0805,0,0,0,8.4461-3.4558c2.5908-3.0711,2.88-7.6778,2.88-17.7541,0-11.8052-.48-23.6094-.9606-35.4146l.5759-.576c5.4707.0967,7.39.0967,14.3951-.288Z"/><path class="cls-1" d="M197.3565,655.6406c-7.6768,0-9.309.0956-15.6426.2879l-.576-.5759c0-3.2635.0957-6.6226.0957-9.885,0-3.6471-.0957-16.7956-.289-19.9624-.287-3.4557-.7653-9.1177-6.0446-9.1177-3.0711,0-5.375,1.6313-7.39,2.9755.0957,17.1782.1914,20.9219.7673,35.7016l-.5759.576c-7.6788,0-9.1177,0-16.0273.2879l-.5759-.5759c.0956-6.1423.1933-12.2845.1933-18.4268a266.9783,266.9783,0,0,0-1.3453-30.04l.576-.6717c7.1985-.96,8.8288-1.2475,16.2206-2.7831l.9586.6716-.1914,5.2783c4.4144-2.5908,9.5-5.6619,15.3557-5.6619,3.4557,0,8.9264.7673,11.9,5.7576,2.3995,3.9351,2.4951,8.35,2.5908,17.5638v7.4855c.1913,9.4057.1913,12.0922.6716,20.5383Z"/><path class="cls-1" d="M224.28,655.7362c-7.7725-.0956-9.6917,0-16.6032.288l-.574-.6716c.287-7.87.574-13.7244.574-24.1854,0-13.6278-.287-16.9869-1.0543-24.281l.576-.576,16.5075-2.8788.6716.7673c-.0976,8.1581-.2889,16.4119-.2889,24.569,0,13.2441.3846,18.9071.8629,26.2969ZM222.9369,594.89c-6.8139.864-8.6375,1.0553-15.1624,2.2072l-.6716-.5759c.0957-1.8236.0957-3.7428.0957-5.5663,0-2.3029-.0957-4.3187-.287-7.7735l.574-.6716,15.6426-1.92.5779.5759-.289,13.0528Z"/><path class="cls-1" d="M261.3913,655.7362c-6.9115-.0956-9.4066,0-15.6445.288l-.6717-.6716c-2.1105-7.87-3.1668-11.4206-15.9316-49.2347l.3847-.7673a126.3576,126.3576,0,0,0,16.7945-1.0553l.6716.575c1.3433,6.3346,1.7279,8.1581,4.1274,17.0835l1.8236,7.39,2.3995,10.3653,4.8946-18.9071c1.9192-7.4855,2.2062-8.83,3.55-15.259l.6736-.6726,13.4344-.288.48.6726c-2.6865,7.8692-6.91,20.346-9.5,28.12-2.0169,6.0466-3.84,11.9965-6.91,21.5936Z"/><path class="cls-1" d="M324.69,641.8205l-.6716,10.8446-.5759.7683c-5.086,2.0148-8.5418,3.4547-16.5076,3.4547-6.9095,0-19.9633-1.1519-25.53-14.108a31.96,31.96,0,0,1-2.3019-12.5725c0-16.6032,9.9807-26.4882,25.0474-26.4882a24.5742,24.5742,0,0,1,6.8139.8629c3.2644.7683,10.6542,3.0712,14.0123,14.3961,1.3452,4.799,1.4409,9.598,1.5366,14.3l-.576.6717-31,.5759a13.6069,13.6069,0,0,0,2.1125,5.8543c2.3038,3.4548,6.2379,5.2783,11.9956,5.2783,7.0071,0,11.3258-2.2072,14.9729-4.1264ZM310.9648,623.97c0-2.2082-.0957-4.511-1.439-6.6226a7.3665,7.3665,0,0,0-9.9806-2.3038c-3.6471,2.3038-4.3187,6.3346-4.6077,9.31Z"/><path class="cls-1" d="M361.1356,620.5139a7.1877,7.1877,0,0,0-3.9341-1.3432c-6.5269,0-6.5269,6.3345-6.5269,10.6533,0,6.6215.576,17.4671.9606,25.2406l-.48.6716c-7.6788-.0956-9.2133,0-16.3162.288l-.5759-.576c.1932-7.9658.2889-15.8359.2889-23.705,0-13.3408-.2889-17.6595-.8649-24.857l.576-.576c7.0071-1.0553,8.8307-1.3432,15.9316-2.8788l.7692.7673-.289,8.83c3.0712-7.1018,7.4855-9.309,11.4216-9.309.6716,0,1.3432.0956,2.0149.0956l.5759.6717L362.0005,620.13Z"/><path class="cls-1" d="M394.6271,624.3533c5.2773,2.0149,12.6672,4.7981,12.6672,15.3557a16.3209,16.3209,0,0,1-.0957,2.1115c-1.7259,13.7234-16.1229,15.0676-23.4171,15.0676-7.0052,0-11.0369-1.5355-15.7383-3.2634l-.48-.8639c.3827-4.7981.48-5.8543.6716-10.8446l.863-.3837a21.3088,21.3088,0,0,0,3.84,2.6875,24.0183,24.0183,0,0,0,10.172,2.6865c5.3749,0,7.5812-2.5908,7.5812-4.99,0-3.4548-4.2211-4.8947-6.8139-5.7587l-3.6471-1.3432c-4.51-1.7279-12.4759-4.799-12.4759-15.0677a14.4278,14.4278,0,0,1,2.5909-8.446c4.99-7.1976,14.397-7.5812,19.0984-7.5812,6.24,0,10.1739,1.1509,14.684,2.3985l.48.576-.9587,10.4609-.8649.288c-2.3995-1.5356-6.1422-4.0307-11.9955-4.0307-5.9509,0-6.7182,3.1677-6.7182,4.3187,0,2.6875,2.5908,3.7427,5.8533,4.8947Z"/><path class="cls-1" d="M431.3986,655.7362c-7.7744-.0956-9.6937,0-16.6032.288l-.576-.6716c.287-7.87.576-13.7244.576-24.1854,0-13.6278-.289-16.9869-1.0563-24.281l.576-.576,16.5076-2.8788.6716.7673c-.0957,8.1581-.289,16.4119-.289,24.569,0,13.2441.3846,18.9071.8649,26.2969ZM430.0534,594.89c-6.8139.864-8.6374,1.0553-15.1623,2.2072l-.6717-.5759c.0957-1.8236.0957-3.7428.0957-5.5663,0-2.3029-.0957-4.3187-.2889-7.7735l.5759-.6716,15.6446-1.92.576.5759-.289,13.0528Z"/><path class="cls-1" d="M487.8542,655.7362c-7.1985,0-9.022,0-15.6426.288l-.48-.576.1913-3.7427c-2.3038,2.0149-5.8532,5.1826-12.6671,5.1826a20.2361,20.2361,0,0,1-12.5735-4.223c-5.662-4.7024-7.6768-12.1888-7.6768-19.6743,0-9.8851,2.7821-17.8509,9.5-23.0335,7.2941-5.7586,16.3162-5.5663,23.5127-5.375.0976-10.94,0-13.34-.5759-22.3608l.48-.576,15.836-2.4951.6716.5759c-.3846,12.6682-.7673,23.1291-.7673,48.4654,0,12.5725.287,18.3311.6716,26.9686Zm-19.0983-39.9246c-10.748,0-12.8605,8.2538-12.8605,15.6436,0,1.9192,0,13.82,9.309,13.82,2.6885,0,4.6077-1.152,6.5269-2.3039.287-11.6119.3846-14.107.287-26.8718A21.4128,21.4128,0,0,0,468.7559,615.8116Z"/><path class="cls-1" d="M540.5476,634.2383c0,9.0211,0,11.4206.6716,20.8263l-.48.6716c-6.2379-.0956-8.35,0-15.26.288l-.576-.6716v-3.5514a19.8372,19.8372,0,0,1-13.3388,5.0869c-9.4067,0-16.7965-6.6225-16.7965-16.8912a15.3466,15.3466,0,0,1,7.1985-13.1484c5.7576-3.5514,11.1326-4.6067,22.65-6.1423a6.0554,6.0554,0,0,0-1.2476-4.1264c-1.2476-1.2485-2.6884-1.8235-6.2379-1.8235-6.4312,0-12.6691,2.4952-16.0273,3.8384l-.7692-.3836.48-10.461.5759-.7683c5.4707-1.6312,10.5567-3.1668,18.8114-3.1668,12.2845,0,16.1229,3.8385,18.0422,6.91,2.4951,4.0317,2.4951,7.7745,2.3995,16.4119Zm-15.74-3.4547c-6.5249.8639-14.108,1.9192-14.108,8.2537,0,4.0308,2.88,5.8543,6.3336,5.8543a15.5429,15.5429,0,0,0,7.7744-2.4952Z"/><path class="cls-1" d="M596.9154,655.7362c-7.1985,0-9.0221,0-15.6427.288l-.48-.576.1914-3.7427c-2.3039,2.0149-5.8533,5.1826-12.6672,5.1826a20.2361,20.2361,0,0,1-12.5735-4.223c-5.6619-4.7024-7.6768-12.1888-7.6768-19.6743,0-9.8851,2.7822-17.8509,9.5-23.0335,7.2941-5.7586,16.3162-5.5663,23.5127-5.375.0977-10.94,0-13.34-.5759-22.3608l.48-.576L596.82,579.15l.6716.5759c-.3846,12.6682-.7673,23.1291-.7673,48.4654,0,12.5725.287,18.3311.6717,26.9686ZM577.817,615.8116c-10.748,0-12.8605,8.2538-12.8605,15.6436,0,1.9192,0,13.82,9.3091,13.82,2.6884,0,4.6076-1.152,6.5268-2.3039.287-11.6119.3847-14.107.287-26.8718A21.4128,21.4128,0,0,0,577.817,615.8116Z"/><path class="cls-1" d="M694.6057,588.2671c-.0957,10.7489-.1913,21.4022-.1913,32.1512,0,11.5172.0956,20.9219.1913,34.8376l-.48.48c-5.086,0-6.8139,0-12.6672.288l-.6716-.48-8.5418-12.4758-9.598-14.1081c-6.5249-9.5013-8.0614-11.9965-12.5715-19.483l.576,12.8605.287,11.8052.9606,21.0176-.48.5759c-5.5663,0-7.5812,0-14.0124.288l-.48-.576c.0957-9.309.289-18.7147.289-28.12,0-12.86-.289-23.8964-.7673-38.7727l.4783-.576c7.0072.0967,8.2548.0967,15.8359-.288l.6717.48c2.3995,3.8394,3.8384,5.95,11.0369,16.8912l8.7331,12.7648c4.8946,7.2932,5.3749,8.0615,8.1591,12.7639l-.3847-15.835-.3846-13.2451-.6716-12.9561.48-.576c5.9509.0967,7.5812,0,13.6277-.288Z"/><path class="cls-1" d="M748.3358,634.2383c0,9.0211,0,11.4206.6716,20.8263l-.48.6716c-6.2379-.0956-8.35,0-15.26.288l-.5759-.6716v-3.5514a19.8372,19.8372,0,0,1-13.3388,5.0869c-9.4067,0-16.7965-6.6225-16.7965-16.8912a15.3466,15.3466,0,0,1,7.1985-13.1484c5.7576-3.5514,11.1326-4.6067,22.65-6.1423a6.0554,6.0554,0,0,0-1.2476-4.1264c-1.2476-1.2485-2.6885-1.8235-6.2379-1.8235-6.4312,0-12.6692,2.4952-16.0273,3.8384l-.7692-.3836.48-10.461.5759-.7683c5.4706-1.6312,10.5566-3.1668,18.8114-3.1668,12.2845,0,16.1229,3.8385,18.0421,6.91,2.4952,4.0317,2.4952,7.7745,2.4,16.4119Zm-15.74-3.4547c-6.5269.8639-14.108,1.9192-14.108,8.2537,0,4.0308,2.88,5.8543,6.3336,5.8543a15.5432,15.5432,0,0,0,7.7744-2.4952Z"/><path class="cls-1" d="M796.3063,642.3964l-.3847,11.5163-.5759.5759c-4.03,1.152-7.2942,2.1116-12.38,2.1116-21.5935,0-27.3531-14.972-27.3531-26.0089,0-9.7894,4.4163-26.8719,26.9685-26.8719,5.5663,0,9.2134,1.1509,13.4364,2.4951l.48.576c-.7673,5.086-.863,6.43-1.2476,11.5162l-.9606.288c-2.8778-1.9192-5.1816-3.4548-9.4047-3.4548-9.309,0-12.38,8.0615-12.38,15.0677,0,5.7586,2.2082,14.78,13.0518,14.78,4.8947,0,7.39-1.5356,9.9807-3.0711Z"/><path class="cls-1" d="M820.5238,655.7362c-7.7744-.0956-9.6936,0-16.6032.288l-.5759-.6716c.287-7.87.5759-13.7244.5759-24.1854,0-13.6278-.2889-16.9869-1.0562-24.281l.5759-.576,16.5076-2.8788.6716.7673c-.0957,8.1581-.2889,16.4119-.2889,24.569,0,13.2441.3846,18.9071.8649,26.2969ZM819.1786,594.89c-6.8138.864-8.6374,1.0553-15.1623,2.2072l-.6716-.5759c.0956-1.8236.0956-3.7428.0956-5.5663,0-2.3029-.0956-4.3187-.2889-7.7735l.5759-.6716,15.6446-1.92.576.5759-.289,13.0528Z"/><path class="cls-1" d="M853.5253,656.8881c-13.7234,0-18.4268-5.1826-20.922-8.9254-3.5514-5.1826-4.512-11.4215-4.512-17.5638,0-17.6585,9.4067-26.5839,26.1056-26.5839a34.5034,34.5034,0,0,1,11.7086,1.8236c13.4364,5.2783,13.4364,20.8263,13.4364,24.569C879.3419,644.6036,873.8712,656.8881,853.5253,656.8881Zm6.4292-40.2126a8.0678,8.0678,0,0,0-6.1422-2.9754,7.9466,7.9466,0,0,0-7.0052,4.3187c-1.9192,3.3591-1.9192,9.5013-1.9192,12.2845,0,9.309,1.8235,12.5725,3.4538,14.2037a7.763,7.763,0,0,0,5.3749,2.2082c7.9658,0,9.0221-8.7341,9.0221-16.6033C862.7387,624.9293,862.2584,619.4587,859.9545,616.6755Z"/><path class="cls-1" d="M933.5132,655.6406c-7.6788,0-9.3091.0956-15.6446.2879l-.576-.5759c0-3.2635.0977-6.6226.0977-9.885,0-3.6471-.0977-16.7956-.289-19.9624-.287-3.4557-.7673-9.1177-6.0466-9.1177-3.0711,0-5.373,1.6313-7.39,2.9755.0957,17.1782.1933,20.9219.7673,35.7016l-.574.576c-7.6788,0-9.1177,0-16.0292.2879l-.574-.5759c.0956-6.1423.1913-12.2845.1913-18.4268a267.094,267.094,0,0,0-1.3433-30.04l.576-.6717c7.1965-.96,8.8288-1.2475,16.2186-2.7831l.9606.6716-.1933,5.2783c4.4144-2.5908,9.5023-5.6619,15.3556-5.6619,3.4558,0,8.9264.7673,11.9019,5.7576,2.3995,3.9351,2.4951,8.35,2.5908,17.5638v7.4855c.1913,9.4057.1913,12.0922.6716,20.5383Z"/><path class="cls-1" d="M986.1382,634.2383c0,9.0211,0,11.4206.6716,20.8263l-.48.6716c-6.2379-.0956-8.35,0-15.26.288l-.576-.6716v-3.5514a19.8369,19.8369,0,0,1-13.3388,5.0869c-9.4067,0-16.7965-6.6225-16.7965-16.8912a15.3469,15.3469,0,0,1,7.1985-13.1484c5.7576-3.5514,11.1326-4.6067,22.65-6.1423a6.0549,6.0549,0,0,0-1.2476-4.1264c-1.2476-1.2485-2.6884-1.8235-6.2379-1.8235-6.4312,0-12.6691,2.4952-16.0272,3.8384l-.7693-.3836.48-10.461.576-.7683c5.4706-1.6312,10.5566-3.1668,18.8113-3.1668,12.2845,0,16.123,3.8385,18.0422,6.91,2.4951,4.0317,2.4951,7.7745,2.3995,16.4119Zm-15.74-3.4547c-6.5269.8639-14.1081,1.9192-14.1081,8.2537,0,4.0308,2.88,5.8543,6.3336,5.8543a15.5436,15.5436,0,0,0,7.7745-2.4952Z"/><path class="cls-1" d="M1012.4585,655.7362c-7.0052-.0956-9.598,0-16.0272.288l-.576-.6716c.3846-9.5014.576-15.26.576-25.6253,0-5.6619,0-11.3249-.0957-16.9869-.1933-15.5479-.289-18.7147-1.2476-30.4232l.3827-.576,16.4119-2.5908.6716.6716c-.3846,10.3653-.48,14.684-.48,23.8007,0,30.3277.48,40.405.9606,51.4419Z"/><path class="cls-1" d="M159.9153,692.2285c0,5.663.0957,6.8139.576,15.74.2889,6.0456.48,12.0922.7692,18.1388.3827,11.0369,1.0543,22.0729,1.63,33.0141l-.48.576c-7.39-.0957-9.9807,0-16.6032.2879l-.4784-.5759V736.3762l-.1933-14.684V704.5131l-5.3749,20.1546L135.9223,738.68l-5.5663,20.4416-.576.576c-6.7182-.0957-8.3485,0-14.2994.2879l-.5759-.5759-6.4293-24.7613-3.6471-13.6278-4.225-16.9869-.3827,18.1388-.5759,18.6181-.287,18.3311-.5779.576c-5.5644-.0957-7.3879,0-13.53.2879l-.48-.5759c2.1106-30.8069,2.4952-38.1968,3.4558-66.8932l.574-.5759c10.75,0,12.4758,0,22.7455-.288l.48.5759,4.799,18.4268,2.6865,10.8456,4.223,17.1792,4.512-16.7,3.8384-13.9157,4.4144-15.548.576-.5759c10.6523,0,12.2845,0,22.2651-.288Z"/><path class="cls-1" d="M215.4943,738.2c0,9.0211,0,11.4206.6716,20.8262l-.48.6717c-6.2359-.0957-8.3484,0-15.26.2879l-.574-.6716v-3.5514a19.8437,19.8437,0,0,1-13.3408,5.087c-9.4047,0-16.7965-6.6226-16.7965-16.8912a15.3446,15.3446,0,0,1,7.2-13.1485c5.7576-3.5514,11.1326-4.6066,22.6478-6.1422a6.0585,6.0585,0,0,0-1.2456-4.1274c-1.25-1.2476-2.6885-1.8226-6.24-1.8226-6.4312,0-12.6672,2.4952-16.0273,3.8385l-.7672-.3837.48-10.4609.5741-.7683c5.4706-1.6312,10.5585-3.1668,18.8113-3.1668,12.2845,0,16.1249,3.8384,18.0422,6.9095,2.4951,4.0317,2.4951,7.7745,2.4014,16.4119Zm-15.74-3.4548c-6.5249.8639-14.108,1.9192-14.108,8.2538,0,4.0307,2.8817,5.8543,6.3355,5.8543a15.5429,15.5429,0,0,0,7.7725-2.4952Z"/><path class="cls-1" d="M268.6,709.3121c-1.3432,3.7427-2.7822,7.4855-4.223,11.3249-12.6672,33.3987-15.258,41.46-20.5373,62.19l-.6717.5759c-2.3995,0-4.8946-.0956-7.2941-.0956-2.4952,0-5.1817.0956-7.5832.1923l-.4783-.7683c4.3187-9.5013,5.086-11.2292,9.022-21.21-5.9509-18.4267-14.8772-42.5155-18.331-51.6332l.4783-.6716c7.8721-.1923,9.5023-.288,16.9878-.8639l.7673.5759,3.8384,14.5874,2.7842,10.173,1.8235,6.8148,2.1125-7.1985,2.4952-8.2538c2.3019-7.4855,2.6865-8.9254,4.3187-15.5469l.7673-.6726,13.3407-.288Z"/><path class="cls-1" d="M294.424,760.85c-13.7234,0-18.4267-5.1827-20.9219-8.9254-3.5514-5.1827-4.512-11.4206-4.512-17.5628,0-17.6595,9.4067-26.5849,26.1055-26.5849A34.5026,34.5026,0,0,1,306.8042,709.6c13.4364,5.2784,13.4364,20.8263,13.4364,24.5691C320.2406,748.5651,314.77,760.85,294.424,760.85Zm6.4293-40.2126a8.0679,8.0679,0,0,0-6.1423-2.9755,7.9467,7.9467,0,0,0-7.0052,4.3187c-1.9192,3.3591-1.9192,9.5014-1.9192,12.2845,0,9.31,1.8235,12.5725,3.4538,14.2037a7.7628,7.7628,0,0,0,5.375,2.2082c7.9658,0,9.022-8.7341,9.022-16.6032C303.6374,728.8907,303.1571,723.42,300.8533,720.637Z"/><path class="cls-1" d="M354.87,724.4754a7.1884,7.1884,0,0,0-3.9341-1.3433c-6.5269,0-6.5269,6.3346-6.5269,10.6533,0,6.6216.5759,17.4662.9606,25.2406l-.48.6717c-7.6788-.0957-9.2134,0-16.3162.2879l-.576-.5759c.1933-7.9658.289-15.835.289-23.7051,0-13.3407-.289-17.6595-.865-24.857l.576-.5759c7.0072-1.0553,8.8307-1.3433,15.9316-2.8789l.7692.7673-.2889,8.83c3.0711-7.1019,7.4855-9.3091,11.4215-9.3091.6717,0,1.3433.0957,2.0149.0957l.576.6716-2.6865,15.6436Z"/><path class="cls-1" d="M438.5522,759.6977c-7.1985,0-9.022,0-15.6426.2879l-.48-.5759.1913-3.7428c-2.3038,2.0149-5.8533,5.1827-12.6672,5.1827a20.236,20.236,0,0,1-12.5734-4.2231c-5.662-4.7023-7.6769-12.1888-7.6769-19.6743,0-9.885,2.7822-17.8508,9.5-23.0335,7.2942-5.7586,16.3162-5.5662,23.5128-5.3749.0976-10.94,0-13.34-.576-22.3609l.48-.5759,15.8359-2.4952.6717.575c-.3847,12.6691-.7673,23.13-.7673,48.4664,0,12.5725.287,18.3311.6716,26.9685ZM419.4538,719.773c-10.7479,0-12.86,8.2538-12.86,15.6436,0,1.9192,0,13.82,9.309,13.82,2.6885,0,4.6077-1.1519,6.5269-2.3038.287-11.6119.3846-14.1081.287-26.8719A21.4268,21.4268,0,0,0,419.4538,719.773Z"/><path class="cls-1" d="M491.6478,745.7819l-.6717,10.8446-.5759.7673c-5.086,2.0159-8.5418,3.4558-16.5076,3.4558-6.91,0-19.9633-1.1519-25.53-14.1081a31.9591,31.9591,0,0,1-2.3019-12.5724c0-16.6033,9.9807-26.4883,25.0474-26.4883a24.574,24.574,0,0,1,6.8139.863c3.2644.7683,10.6542,3.0711,14.0124,14.396,1.3452,4.799,1.4408,9.598,1.5365,14.3l-.576.6716-31,.576a13.606,13.606,0,0,0,2.1125,5.8542c2.3038,3.4548,6.2379,5.2784,11.9956,5.2784,7.0071,0,11.3258-2.2072,14.9729-4.1264Zm-13.7254-17.8508c0-2.2081-.0957-4.511-1.4389-6.6225a7.3649,7.3649,0,0,0-9.9807-2.3029c-3.6471,2.3029-4.3187,6.3336-4.6077,9.3091Z"/><path class="cls-1" d="M560.548,719.3894a38.9594,38.9594,0,0,1,7.39,4.1264,19.0216,19.0216,0,0,1,7.1966,15.26c0,8.1572-3.4538,15.4513-11.5153,19.3864-5.76,2.6875-13.0537,2.9755-15.9316,2.9755a47.8257,47.8257,0,0,1-15.0686-2.3995c-1.0563-.288-2.1106-.7683-3.1668-1.152l-.576-.7672.6717-13.5321.96-.288a24.48,24.48,0,0,0,16.41,6.0456c8.35,0,11.5172-4.3187,11.5172-7.9658,0-5.086-5.086-7.4855-11.7086-10.2687l-3.1668-1.44c-5.3749-2.5908-14.395-6.8138-14.395-18.4267,0-10.2687,6.2379-20.4416,24.28-20.4416,9.309,0,13.6277,1.8235,17.7551,3.55l.48.6716-.7693,12.5725-.8629.3846c-3.5514-2.3995-7.87-5.3749-15.1643-5.3749-6.3336,0-9.1158,3.7427-9.1158,6.7182,0,4.3187,4.2211,6.0466,12.2845,9.4057Z"/><path class="cls-1" d="M626.5235,738.2c0,9.0211,0,11.4206.6716,20.8262l-.48.6717c-6.238-.0957-8.35,0-15.26.2879l-.576-.6716v-3.5514A19.8416,19.8416,0,0,1,597.54,760.85c-9.4066,0-16.7965-6.6226-16.7965-16.8912a15.3471,15.3471,0,0,1,7.1985-13.1485c5.7577-3.5514,11.1326-4.6066,22.65-6.1422a6.0592,6.0592,0,0,0-1.2476-4.1274c-1.2475-1.2476-2.6884-1.8226-6.2379-1.8226-6.4312,0-12.6691,2.4952-16.0272,3.8385l-.7693-.3837.48-10.4609.576-.7683c5.4706-1.6312,10.5566-3.1668,18.8113-3.1668,12.2846,0,16.123,3.8384,18.0422,6.9095,2.4952,4.0317,2.4952,7.7745,2.3995,16.4119Zm-15.74-3.4548c-6.525.8639-14.1081,1.9192-14.1081,8.2538,0,4.0307,2.88,5.8543,6.3336,5.8543a15.5446,15.5446,0,0,0,7.7745-2.4952Z"/><path class="cls-1" d="M682.8815,759.602c-7.6788,0-9.309.0957-15.6446.288l-.5759-.576c0-3.2634.0976-6.6225.0976-9.885,0-3.6471-.0976-16.7955-.289-19.9623-.287-3.4558-.7672-9.1177-6.0465-9.1177-3.0712,0-5.373,1.6312-7.39,2.9754.0957,17.1792.1933,20.922.7693,35.7016l-.576.576c-7.6788,0-9.1177,0-16.0292.288l-.574-.576c.0957-6.1422.1913-12.2845.1913-18.4267a267.1019,267.1019,0,0,0-1.3432-30.04l.5759-.6716c7.1966-.96,8.8288-1.2476,16.2186-2.7832l.9606.6717-.1933,5.2783c4.4144-2.5908,9.5024-5.662,15.3557-5.662,3.4557,0,8.9263.7673,11.9018,5.7577,2.3995,3.935,2.4952,8.35,2.5908,17.5638v7.4855c.1914,9.4057.1914,12.0922.6717,20.5382Z"/><path class="cls-1" d="M796.6948,692.2285c0,5.663.0957,6.8139.5759,15.74.289,6.0456.48,12.0922.7673,18.1388.3847,11.0369,1.0563,22.0729,1.6322,33.0141l-.48.576c-7.39-.0957-9.9807,0-16.6033.2879l-.48-.5759V736.3762l-.1913-14.684V704.5131L776.54,724.6677,772.7017,738.68l-5.5663,20.4416-.5759.576c-6.7182-.0957-8.35,0-14.2994.2879l-.576-.5759-6.4312-24.7613-3.6471-13.6278-4.221-16.9869L737,722.1725l-.5759,18.6181-.287,18.3311-.576.576c-5.5663-.0957-7.39,0-13.5321.2879l-.48-.5759c2.1106-30.8069,2.4952-38.1968,3.4538-66.8932l.576-.5759c10.75,0,12.4778,0,22.7455-.288l.48.5759,4.799,18.4268,2.6866,10.8456,4.223,17.1792,4.512-16.7,3.8384-13.9157,4.4144-15.548.576-.5759c10.6523,0,12.2845,0,22.2651-.288Z"/><path class="cls-1" d="M852.2757,738.2c0,9.0211,0,11.4206.6717,20.8262l-.48.6717c-6.2379-.0957-8.35,0-15.26.2879l-.5759-.6716v-3.5514a19.8421,19.8421,0,0,1-13.3389,5.087c-9.4066,0-16.7965-6.6226-16.7965-16.8912a15.3471,15.3471,0,0,1,7.1985-13.1485c5.7577-3.5514,11.1326-4.6066,22.65-6.1422a6.06,6.06,0,0,0-1.2475-4.1274c-1.2476-1.2476-2.6885-1.8226-6.238-1.8226-6.4312,0-12.6691,2.4952-16.0272,3.8385l-.7693-.3837.48-10.4609.576-.7683c5.4706-1.6312,10.5566-3.1668,18.8114-3.1668,12.2845,0,16.1229,3.8384,18.0421,6.9095,2.4952,4.0317,2.4952,7.7745,2.3995,16.4119Zm-15.74-3.4548c-6.5249.8639-14.1081,1.9192-14.1081,8.2538,0,4.0307,2.88,5.8543,6.3336,5.8543a15.5443,15.5443,0,0,0,7.7745-2.4952Z"/><path class="cls-1" d="M889.0355,724.4754a7.1878,7.1878,0,0,0-3.934-1.3433c-6.5269,0-6.5269,6.3346-6.5269,10.6533,0,6.6216.5759,17.4662.9606,25.2406l-.48.6717c-7.6788-.0957-9.2134,0-16.3162.2879l-.576-.5759c.1933-7.9658.289-15.835.289-23.7051,0-13.3407-.289-17.6595-.865-24.857l.576-.5759c7.0072-1.0553,8.8307-1.3433,15.9316-2.8789l.7692.7673-.2889,8.83c3.0711-7.1019,7.4855-9.3091,11.4215-9.3091.6717,0,1.3433.0957,2.0149.0957l.576.6716-2.6865,15.6436Z"/><path class="cls-1" d="M935.1962,746.3579l-.3847,11.5162-.5759.576c-4.03,1.1519-7.2942,2.1115-12.38,2.1115-21.5935,0-27.3531-14.972-27.3531-26.0089,0-9.7893,4.4163-26.8719,26.9685-26.8719,5.5663,0,9.2134,1.151,13.4364,2.4952l.48.576c-.7673,5.086-.863,6.43-1.2476,11.5162l-.9606.288c-2.8778-1.9192-5.1816-3.4548-9.4047-3.4548-9.309,0-12.38,8.0615-12.38,15.0677,0,5.7586,2.2082,14.78,13.0518,14.78,4.8947,0,7.39-1.5355,9.9807-3.0711Z"/><path class="cls-1" d="M965.0191,760.85c-13.7234,0-18.4268-5.1827-20.9219-8.9254-3.5515-5.1827-4.512-11.4206-4.512-17.5628,0-17.6595,9.4066-26.5849,26.1055-26.5849A34.503,34.503,0,0,1,977.3993,709.6c13.4364,5.2784,13.4364,20.8263,13.4364,24.5691C990.8357,748.5651,985.3651,760.85,965.0191,760.85Zm6.4292-40.2126a8.0677,8.0677,0,0,0-6.1422-2.9755,7.9467,7.9467,0,0,0-7.0052,4.3187c-1.9192,3.3591-1.9192,9.5014-1.9192,12.2845,0,9.31,1.8235,12.5725,3.4538,14.2037a7.7627,7.7627,0,0,0,5.3749,2.2082c7.9658,0,9.0221-8.7341,9.0221-16.6032C974.2325,728.8907,973.7522,723.42,971.4483,720.637Z"/><path class="cls-1" d="M1023.4994,728.3148c5.2773,2.0149,12.6671,4.798,12.6671,15.3556a16.3371,16.3371,0,0,1-.0956,2.1115c-1.726,13.7235-16.123,15.0677-23.4171,15.0677-7.0052,0-11.037-1.5356-15.7383-3.2635l-.48-.8639c.3826-4.798.48-5.8543.6716-10.8446l.863-.3836a21.1991,21.1991,0,0,0,3.84,2.6865,24.008,24.008,0,0,0,10.172,2.6874c5.375,0,7.5812-2.5908,7.5812-4.99,0-3.4548-4.2211-4.8947-6.8139-5.7586l-3.6471-1.3433c-4.51-1.7278-12.4758-4.799-12.4758-15.0676a14.4292,14.4292,0,0,1,2.5908-8.4461c4.99-7.1975,14.397-7.5812,19.0984-7.5812,6.24,0,10.174,1.151,14.684,2.3986l.48.5759-.9586,10.461-.8649.288c-2.3995-1.5356-6.1423-4.0308-11.9956-4.0308-5.9509,0-6.7182,3.1668-6.7182,4.3187,0,2.6875,2.5909,3.7428,5.8533,4.8947Z"/><path class="cls-1" d="M96.431,793.9184c-.2518,5.6268-.42,12.262-.42,26.7069,0,16.1249.1679,23.0119.6716,31.6621l-.5037.5876c-3.694.084-4.8713.084-9.3208.2519l-.5057-.5877c.1679-5.1231.3359-9.5746.3359-20.4084,0-12.6809,0-25.2787-.5877-37.8766l.42-.6716c3.6959,0,5.0392,0,9.3228-.2519Z"/><path class="cls-1" d="M144.6592,845.9879c-.2518,2.8564-.2518,3.4441-.42,6.3l-.59.5876c-16.3768,0-18.9793.084-34.9363.2519l-.42-.5877c.2519-6.6352.5037-11.17.5037-26.539,0-14.109,0-22.1714-.5876-31.83l.5037-.5876c16.5446-.084,19.8208-.084,35.274-.2519l.5037.5877c-.2518,2.52-.42,3.527-.5876,6.5513l-.5038.5876c-10.8358-.3358-14.4458-.3358-25.1117-.42-.2519,7.7256-.2519,10.1612-.2519,17.8879,10.33.0839,13.52,0,23.7666-.1679l.4217.5876a60.0843,60.0843,0,0,0-.4217,6.4674l-.5037.5876c-9.7425-.2518-11.8413-.2518-23.2629-.2518-.1679,9.7425-.0839,12.0931,0,20.0716,12.6809,0,15.2854,0,26.1192-.42Z"/><path class="cls-1" d="M188.926,845.9879c-.25,2.8564-.25,3.4441-.4178,6.3l-.59.5876c-16.3767,0-18.9812.084-34.9363.2519l-.4217-.5877c.2538-6.6352.5057-11.17.5057-26.539,0-14.109,0-22.1714-.5877-31.83l.5037-.5876c16.5447-.084,19.8208-.084,35.2721-.2519l.5037.5877c-.25,2.52-.4178,3.527-.5857,6.5513l-.5057.5876c-10.8338-.3358-14.4458-.3358-25.11-.42-.2538,7.7256-.2538,10.1612-.2538,17.8879,10.3321.0839,13.5223,0,23.7685-.1679l.42.5876a59.5779,59.5779,0,0,0-.42,6.4674l-.5037.5876c-9.7425-.2518-11.8433-.2518-23.2648-.2518-.1679,9.7425-.082,12.0931,0,20.0716,12.6828,0,15.2873,0,26.1192-.42Z"/><path class="cls-1" d="M233.1948,845.9879c-.2519,2.8564-.2519,3.4441-.42,6.3l-.5877.5876c-16.3767,0-18.9812.084-34.9382.2519l-.42-.5877c.2518-6.6352.5037-11.17.5037-26.539,0-14.109,0-22.1714-.5877-31.83l.5037-.5876c16.5466-.084,19.8208-.084,35.274-.2519l.5038.5877c-.2519,2.52-.42,3.527-.5877,6.5513l-.5057.5876c-10.8319-.3358-14.4438-.3358-25.11-.42-.2519,7.7256-.2519,10.1612-.2519,17.8879,10.33.0839,13.5224,0,23.7686-.1679l.4178.5876a59.0539,59.0539,0,0,0-.4178,6.4674l-.5038.5876c-9.7424-.2518-11.8432-.2518-23.2648-.2518-.1679,9.7425-.0839,12.0931,0,20.0716,12.6828,0,15.2854,0,26.1193-.42Z"/><path class="cls-1" d="M288.5258,819.281c6.1306,2.6885,14.2779,6.2155,14.2779,16.9654,0,9.4057-6.97,17.8879-21.5838,17.8879a36.3832,36.3832,0,0,1-16.6286-3.6949l-.3358-.5877c.3358-2.9393.42-4.5354.6716-7.7266l.84-.3358a24.7725,24.7725,0,0,0,14.7816,4.9552c8.6491,0,12.2611-4.4515,12.2611-9.4906,0-5.8787-4.8713-8.1464-10.33-10.2462l-4.2-1.847c-5.9626-2.7714-13.94-6.3834-13.94-16.63a15.5192,15.5192,0,0,1,2.6025-8.818c3.8638-5.5429,10.8339-7.3908,17.6361-7.3908a43.9247,43.9247,0,0,1,15.1174,2.6875l.42.6726c-.3358,3.1912-.42,4.3665-.6717,7.39l-.6716.3368c-3.6119-1.8479-7.5577-3.8638-13.8562-3.8638-6.972,0-11.3395,3.2751-11.3395,8.23,0,3.78,2.52,5.5429,4.2835,6.6353,1.0914.6716,1.4273.84,6.4664,3.0233Z"/><path class="cls-1" d="M329.5282,846.2408c-.2519,2.7714-.2519,3.3591-.3358,5.7947l-.42.5037a22.8491,22.8491,0,0,1-6.3.7556c-2.0149,0-7.3059,0-9.9084-4.3665-1.5131-2.4357-1.5131-4.4515-1.5131-14.3619l.1679-18.4766c-2.9384,0-3.0223.084-6.0466.1679l-.3358-.5037c.1679-2.6874.1679-3.3591.1679-6.0466l.5037-.5037c1.8489,0,2.94.084,5.7108,0-.084-1.764-.084-3.6119-.084-5.3749q-.1258-2.3941-.2518-4.7873l.42-.5877c3.78-.9245,4.7034-1.1763,8.5672-2.3517l.5876.42c-.2518,5.5429-.3358,6.6343-.3358,12.7658,3.528-.084,4.5354-.084,9.3227-.2519l.42.5037c-.1679,2.1838-.2519,3.1073-.2519,5.9627l-.42.5037c-4.2-.084-4.7034-.1679-9.1548-.1679l-.1679,15.6211c.0839,1.0075.0839,5.7948.0839,6.9711,0,6.13.7556,8.0624,4.9552,8.0624a11.4467,11.4467,0,0,0,4.0317-.7565Z"/><path class="cls-1" d="M373.4689,809.4556c-.1679,6.3824-.2518,12.345-.2518,19.1482,0,10.33.2518,16.5446.42,20.1556,0,1.1763.084,2.3516.1679,3.528l-.3358.5037c-4.0317.0839-4.7033.1679-8.5671.3358l-.5037-.5037.0839-3.527a21.4593,21.4593,0,0,1-13.1845,4.7863,15.6712,15.6712,0,0,1-9.5746-2.8554c-5.375-4.3666-5.375-11.5055-5.4589-18.0558v-5.2071c-.1679-12.01-.1679-13.3534-.42-17.8888l.42-.5877c3.9477-.084,4.7033-.084,8.6511-.42l.5037.5877-.3358,18.3926c0,2.2677-.084,3.9468,0,7.9785.0839,3.527.2518,11.0857,8.7331,11.0857,4.9552,0,8.4831-2.7714,10.498-4.3675.084-4.5355.084-8.3983.084-13.2695,0-11.6734-.084-14.0251-.5877-19.484l.5037-.5877c3.8638-.0839,4.7873-.0839,8.6511-.3358Z"/><path class="cls-1" d="M412.0171,787.62c4.2836-.7565,5.1231-.9244,8.903-1.764l.5877.5038c-.5877,11.6743-.6717,32.5016-.6717,40.9,0,13.0177.3358,19.2331.6717,25.0279l-.42.5876c-3.6959,0-4.7033.084-8.5672.2519l-.5876-.5037.1679-3.1073a17.7694,17.7694,0,0,1-11.5895,4.1987c-11.17,0-18.8953-8.8181-18.8953-21.5838,0-9.1539,3.8618-14.9486,7.39-18.0558,6.1306-5.5439,14.11-5.7957,18.4756-5.7957,1.765,0,2.6045,0,4.8712.1679a186.4878,186.4878,0,0,0-.7555-20.3235Zm.084,27.63c-1.4272-.0839-2.4347-.2518-4.1977-.2518-2.6045,0-8.1473.1679-12.1791,3.9467-1.8469,1.764-4.8712,5.7108-4.8712,13.1856,0,4.7873,1.3452,8.23,3.1082,10.33a11.0569,11.0569,0,0,0,8.6511,3.78,13.9282,13.9282,0,0,0,9.4047-3.6959C412.185,831.5431,412.185,829.0235,412.1011,815.25Z"/><path class="cls-1" d="M466.3212,842.6288c-.4217,3.3591-.5057,4.2-.6736,7.4748l-.5037.5877a27.4329,27.4329,0,0,1-13.4364,3.1912c-13.7742,0-22.4233-7.8946-22.4233-22.5073,0-15.6212,9.4047-23.2638,20.4065-23.2638,6.6362,0,11.2556,2.7714,13.7741,5.7947,4.7873,5.7117,4.6194,14.026,4.5355,17.721l-.5877.5037c-13.1026-.084-15.3693-.084-29.1435,0,.084,2.9393.3358,7.055,3.1922,10.498,3.444,4.1157,8.2294,4.5355,10.8339,4.5355a21.902,21.902,0,0,0,7.3058-1.26,21.1527,21.1527,0,0,0,6.0466-3.6949Zm-7.8115-21.92a9.3878,9.3878,0,0,0-9.1549-6.55c-4.7013,0-10.2442,3.1912-11.0857,11.5895,10.1623.0839,13.3544,0,21.08-.084A18.3745,18.3745,0,0,0,458.51,820.7092Z"/><path class="cls-1" d="M513.3838,852.7911c-4.0317.0839-4.5354.0839-8.3992.3358l-.5877-.5877c0-.9235.084-1.8479.084-2.7714.0839-4.1157.0839-8.23.0839-12.346,0-12.9337-.0839-13.7732-.5037-15.5372-1.5951-6.3824-6.3824-6.3824-7.5577-6.3824-5.0392,0-8.903,2.9393-11.17,4.7033-.084,14.6127.0839,22.2554.6716,32.0819l-.5037.5037c-4.1157.0839-4.7873.0839-8.819.3358l-.42-.5877c.084-4.7033.2519-9.2387.2519-15.4532,0-13.4374-.5877-20.5764-1.0074-26.2032l.5037-.5877c4.2-.7556,4.9552-.9235,8.9029-1.679l.5877.5876-.084,4.3666c2.1828-1.5112,7.39-5.2071,14.7817-5.2071a14.5188,14.5188,0,0,1,6.97,1.5961,11.3815,11.3815,0,0,1,4.8713,5.4589c1.0914,2.52,1.1753,5.0392,1.2593,10.2462v9.8265c.2518,9.8254.3358,13.6053.5877,16.7965Z"/><path class="cls-1" d="M543.7437,846.2408c-.2519,2.7714-.2519,3.3591-.3358,5.7947l-.42.5037a22.8491,22.8491,0,0,1-6.3.7556c-2.0149,0-7.3059,0-9.9084-4.3665-1.5132-2.4357-1.5132-4.4515-1.5132-14.3619l.168-18.4766c-2.9384,0-3.0224.084-6.0466.1679l-.3358-.5037c.1679-2.6874.1679-3.3591.1679-6.0466l.5037-.5037c1.8489,0,2.94.084,5.7108,0-.084-1.764-.084-3.6119-.084-5.3749q-.126-2.3941-.2519-4.7873l.42-.5877c3.78-.9245,4.7033-1.1763,8.5671-2.3517l.5877.42c-.2518,5.5429-.3358,6.6343-.3358,12.7658,3.528-.084,4.5354-.084,9.3227-.2519l.42.5037c-.1679,2.1838-.2519,3.1073-.2519,5.9627l-.42.5037c-4.2-.084-4.7034-.1679-9.1548-.1679l-.168,15.6211c.084,1.0075.084,5.7948.084,6.9711,0,6.13.7556,8.0624,4.9552,8.0624a11.4467,11.4467,0,0,0,4.0317-.7565Z"/><path class="cls-1" d="M576.3175,853.1269l-.42-.5877c.1679-4.0317.2518-7.8945.2518-15.5372,0-3.611.084-21.164.084-25.1108,0-8.819-.2519-13.3534-.5877-17.721l.42-.5876,11.2536-.1679c1.681-.084,4.2836-.084,6.5523-.084,4.9532,0,10.2442.1679,14.4438,2.6035A12.7083,12.7083,0,0,1,614.95,807.44c0,2.9394-.84,11.3376-12.513,14.193a20.0114,20.0114,0,0,1,7.7277,1.5121c7.2219,3.1912,7.9775,9.5746,7.9775,12.6819,0,7.7266-4.7873,13.1855-11.5055,15.62-4.4515,1.5961-8.903,1.5961-15.5372,1.5961Zm9.0709-34.1817c7.5577.084,13.3525,0,16.88-2.7714a9.7756,9.7756,0,0,0,3.4441-7.3059,8.8242,8.8242,0,0,0-2.3527-5.9636c-2.9383-2.8554-8.1454-2.8554-10.0783-2.8554-2.6865,0-5.291.084-7.8935.2519Zm0,7.055c0,9.5746,0,11.0018.3358,20.1556h1.5951c6.2985,0,11.4216.085,14.6977-1.2593a9.5094,9.5094,0,0,0,6.2984-9.2377c0-9.8265-10.8338-9.91-14.8656-9.91-.7555,0-1.5111,0-6.0465.1679Z"/><path class="cls-1" d="M646.2935,817.9378a8.6444,8.6444,0,0,0-3.36-.7556,6.27,6.27,0,0,0-3.528,1.0914c-3.4421,2.4356-3.4421,6.13-3.4421,14.8656,0,9.49.2518,14.4448.5877,19.1482l-.42.5876c-3.9478,0-4.8713.084-8.903.2519l-.42-.5037c.0839-6.3824.1679-12.1781.1679-19.9887,0-13.4374-.2519-16.88-.7556-21.7517l.5037-.5877c3.1922-.5877,5.2071-1.0074,8.7351-1.679l.5037.5037-.42,7.1379c1.0075-2.6874,3.1063-8.0624,10.2462-8.0624a8.7013,8.7013,0,0,1,2.3507.2519l.3358.5047c-.84,4.0307-1.0074,4.87-1.5951,8.5661Z"/><path class="cls-1" d="M685.0858,835.5748a157.7459,157.7459,0,0,0,.5037,16.7965l-.42.42c-3.9477.0839-4.6193.1679-8.4812.3358l-.3378-.5037.084-3.0233a17.9914,17.9914,0,0,1-11.7574,4.2826c-8.3972,0-14.2759-5.7108-14.2759-14.0251,0-11.2536,9.4047-14.8646,24.5221-16.6286l1.4272-.1679c0-2.2677,0-3.8638-.7555-5.2071-.84-1.5121-2.77-3.1072-6.97-3.1072-5.4589,0-9.2388,1.6791-12.7648,3.1912l-.6716-.42c.1679-3.8638.1679-4.3675.2518-6.13l.5038-.5047a43.2943,43.2943,0,0,1,14.5278-2.7714c6.2164,0,12.263,2.1,14.026,8.651.5877,2.3507.5877,6.97.5877,10.4971Zm-9.4067-6.1315c-8.4812,1.26-16.3767,2.4356-16.3767,9.91,0,.42,0,7.6427,7.9794,7.6427a13.0944,13.0944,0,0,0,9.1529-3.6959V829.2754Z"/><path class="cls-1" d="M732.73,852.7911c-4.0317.0839-4.5354.0839-8.3992.3358l-.5877-.5877c0-.9235.084-1.8479.084-2.7714.0839-4.1157.0839-8.23.0839-12.346,0-12.9337-.0839-13.7732-.5037-15.5372-1.5951-6.3824-6.3824-6.3824-7.5577-6.3824-5.0392,0-8.903,2.9393-11.17,4.7033-.084,14.6127.0839,22.2554.6716,32.0819l-.5037.5037c-4.1157.0839-4.7873.0839-8.819.3358l-.42-.5877c.084-4.7033.2519-9.2387.2519-15.4532,0-13.4374-.5877-20.5764-1.0075-26.2032l.5038-.5877c4.2-.7556,4.9552-.9235,8.9029-1.679l.5877.5876-.084,4.3666c2.1828-1.5112,7.39-5.2071,14.7817-5.2071a14.5191,14.5191,0,0,1,6.97,1.5961,11.3815,11.3815,0,0,1,4.8713,5.4589c1.0914,2.52,1.1753,5.0392,1.2593,10.2462v9.8265c.2518,9.8254.3358,13.6053.5876,16.7965Z"/><path class="cls-1" d="M774.5624,842.8807c-.3358,3.6119-.42,4.0317-.6717,7.4748l-.5876.5876a23.6624,23.6624,0,0,1-11.5895,2.8554c-12.6828,0-20.9121-9.1538-20.9121-22.2554,0-13.3534,8.0614-23.4317,21.08-23.4317a27.6251,27.6251,0,0,1,11.5055,2.6874l.3358.5887c-.3358,3.0233-.42,4.1147-.5876,6.6342l-.6717.3359a15.919,15.919,0,0,0-9.3227-3.2752c-6.97,0-13.1025,5.375-13.1025,16.1249,0,11.4215,6.4683,15.5372,13.0186,15.5372a16.6439,16.6439,0,0,0,10.8338-4.2Z"/><path class="cls-1" d="M818.2259,852.7911c-4.0317.0839-4.5355.0839-8.3993.3358l-.5876-.5877.0839-2.7714c.084-4.3675.084-8.818.084-13.1856l-.084-8.9859a25.82,25.82,0,0,0-.42-5.7117c-.9235-3.8629-3.2742-6.3824-7.5578-6.3824-4.7873,0-8.4832,2.6875-11.2536,4.7033-.084,14.6127.0839,22.2554.5876,32.0819l-.42.5037c-3.8638.0839-4.8713.0839-8.9869.3358l-.42-.5877c.1679-5.9626.42-13.5213.42-29.6462,0-7.055-.084-14.109-.1679-21.164-.1679-7.3909-.42-9.8265-.6717-13.6053l.42-.5038c4.0317-.6726,5.375-.9244,9.1548-1.764l.5037.5877c-.5037,8.9869-.5037,18.0568-.5037,27.1267,2.6865-1.763,7.9775-5.2071,15.0335-5.2071a14.2372,14.2372,0,0,1,5.6268,1.0084,11.261,11.261,0,0,1,6.8861,7.9785c.42,1.6791.42,2.6875.5877,8.3143v9.8265l.084,3.9467c.1679,7.055.1679,8.23.5037,12.85Z"/><rect class="cls-2" y="429.5164" width="1116.133" height="5.9978"/><g id="CS"><path class="cls-3" d="M366.6553,292.5675a2.6361,2.6361,0,0,1-.5928-.0639,2.832,2.832,0,0,1-2.18-3.36L425.0017,2.2473A2.8348,2.8348,0,0,1,430.5466,3.43L369.4252,290.3214a2.839,2.839,0,0,1-2.77,2.2461Z"/><path class="cls-4" d="M496.845,73.451c-6.8941-.0737-8.6367-.0737-15.82.2171l-.2914-.363c0-6.53.0742-12.9884.1482-19.4475.069-4.1349.1432-8.2723.1432-12.4108,0-6.3843-.1432-11.1005-.437-18.8673l.3628-.3631c7.1139.0736,8.6367.0736,15.748-.2159l.2913.3631c-.2172,7.2565-.3629,11.6108-.3629,19.9566,0,10.2309.2173,20.609.5086,30.7677l-.2913.3631Z"/><path class="cls-4" d="M523.54,52.2616v10.014c5.66,0,10.9569-.1459,18.431-.4354l.4369.4354-.7283,10.7387-.6515.4367c-9.9425,0-11.6111-.0737-13.7881-.0737-7.98,0-12.12.1473-19.0136.2908l-.3628-.5066c.22-8.3457.2913-12.8448.2913-22.7151,0-17.415-.1457-20.3909-.5085-27.7933l.4369-.4367h32.6535l.3628.2931-.5059,10.0126-.4369.363H523.3939v9.2155L539.285,41.81l.4369.51-.58,9.5047-.5085.4367Z"/><path class="cls-4" d="M565.8315,52.2616v10.014c5.6572,0,10.9568-.1459,18.4309-.4354l.4344.4354-.7257,10.7387-.6541.4367c-9.94,0-11.6111-.0737-13.7855-.0737-7.9827,0-12.12.1473-19.0136.2908l-.3629-.5066c.22-8.3457.2888-12.8448.2888-22.7151,0-17.415-.1431-20.3909-.5059-27.7933l.4369-.4367h32.6534l.3628.2931-.5085,10.0126-.4343.363h-16.765v9.2155l15.8936-.2907.437.51-.5826,9.5047-.5085.4367Z"/><path class="cls-4" d="M608.1181,52.2616v10.014c5.665,0,10.9621-.1459,18.4336-.4354l.4369.4354-.7256,10.7387-.6542.4367c-9.9374,0-11.6085-.0737-13.7855-.0737-7.9826,0-12.1221.1473-19.0162.2908l-.36-.5066c.22-8.3457.2888-12.8448.2888-22.7151,0-17.415-.1457-20.3909-.506-27.7933l.437-.4367H625.32l.3629.2931-.5085,10.0126-.4344.363H607.9751v9.2155l15.8961-.2907.4293.51-.5775,9.5047-.5085.4367Z"/><path class="cls-4" d="M499.2137,115.02a21.39,21.39,0,0,0-9.7227-2.4443,20.9248,20.9248,0,0,0-18.454,10.7713,22.2675,22.2675,0,0,0-2.7929,11.0719,22.5313,22.5313,0,0,0,2.7929,11.1217,21.0331,21.0331,0,0,0,7.6785,7.9777,20.477,20.477,0,0,0,10.7755,2.9445,22.5006,22.5006,0,0,0,9.5234-2.2458,29.9148,29.9148,0,0,0,8.629-6.0337l9.2756,10.0737a42.0686,42.0686,0,0,1-13.1161,9.1779,36.5717,36.5717,0,0,1-15.1117,3.3911,37.1917,37.1917,0,0,1-18.6507-4.7435,34.57,34.57,0,0,1-13.1672-13.0108,36.194,36.194,0,0,1-4.786-18.4532A34.8293,34.8293,0,0,1,470.388,103.5a38.58,38.58,0,0,1,18.9011-4.6889,39.3759,39.3759,0,0,1,27.5276,11.6708l-9.1733,11.27a26.5589,26.5589,0,0,0-8.43-6.7326Z"/><path class="cls-4" d="M547.937,115.519a21.437,21.437,0,0,0-7.88,8.0275,22.6347,22.6347,0,0,0,7.9289,30.5206,20.3188,20.3188,0,0,0,10.7244,2.9945,20.06,20.06,0,0,0,10.62-2.9421,21.39,21.39,0,0,0,7.681-8.08,22.9792,22.9792,0,0,0,2.844-11.3213,22.51,22.51,0,0,0-2.844-11.1717,21.5009,21.5009,0,0,0-7.681-8.0275,20.0492,20.0492,0,0,0-10.62-2.9434,20.8071,20.8071,0,0,0-10.773,2.9434Zm29.62-12.0189a35.6581,35.6581,0,0,1,0,62.5823,40.6217,40.6217,0,0,1-38.0987,0,35.1494,35.1494,0,0,1-18.4515-31.3642,35.088,35.088,0,0,1,18.4-31.2181,41.1437,41.1437,0,0,1,38.15,0Z"/><polygon class="cls-4" points="607.38 99.909 624.934 99.909 646.679 142.798 668.223 99.909 685.68 99.909 685.68 169.728 671.516 169.728 671.516 122.551 651.667 162.646 641.495 162.646 621.543 122.551 621.543 169.728 607.38 169.728 607.38 99.909 607.38 99.909"/><path class="cls-4" d="M741.1825,133.5705q3.5378-3.0395,3.5415-8.926,0-5.7829-3.5415-8.7288-3.5418-2.9381-10.2235-2.9408H717.894v23.6373h13.065q6.6807,0,10.2235-3.0417Zm11.2225-27.3281q7.2826,6.3354,7.28,17.9031,0,12.1685-7.3309,18.9022-7.3323,6.73-20.5978,6.7324H717.894V169.728H702.1306V99.9092h29.6256q13.3651,0,20.6488,6.3332Z"/><path class="cls-4" d="M789.5558,152.7222q4.2468,4.3381,11.3223,4.3394,6.8838,0,10.97-4.292,4.09-4.2857,4.091-11.8679V99.9092h15.7607v40.9925a32.2628,32.2628,0,0,1-3.7383,15.9079,25.4293,25.4293,0,0,1-10.727,10.3733,35.0743,35.0743,0,0,1-16.4531,3.643,35.709,35.709,0,0,1-16.5606-3.643A25.5725,25.5725,0,0,1,773.3529,156.81a31.8686,31.8686,0,0,1-3.792-15.9079V99.9092h15.7583v40.9925q0,7.4821,4.2366,11.82Z"/><polygon class="cls-4" points="839.976 99.909 898.325 99.909 898.325 113.273 876.978 113.273 876.978 169.728 861.218 169.728 861.218 113.273 839.976 113.273 839.976 99.909 839.976 99.909"/><polygon class="cls-4" points="907.8 99.909 960.962 99.909 960.962 112.975 923.56 112.975 923.56 128.135 957.175 128.135 957.175 141.201 923.56 141.201 923.56 156.662 962.06 156.662 962.06 169.728 907.8 169.728 907.8 99.909 907.8 99.909"/><path class="cls-4" d="M991.1824,136.6122h14.56q6.5849,0,10.1264-3.0417,3.5415-3.0395,3.539-8.926,0-5.7829-3.539-8.7288-3.5493-2.9381-10.1264-2.9408h-14.56v23.6373Zm27.129,33.1158L1007.24,149.78H991.1824V169.728H975.4241V99.9092h30.3181q13.668,0,21.1446,6.3332,7.4856,6.3354,7.4842,17.9031a27.0131,27.0131,0,0,1-3.3447,13.8141,21.4672,21.4672,0,0,1-9.72,8.7264l14.8563,23.042Z"/><path class="cls-4" d="M467.2961,213.8608a34.6737,34.6737,0,0,0-10.3232-1.9438,12.18,12.18,0,0,0-6.4852,1.4946,4.862,4.862,0,0,0-2.3916,4.3894,6.1469,6.1469,0,0,0,3.4393,5.6345,52.9066,52.9066,0,0,0,10.6247,4.0376,91.5712,91.5712,0,0,1,11.818,4.1948,20.9254,20.9254,0,0,1,7.9289,6.2808q3.2925,4.1917,3.2912,11.0743a18.9751,18.9751,0,0,1-3.5391,11.517,21.8514,21.8514,0,0,1-9.7252,7.331,37.3246,37.3246,0,0,1-14.0641,2.494,48.1593,48.1593,0,0,1-16.6551-2.9922,44.9375,44.9375,0,0,1-14.1637-8.182l6.2834-12.8653a42.5367,42.5367,0,0,0,12.168,7.683,32.7416,32.7416,0,0,0,12.5693,2.89,13.8738,13.8738,0,0,0,7.6274-1.7922,6.2746,6.2746,0,0,0,.8994-9.627,14.1769,14.1769,0,0,0-4.6888-2.8424q-2.84-1.0927-7.8293-2.4926A89.26,89.26,0,0,1,442.36,236.152a20.5922,20.5922,0,0,1-7.8293-6.0838q-3.2923-4.0836-3.2911-10.87a18.466,18.466,0,0,1,3.3908-11.0245,21.5162,21.5162,0,0,1,9.4774-7.2763A36.48,36.48,0,0,1,458.271,198.35a49.0821,49.0821,0,0,1,14.1612,2.096,47.8682,47.8682,0,0,1,12.37,5.5874l-6.0866,13.0655a52.7509,52.7509,0,0,0-11.4194-5.2378Z"/><path class="cls-4" d="M519.211,215.2583a21.4579,21.4579,0,0,0-7.88,8.0275,22.64,22.64,0,0,0,7.929,30.5232,20.3549,20.3549,0,0,0,10.7243,2.9927,20.0724,20.0724,0,0,0,10.6222-2.9451,21.3694,21.3694,0,0,0,7.6785-8.08,22.9606,22.9606,0,0,0,2.844-11.3216,22.5132,22.5132,0,0,0-2.844-11.1692,21.476,21.476,0,0,0-7.6785-8.0275,20.0709,20.0709,0,0,0-10.6222-2.9444,20.8265,20.8265,0,0,0-10.7729,2.9444Zm29.6229-12.02a35.666,35.666,0,0,1,0,62.5861,40.6533,40.6533,0,0,1-38.1012,0,35.1489,35.1489,0,0,1-18.4514-31.3692,35.0915,35.0915,0,0,1,18.4-31.2169,41.15,41.15,0,0,1,38.1523,0Z"/><path class="cls-4" d="M618.9984,214.7592a21.3667,21.3667,0,0,0-9.72-2.4453,20.95,20.95,0,0,0-18.4565,10.7724,22.27,22.27,0,0,0-2.79,11.0744,22.5205,22.5205,0,0,0,2.79,11.1191,21.0832,21.0832,0,0,0,7.6811,7.98,20.5067,20.5067,0,0,0,10.7754,2.9437,22.4865,22.4865,0,0,0,9.5208-2.2451,29.8966,29.8966,0,0,0,8.6291-6.0337l9.2755,10.07a41.9406,41.9406,0,0,1-13.1135,9.1785,36.5536,36.5536,0,0,1-15.1117,3.3908,37.2051,37.2051,0,0,1-18.6532-4.74,34.6153,34.6153,0,0,1-13.1647-13.0108,36.1781,36.1781,0,0,1-4.7859-18.4557,34.8207,34.8207,0,0,1,18.3006-31.12,38.5638,38.5638,0,0,1,18.9012-4.6888,39.4293,39.4293,0,0,1,27.53,11.6708l-9.1785,11.2717a26.4713,26.4713,0,0,0-8.43-6.7326Z"/><polygon class="cls-4" points="647.078 199.647 662.836 199.647 662.836 269.468 647.078 269.468 647.078 199.647 647.078 199.647"/><polygon class="cls-4" points="679.292 199.647 732.451 199.647 732.451 212.713 695.048 212.713 695.048 227.877 728.662 227.877 728.662 240.943 695.048 240.943 695.048 256.4 733.547 256.4 733.547 269.468 679.292 269.468 679.292 199.647 679.292 199.647"/><polygon class="cls-4" points="740.03 199.647 798.379 199.647 798.379 213.015 777.035 213.015 777.035 269.468 761.279 269.468 761.279 213.015 740.03 213.015 740.03 199.647 740.03 199.647"/><polygon class="cls-4" points="866.903 199.647 841.468 246.924 841.468 269.468 825.71 269.468 825.71 247.326 799.876 199.647 815.734 199.647 833.593 230.967 851.045 199.647 866.903 199.647 866.903 199.647"/><path class="cls-5" d="M237.7438,202.018c.02,16.407,1.1777,16.9783,12.6264,17.7344l11.8106.6938.5126.2719c2.5405,1.3723,3.339,4.6114,3.0032,7.219-.3605,2.8024-1.9624,4.876-4.1809,5.42l-.3631.0822-.3743-.0148c-9.28-.4142-25.4413-.6588-43.2307-.6588-18.7527,0-34.91.2395-44.3289.6588l-.3743.0148-.3628-.0822c-2.2185-.544-3.8193-2.6176-4.1812-5.42-.3354-2.6076.4631-5.8467,3.0033-7.219l.5128-.2719,11.8292-.6938c11.44-.7561,12.5889-1.3274,12.6091-17.7694-45.08-5.068-73.164-26.8975-73.164-58.471,0-31.8,24.2224-52.1679,67.3434-57.8986.1549,4.1086.277,9.6258.3644,15.969a63.89,63.89,0,0,0-7.3961,2.2995l-1.1193.4155c-8.99,3.3675-15.1107,9.657-17.8069,18.2385l-.101.2869c-1.5646,3.7555-2.4254,10.85-2.4254,19.98l.0013.38-.0013.3765c0,9.1308.8608,16.2248,2.4254,19.978l.1147.3345A27.3126,27.3126,0,0,0,176.6413,179.32c8.4841,5.6468,24.6929,8.5614,40.7752,8.5614,17.5973,0,35.3393-3.4911,42.9514-10.2333a27.243,27.243,0,0,0,9.7332-13.817l.1009-.2943c1.5645-3.7532,2.4254-10.8472,2.4254-19.978l-.0023-.3467.0023-.4094c0-9.13-.8609-16.2247-2.4254-19.98l-.0986-.277c-2.7-8.5914-8.821-14.8809-17.7033-18.2048l-1.1577-.4328a71.5582,71.5582,0,0,0-13.5012-3.6709v80.1059a112.4427,112.4427,0,0,1-20.3247,1.7444,111.5211,111.5211,0,0,1-21.16-1.9041v-18.55c.3666-17.2854.7384-44.6843.3217-64.0719l.0038.0035c-.0012-.4639-.3281-13.5869-.3306-14.0214-.0787-12.6888-1.2851-14.0338-10.8174-15.0792L172.0247,66.92c-2.0325-.9109-3.4036-3.2278-3.577-6.0426-.1721-2.7986.8772-5.2414,2.74-6.3644l.4891-.3.5678-.0649c9.8116-1.1577,22.191-3.3451,34.8563-6.1561,6.6712-1.5919,12.8672-3.6095,17.3938-5.0841,4.5092-1.4711,6.3868-2.0649,7.5934-2.0649a6.4887,6.4887,0,0,1,6.3582,4.2907l.161.52-.0588.5466c-.5051,4.6811-.8072,14.4291-.8072,26.06V84.8622c46.9789,4.56,73.4582,25.3615,73.4582,58.65,0,31.6435-28.2025,53.5029-73.4556,58.506Zm-20.9024-185.37C141.25,16.6479,79.97,72.6987,79.97,141.8374c0,69.1413,61.28,125.1878,136.8715,125.1878S353.713,210.9787,353.713,141.8374c0-69.1387-61.28-125.19-136.8716-125.19Z"/><path class="cls-5" d="M312.411,259.2981h3.4673l5.7631,11.8615,5.7217-11.8615h3.5086V276.84h-2.715V263.476l-5.5559,11.5267h-1.92L315.126,263.476V276.84h-2.715V259.2981Zm-16.1212,0h13.5323v2.5911h-5.3039V276.84h-2.9656V261.8892H296.29v-2.5911Z"/></g></g></g></g></svg>